<svg xmlns="http://www.w3.org/2000/svg" xmlns:xlink="http://www.w3.org/1999/xlink" width="500" zoomAndPan="magnify" viewBox="0 0 375 374.999991" height="500" preserveAspectRatio="xMidYMid meet" version="1.0"><defs><g/><linearGradient x1="250" gradientTransform="matrix(0.75, 0, 0, 0.75, 0.0000045, 0)" y1="499.999979" x2="250" gradientUnits="userSpaceOnUse" y2="0" id="da233d07b2"><stop stop-opacity="1" stop-color="rgb(28.62854%, 5.488586%, 14.118958%)" offset="0"/><stop stop-opacity="1" stop-color="rgb(29.148865%, 5.734253%, 14.305115%)" offset="0.00390625"/><stop stop-opacity="1" stop-color="rgb(29.670715%, 5.979919%, 14.492798%)" offset="0.0078125"/><stop stop-opacity="1" stop-color="rgb(30.19104%, 6.22406%, 14.678955%)" offset="0.0117187"/><stop stop-opacity="1" stop-color="rgb(30.712891%, 6.469727%, 14.866638%)" offset="0.015625"/><stop stop-opacity="1" stop-color="rgb(31.233215%, 6.713867%, 15.052795%)" offset="0.0195312"/><stop stop-opacity="1" stop-color="rgb(31.75354%, 6.959534%, 15.240479%)" offset="0.0234375"/><stop stop-opacity="1" stop-color="rgb(32.273865%, 7.203674%, 15.426636%)" offset="0.0273437"/><stop stop-opacity="1" stop-color="rgb(32.795715%, 7.449341%, 15.614319%)" offset="0.03125"/><stop stop-opacity="1" stop-color="rgb(33.31604%, 7.695007%, 15.800476%)" offset="0.0351562"/><stop stop-opacity="1" stop-color="rgb(33.836365%, 7.940674%, 15.988159%)" offset="0.0390625"/><stop stop-opacity="1" stop-color="rgb(34.356689%, 8.184814%, 16.174316%)" offset="0.0429687"/><stop stop-opacity="1" stop-color="rgb(34.87854%, 8.430481%, 16.362%)" offset="0.046875"/><stop stop-opacity="1" stop-color="rgb(35.398865%, 8.674622%, 16.548157%)" offset="0.0507812"/><stop stop-opacity="1" stop-color="rgb(35.920715%, 8.920288%, 16.73584%)" offset="0.0546875"/><stop stop-opacity="1" stop-color="rgb(36.44104%, 9.164429%, 16.921997%)" offset="0.0585937"/><stop stop-opacity="1" stop-color="rgb(36.961365%, 9.410095%, 17.10968%)" offset="0.0625"/><stop stop-opacity="1" stop-color="rgb(37.481689%, 9.654236%, 17.295837%)" offset="0.0664062"/><stop stop-opacity="1" stop-color="rgb(38.00354%, 9.899902%, 17.483521%)" offset="0.0703125"/><stop stop-opacity="1" stop-color="rgb(38.523865%, 10.145569%, 17.669678%)" offset="0.0742187"/><stop stop-opacity="1" stop-color="rgb(39.044189%, 10.391235%, 17.857361%)" offset="0.078125"/><stop stop-opacity="1" stop-color="rgb(39.564514%, 10.635376%, 18.043518%)" offset="0.0820312"/><stop stop-opacity="1" stop-color="rgb(40.086365%, 10.881042%, 18.231201%)" offset="0.0859375"/><stop stop-opacity="1" stop-color="rgb(40.606689%, 11.125183%, 18.417358%)" offset="0.0898437"/><stop stop-opacity="1" stop-color="rgb(41.12854%, 11.37085%, 18.603516%)" offset="0.09375"/><stop stop-opacity="1" stop-color="rgb(41.648865%, 11.61499%, 18.789673%)" offset="0.0976562"/><stop stop-opacity="1" stop-color="rgb(42.169189%, 11.860657%, 18.977356%)" offset="0.101562"/><stop stop-opacity="1" stop-color="rgb(42.689514%, 12.106323%, 19.163513%)" offset="0.105469"/><stop stop-opacity="1" stop-color="rgb(43.211365%, 12.35199%, 19.351196%)" offset="0.109375"/><stop stop-opacity="1" stop-color="rgb(43.731689%, 12.59613%, 19.537354%)" offset="0.113281"/><stop stop-opacity="1" stop-color="rgb(44.252014%, 12.841797%, 19.725037%)" offset="0.117188"/><stop stop-opacity="1" stop-color="rgb(44.772339%, 13.085938%, 19.911194%)" offset="0.121094"/><stop stop-opacity="1" stop-color="rgb(45.294189%, 13.331604%, 20.098877%)" offset="0.125"/><stop stop-opacity="1" stop-color="rgb(45.814514%, 13.575745%, 20.285034%)" offset="0.128906"/><stop stop-opacity="1" stop-color="rgb(46.336365%, 13.821411%, 20.472717%)" offset="0.132812"/><stop stop-opacity="1" stop-color="rgb(46.856689%, 14.067078%, 20.658875%)" offset="0.136719"/><stop stop-opacity="1" stop-color="rgb(47.377014%, 14.312744%, 20.846558%)" offset="0.140625"/><stop stop-opacity="1" stop-color="rgb(47.897339%, 14.556885%, 21.032715%)" offset="0.144531"/><stop stop-opacity="1" stop-color="rgb(48.419189%, 14.802551%, 21.220398%)" offset="0.148437"/><stop stop-opacity="1" stop-color="rgb(48.939514%, 15.046692%, 21.406555%)" offset="0.152344"/><stop stop-opacity="1" stop-color="rgb(49.459839%, 15.292358%, 21.594238%)" offset="0.15625"/><stop stop-opacity="1" stop-color="rgb(49.980164%, 15.536499%, 21.780396%)" offset="0.160156"/><stop stop-opacity="1" stop-color="rgb(50.502014%, 15.782166%, 21.968079%)" offset="0.164062"/><stop stop-opacity="1" stop-color="rgb(51.022339%, 16.026306%, 22.154236%)" offset="0.167969"/><stop stop-opacity="1" stop-color="rgb(51.544189%, 16.271973%, 22.341919%)" offset="0.171875"/><stop stop-opacity="1" stop-color="rgb(52.064514%, 16.517639%, 22.528076%)" offset="0.175781"/><stop stop-opacity="1" stop-color="rgb(52.584839%, 16.763306%, 22.715759%)" offset="0.179687"/><stop stop-opacity="1" stop-color="rgb(53.105164%, 17.007446%, 22.901917%)" offset="0.183594"/><stop stop-opacity="1" stop-color="rgb(53.627014%, 17.253113%, 23.0896%)" offset="0.1875"/><stop stop-opacity="1" stop-color="rgb(54.147339%, 17.497253%, 23.275757%)" offset="0.191406"/><stop stop-opacity="1" stop-color="rgb(54.667664%, 17.74292%, 23.46344%)" offset="0.195312"/><stop stop-opacity="1" stop-color="rgb(55.187988%, 17.987061%, 23.649597%)" offset="0.199219"/><stop stop-opacity="1" stop-color="rgb(55.709839%, 18.232727%, 23.83728%)" offset="0.203125"/><stop stop-opacity="1" stop-color="rgb(56.230164%, 18.478394%, 24.023438%)" offset="0.207031"/><stop stop-opacity="1" stop-color="rgb(56.752014%, 18.72406%, 24.211121%)" offset="0.210938"/><stop stop-opacity="1" stop-color="rgb(57.272339%, 18.968201%, 24.397278%)" offset="0.214844"/><stop stop-opacity="1" stop-color="rgb(57.792664%, 19.213867%, 24.584961%)" offset="0.21875"/><stop stop-opacity="1" stop-color="rgb(58.312988%, 19.458008%, 24.771118%)" offset="0.222656"/><stop stop-opacity="1" stop-color="rgb(58.834839%, 19.703674%, 24.957275%)" offset="0.226562"/><stop stop-opacity="1" stop-color="rgb(59.355164%, 19.947815%, 25.143433%)" offset="0.230469"/><stop stop-opacity="1" stop-color="rgb(59.875488%, 20.193481%, 25.331116%)" offset="0.234375"/><stop stop-opacity="1" stop-color="rgb(60.395813%, 20.439148%, 25.517273%)" offset="0.238281"/><stop stop-opacity="1" stop-color="rgb(60.917664%, 20.684814%, 25.704956%)" offset="0.242188"/><stop stop-opacity="1" stop-color="rgb(61.437988%, 20.928955%, 25.891113%)" offset="0.246094"/><stop stop-opacity="1" stop-color="rgb(61.959839%, 21.174622%, 26.078796%)" offset="0.25"/><stop stop-opacity="1" stop-color="rgb(62.480164%, 21.418762%, 26.264954%)" offset="0.253906"/><stop stop-opacity="1" stop-color="rgb(63.000488%, 21.664429%, 26.452637%)" offset="0.257812"/><stop stop-opacity="1" stop-color="rgb(63.520813%, 21.908569%, 26.638794%)" offset="0.261719"/><stop stop-opacity="1" stop-color="rgb(64.042664%, 22.154236%, 26.826477%)" offset="0.265625"/><stop stop-opacity="1" stop-color="rgb(64.562988%, 22.398376%, 27.012634%)" offset="0.269531"/><stop stop-opacity="1" stop-color="rgb(65.083313%, 22.644043%, 27.200317%)" offset="0.273437"/><stop stop-opacity="1" stop-color="rgb(65.603638%, 22.889709%, 27.386475%)" offset="0.277344"/><stop stop-opacity="1" stop-color="rgb(66.125488%, 23.135376%, 27.574158%)" offset="0.28125"/><stop stop-opacity="1" stop-color="rgb(66.645813%, 23.379517%, 27.760315%)" offset="0.285156"/><stop stop-opacity="1" stop-color="rgb(67.167664%, 23.625183%, 27.947998%)" offset="0.289062"/><stop stop-opacity="1" stop-color="rgb(67.687988%, 23.869324%, 28.134155%)" offset="0.292969"/><stop stop-opacity="1" stop-color="rgb(68.208313%, 24.11499%, 28.321838%)" offset="0.296875"/><stop stop-opacity="1" stop-color="rgb(68.728638%, 24.359131%, 28.507996%)" offset="0.300781"/><stop stop-opacity="1" stop-color="rgb(69.250488%, 24.604797%, 28.695679%)" offset="0.304687"/><stop stop-opacity="1" stop-color="rgb(69.770813%, 24.850464%, 28.881836%)" offset="0.308594"/><stop stop-opacity="1" stop-color="rgb(70.291138%, 25.09613%, 29.069519%)" offset="0.3125"/><stop stop-opacity="1" stop-color="rgb(70.811462%, 25.340271%, 29.255676%)" offset="0.316406"/><stop stop-opacity="1" stop-color="rgb(71.333313%, 25.585938%, 29.443359%)" offset="0.320312"/><stop stop-opacity="1" stop-color="rgb(71.853638%, 25.830078%, 29.629517%)" offset="0.324219"/><stop stop-opacity="1" stop-color="rgb(72.375488%, 26.075745%, 29.8172%)" offset="0.328125"/><stop stop-opacity="1" stop-color="rgb(72.895813%, 26.319885%, 30.003357%)" offset="0.332031"/><stop stop-opacity="1" stop-color="rgb(73.416138%, 26.565552%, 30.19104%)" offset="0.335937"/><stop stop-opacity="1" stop-color="rgb(73.936462%, 26.809692%, 30.377197%)" offset="0.339844"/><stop stop-opacity="1" stop-color="rgb(74.458313%, 27.055359%, 30.56488%)" offset="0.34375"/><stop stop-opacity="1" stop-color="rgb(74.978638%, 27.301025%, 30.751038%)" offset="0.347656"/><stop stop-opacity="1" stop-color="rgb(75.498962%, 27.546692%, 30.938721%)" offset="0.351562"/><stop stop-opacity="1" stop-color="rgb(76.019287%, 27.790833%, 31.124878%)" offset="0.355469"/><stop stop-opacity="1" stop-color="rgb(76.541138%, 28.036499%, 31.311035%)" offset="0.359375"/><stop stop-opacity="1" stop-color="rgb(77.061462%, 28.28064%, 31.497192%)" offset="0.363281"/><stop stop-opacity="1" stop-color="rgb(77.583313%, 28.526306%, 31.684875%)" offset="0.367187"/><stop stop-opacity="1" stop-color="rgb(78.103638%, 28.770447%, 31.871033%)" offset="0.371094"/><stop stop-opacity="1" stop-color="rgb(78.623962%, 29.016113%, 32.058716%)" offset="0.375"/><stop stop-opacity="1" stop-color="rgb(79.144287%, 29.26178%, 32.244873%)" offset="0.378906"/><stop stop-opacity="1" stop-color="rgb(79.666138%, 29.507446%, 32.432556%)" offset="0.382812"/><stop stop-opacity="1" stop-color="rgb(80.186462%, 29.751587%, 32.618713%)" offset="0.386719"/><stop stop-opacity="1" stop-color="rgb(80.706787%, 29.997253%, 32.806396%)" offset="0.390625"/><stop stop-opacity="1" stop-color="rgb(81.227112%, 30.241394%, 32.992554%)" offset="0.394531"/><stop stop-opacity="1" stop-color="rgb(81.748962%, 30.487061%, 33.180237%)" offset="0.398438"/><stop stop-opacity="1" stop-color="rgb(82.269287%, 30.731201%, 33.366394%)" offset="0.402344"/><stop stop-opacity="1" stop-color="rgb(82.791138%, 30.976868%, 33.554077%)" offset="0.40625"/><stop stop-opacity="1" stop-color="rgb(83.311462%, 31.222534%, 33.740234%)" offset="0.410156"/><stop stop-opacity="1" stop-color="rgb(83.831787%, 31.468201%, 33.927917%)" offset="0.414062"/><stop stop-opacity="1" stop-color="rgb(84.352112%, 31.712341%, 34.114075%)" offset="0.417969"/><stop stop-opacity="1" stop-color="rgb(84.873962%, 31.958008%, 34.301758%)" offset="0.421875"/><stop stop-opacity="1" stop-color="rgb(85.394287%, 32.202148%, 34.487915%)" offset="0.425781"/><stop stop-opacity="1" stop-color="rgb(85.914612%, 32.447815%, 34.675598%)" offset="0.429688"/><stop stop-opacity="1" stop-color="rgb(86.434937%, 32.691956%, 34.861755%)" offset="0.433594"/><stop stop-opacity="1" stop-color="rgb(86.956787%, 32.937622%, 35.049438%)" offset="0.4375"/><stop stop-opacity="1" stop-color="rgb(87.477112%, 33.181763%, 35.235596%)" offset="0.441406"/><stop stop-opacity="1" stop-color="rgb(87.998962%, 33.427429%, 35.423279%)" offset="0.445312"/><stop stop-opacity="1" stop-color="rgb(88.519287%, 33.673096%, 35.609436%)" offset="0.449219"/><stop stop-opacity="1" stop-color="rgb(89.039612%, 33.918762%, 35.797119%)" offset="0.453125"/><stop stop-opacity="1" stop-color="rgb(89.559937%, 34.162903%, 35.983276%)" offset="0.457031"/><stop stop-opacity="1" stop-color="rgb(90.081787%, 34.408569%, 36.170959%)" offset="0.460938"/><stop stop-opacity="1" stop-color="rgb(90.602112%, 34.65271%, 36.357117%)" offset="0.464844"/><stop stop-opacity="1" stop-color="rgb(91.122437%, 34.898376%, 36.5448%)" offset="0.46875"/><stop stop-opacity="1" stop-color="rgb(91.642761%, 35.142517%, 36.730957%)" offset="0.472656"/><stop stop-opacity="1" stop-color="rgb(92.164612%, 35.388184%, 36.91864%)" offset="0.476562"/><stop stop-opacity="1" stop-color="rgb(92.684937%, 35.63385%, 37.104797%)" offset="0.480469"/><stop stop-opacity="1" stop-color="rgb(93.206787%, 35.879517%, 37.29248%)" offset="0.484375"/><stop stop-opacity="1" stop-color="rgb(93.727112%, 36.123657%, 37.478638%)" offset="0.488281"/><stop stop-opacity="1" stop-color="rgb(94.247437%, 36.369324%, 37.664795%)" offset="0.492188"/><stop stop-opacity="1" stop-color="rgb(94.767761%, 36.613464%, 37.850952%)" offset="0.496094"/><stop stop-opacity="1" stop-color="rgb(95.289612%, 36.859131%, 38.038635%)" offset="0.5"/><stop stop-opacity="1" stop-color="rgb(95.326233%, 37.266541%, 38.148499%)" offset="0.503906"/><stop stop-opacity="1" stop-color="rgb(95.362854%, 37.67395%, 38.259888%)" offset="0.507812"/><stop stop-opacity="1" stop-color="rgb(95.399475%, 38.08136%, 38.369751%)" offset="0.511719"/><stop stop-opacity="1" stop-color="rgb(95.436096%, 38.48877%, 38.48114%)" offset="0.515625"/><stop stop-opacity="1" stop-color="rgb(95.472717%, 38.896179%, 38.591003%)" offset="0.519531"/><stop stop-opacity="1" stop-color="rgb(95.509338%, 39.303589%, 38.700867%)" offset="0.523437"/><stop stop-opacity="1" stop-color="rgb(95.545959%, 39.710999%, 38.81073%)" offset="0.527344"/><stop stop-opacity="1" stop-color="rgb(95.584106%, 40.119934%, 38.922119%)" offset="0.53125"/><stop stop-opacity="1" stop-color="rgb(95.620728%, 40.527344%, 39.031982%)" offset="0.535156"/><stop stop-opacity="1" stop-color="rgb(95.657349%, 40.934753%, 39.141846%)" offset="0.539062"/><stop stop-opacity="1" stop-color="rgb(95.69397%, 41.342163%, 39.251709%)" offset="0.542969"/><stop stop-opacity="1" stop-color="rgb(95.730591%, 41.749573%, 39.363098%)" offset="0.546875"/><stop stop-opacity="1" stop-color="rgb(95.767212%, 42.156982%, 39.472961%)" offset="0.550781"/><stop stop-opacity="1" stop-color="rgb(95.803833%, 42.564392%, 39.584351%)" offset="0.554687"/><stop stop-opacity="1" stop-color="rgb(95.840454%, 42.971802%, 39.694214%)" offset="0.558594"/><stop stop-opacity="1" stop-color="rgb(95.878601%, 43.379211%, 39.804077%)" offset="0.5625"/><stop stop-opacity="1" stop-color="rgb(95.915222%, 43.786621%, 39.91394%)" offset="0.566406"/><stop stop-opacity="1" stop-color="rgb(95.951843%, 44.194031%, 40.02533%)" offset="0.570312"/><stop stop-opacity="1" stop-color="rgb(95.988464%, 44.60144%, 40.135193%)" offset="0.574219"/><stop stop-opacity="1" stop-color="rgb(96.025085%, 45.00885%, 40.245056%)" offset="0.578125"/><stop stop-opacity="1" stop-color="rgb(96.061707%, 45.41626%, 40.354919%)" offset="0.582031"/><stop stop-opacity="1" stop-color="rgb(96.098328%, 45.823669%, 40.466309%)" offset="0.585937"/><stop stop-opacity="1" stop-color="rgb(96.134949%, 46.231079%, 40.576172%)" offset="0.589844"/><stop stop-opacity="1" stop-color="rgb(96.173096%, 46.638489%, 40.686035%)" offset="0.59375"/><stop stop-opacity="1" stop-color="rgb(96.209717%, 47.045898%, 40.795898%)" offset="0.597656"/><stop stop-opacity="1" stop-color="rgb(96.246338%, 47.454834%, 40.907288%)" offset="0.601562"/><stop stop-opacity="1" stop-color="rgb(96.282959%, 47.862244%, 41.017151%)" offset="0.605469"/><stop stop-opacity="1" stop-color="rgb(96.31958%, 48.269653%, 41.12854%)" offset="0.609375"/><stop stop-opacity="1" stop-color="rgb(96.356201%, 48.677063%, 41.238403%)" offset="0.613281"/><stop stop-opacity="1" stop-color="rgb(96.392822%, 49.084473%, 41.348267%)" offset="0.617187"/><stop stop-opacity="1" stop-color="rgb(96.429443%, 49.491882%, 41.45813%)" offset="0.621094"/><stop stop-opacity="1" stop-color="rgb(96.466064%, 49.899292%, 41.569519%)" offset="0.625"/><stop stop-opacity="1" stop-color="rgb(96.502686%, 50.306702%, 41.679382%)" offset="0.628906"/><stop stop-opacity="1" stop-color="rgb(96.540833%, 50.714111%, 41.789246%)" offset="0.632812"/><stop stop-opacity="1" stop-color="rgb(96.577454%, 51.121521%, 41.899109%)" offset="0.636719"/><stop stop-opacity="1" stop-color="rgb(96.614075%, 51.528931%, 42.010498%)" offset="0.640625"/><stop stop-opacity="1" stop-color="rgb(96.650696%, 51.93634%, 42.120361%)" offset="0.644531"/><stop stop-opacity="1" stop-color="rgb(96.687317%, 52.34375%, 42.23175%)" offset="0.648437"/><stop stop-opacity="1" stop-color="rgb(96.723938%, 52.75116%, 42.341614%)" offset="0.652344"/><stop stop-opacity="1" stop-color="rgb(96.760559%, 53.158569%, 42.451477%)" offset="0.65625"/><stop stop-opacity="1" stop-color="rgb(96.79718%, 53.565979%, 42.56134%)" offset="0.660156"/><stop stop-opacity="1" stop-color="rgb(96.835327%, 53.974915%, 42.672729%)" offset="0.664062"/><stop stop-opacity="1" stop-color="rgb(96.871948%, 54.382324%, 42.782593%)" offset="0.667969"/><stop stop-opacity="1" stop-color="rgb(96.908569%, 54.789734%, 42.892456%)" offset="0.671875"/><stop stop-opacity="1" stop-color="rgb(96.94519%, 55.197144%, 43.002319%)" offset="0.675781"/><stop stop-opacity="1" stop-color="rgb(96.981812%, 55.604553%, 43.113708%)" offset="0.679687"/><stop stop-opacity="1" stop-color="rgb(97.018433%, 56.011963%, 43.223572%)" offset="0.683594"/><stop stop-opacity="1" stop-color="rgb(97.055054%, 56.419373%, 43.334961%)" offset="0.6875"/><stop stop-opacity="1" stop-color="rgb(97.091675%, 56.826782%, 43.444824%)" offset="0.691406"/><stop stop-opacity="1" stop-color="rgb(97.129822%, 57.234192%, 43.554688%)" offset="0.695312"/><stop stop-opacity="1" stop-color="rgb(97.166443%, 57.641602%, 43.664551%)" offset="0.699219"/><stop stop-opacity="1" stop-color="rgb(97.203064%, 58.049011%, 43.77594%)" offset="0.703125"/><stop stop-opacity="1" stop-color="rgb(97.239685%, 58.456421%, 43.885803%)" offset="0.707031"/><stop stop-opacity="1" stop-color="rgb(97.276306%, 58.863831%, 43.995667%)" offset="0.710937"/><stop stop-opacity="1" stop-color="rgb(97.312927%, 59.27124%, 44.10553%)" offset="0.714844"/><stop stop-opacity="1" stop-color="rgb(97.349548%, 59.67865%, 44.216919%)" offset="0.71875"/><stop stop-opacity="1" stop-color="rgb(97.386169%, 60.08606%, 44.326782%)" offset="0.722656"/><stop stop-opacity="1" stop-color="rgb(97.422791%, 60.494995%, 44.436646%)" offset="0.726562"/><stop stop-opacity="1" stop-color="rgb(97.459412%, 60.902405%, 44.546509%)" offset="0.730469"/><stop stop-opacity="1" stop-color="rgb(97.497559%, 61.309814%, 44.657898%)" offset="0.734375"/><stop stop-opacity="1" stop-color="rgb(97.53418%, 61.717224%, 44.767761%)" offset="0.738281"/><stop stop-opacity="1" stop-color="rgb(97.570801%, 62.124634%, 44.87915%)" offset="0.742187"/><stop stop-opacity="1" stop-color="rgb(97.607422%, 62.532043%, 44.989014%)" offset="0.746094"/><stop stop-opacity="1" stop-color="rgb(97.644043%, 62.939453%, 45.098877%)" offset="0.75"/><stop stop-opacity="1" stop-color="rgb(97.680664%, 63.346863%, 45.20874%)" offset="0.753906"/><stop stop-opacity="1" stop-color="rgb(97.717285%, 63.754272%, 45.320129%)" offset="0.757812"/><stop stop-opacity="1" stop-color="rgb(97.753906%, 64.161682%, 45.429993%)" offset="0.761719"/><stop stop-opacity="1" stop-color="rgb(97.792053%, 64.569092%, 45.539856%)" offset="0.765625"/><stop stop-opacity="1" stop-color="rgb(97.828674%, 64.976501%, 45.649719%)" offset="0.769531"/><stop stop-opacity="1" stop-color="rgb(97.865295%, 65.383911%, 45.761108%)" offset="0.773438"/><stop stop-opacity="1" stop-color="rgb(97.901917%, 65.791321%, 45.870972%)" offset="0.777344"/><stop stop-opacity="1" stop-color="rgb(97.938538%, 66.19873%, 45.982361%)" offset="0.78125"/><stop stop-opacity="1" stop-color="rgb(97.975159%, 66.60614%, 46.092224%)" offset="0.785156"/><stop stop-opacity="1" stop-color="rgb(98.01178%, 67.01355%, 46.202087%)" offset="0.789062"/><stop stop-opacity="1" stop-color="rgb(98.048401%, 67.420959%, 46.311951%)" offset="0.792969"/><stop stop-opacity="1" stop-color="rgb(98.086548%, 67.829895%, 46.42334%)" offset="0.796875"/><stop stop-opacity="1" stop-color="rgb(98.123169%, 68.237305%, 46.533203%)" offset="0.800781"/><stop stop-opacity="1" stop-color="rgb(98.15979%, 68.644714%, 46.643066%)" offset="0.804688"/><stop stop-opacity="1" stop-color="rgb(98.196411%, 69.052124%, 46.75293%)" offset="0.808594"/><stop stop-opacity="1" stop-color="rgb(98.233032%, 69.459534%, 46.864319%)" offset="0.8125"/><stop stop-opacity="1" stop-color="rgb(98.269653%, 69.866943%, 46.974182%)" offset="0.816406"/><stop stop-opacity="1" stop-color="rgb(98.306274%, 70.274353%, 47.085571%)" offset="0.820312"/><stop stop-opacity="1" stop-color="rgb(98.342896%, 70.681763%, 47.195435%)" offset="0.824219"/><stop stop-opacity="1" stop-color="rgb(98.379517%, 71.089172%, 47.305298%)" offset="0.828125"/><stop stop-opacity="1" stop-color="rgb(98.416138%, 71.496582%, 47.415161%)" offset="0.832031"/><stop stop-opacity="1" stop-color="rgb(98.454285%, 71.903992%, 47.52655%)" offset="0.835938"/><stop stop-opacity="1" stop-color="rgb(98.490906%, 72.311401%, 47.636414%)" offset="0.839844"/><stop stop-opacity="1" stop-color="rgb(98.527527%, 72.718811%, 47.746277%)" offset="0.84375"/><stop stop-opacity="1" stop-color="rgb(98.564148%, 73.126221%, 47.85614%)" offset="0.847656"/><stop stop-opacity="1" stop-color="rgb(98.600769%, 73.53363%, 47.967529%)" offset="0.851562"/><stop stop-opacity="1" stop-color="rgb(98.63739%, 73.94104%, 48.077393%)" offset="0.855469"/><stop stop-opacity="1" stop-color="rgb(98.674011%, 74.349976%, 48.187256%)" offset="0.859375"/><stop stop-opacity="1" stop-color="rgb(98.710632%, 74.757385%, 48.297119%)" offset="0.863281"/><stop stop-opacity="1" stop-color="rgb(98.748779%, 75.164795%, 48.408508%)" offset="0.867188"/><stop stop-opacity="1" stop-color="rgb(98.7854%, 75.572205%, 48.518372%)" offset="0.871094"/><stop stop-opacity="1" stop-color="rgb(98.822021%, 75.979614%, 48.629761%)" offset="0.875"/><stop stop-opacity="1" stop-color="rgb(98.858643%, 76.387024%, 48.739624%)" offset="0.878906"/><stop stop-opacity="1" stop-color="rgb(98.895264%, 76.794434%, 48.849487%)" offset="0.882812"/><stop stop-opacity="1" stop-color="rgb(98.931885%, 77.201843%, 48.959351%)" offset="0.886719"/><stop stop-opacity="1" stop-color="rgb(98.968506%, 77.609253%, 49.07074%)" offset="0.890625"/><stop stop-opacity="1" stop-color="rgb(99.005127%, 78.016663%, 49.180603%)" offset="0.894531"/><stop stop-opacity="1" stop-color="rgb(99.043274%, 78.424072%, 49.290466%)" offset="0.898438"/><stop stop-opacity="1" stop-color="rgb(99.079895%, 78.831482%, 49.40033%)" offset="0.902344"/><stop stop-opacity="1" stop-color="rgb(99.116516%, 79.238892%, 49.511719%)" offset="0.90625"/><stop stop-opacity="1" stop-color="rgb(99.153137%, 79.646301%, 49.621582%)" offset="0.910156"/><stop stop-opacity="1" stop-color="rgb(99.189758%, 80.053711%, 49.732971%)" offset="0.914062"/><stop stop-opacity="1" stop-color="rgb(99.226379%, 80.461121%, 49.842834%)" offset="0.917969"/><stop stop-opacity="1" stop-color="rgb(99.263%, 80.86853%, 49.952698%)" offset="0.921875"/><stop stop-opacity="1" stop-color="rgb(99.299622%, 81.27594%, 50.062561%)" offset="0.925781"/><stop stop-opacity="1" stop-color="rgb(99.336243%, 81.684875%, 50.17395%)" offset="0.929688"/><stop stop-opacity="1" stop-color="rgb(99.372864%, 82.092285%, 50.283813%)" offset="0.933594"/><stop stop-opacity="1" stop-color="rgb(99.411011%, 82.499695%, 50.393677%)" offset="0.9375"/><stop stop-opacity="1" stop-color="rgb(99.447632%, 82.907104%, 50.50354%)" offset="0.941406"/><stop stop-opacity="1" stop-color="rgb(99.484253%, 83.314514%, 50.614929%)" offset="0.945312"/><stop stop-opacity="1" stop-color="rgb(99.520874%, 83.721924%, 50.724792%)" offset="0.949219"/><stop stop-opacity="1" stop-color="rgb(99.557495%, 84.129333%, 50.836182%)" offset="0.953125"/><stop stop-opacity="1" stop-color="rgb(99.594116%, 84.536743%, 50.946045%)" offset="0.957031"/><stop stop-opacity="1" stop-color="rgb(99.630737%, 84.944153%, 51.055908%)" offset="0.960938"/><stop stop-opacity="1" stop-color="rgb(99.667358%, 85.351562%, 51.165771%)" offset="0.964844"/><stop stop-opacity="1" stop-color="rgb(99.705505%, 85.758972%, 51.277161%)" offset="0.96875"/><stop stop-opacity="1" stop-color="rgb(99.742126%, 86.166382%, 51.387024%)" offset="0.972656"/><stop stop-opacity="1" stop-color="rgb(99.778748%, 86.573792%, 51.496887%)" offset="0.976562"/><stop stop-opacity="1" stop-color="rgb(99.815369%, 86.981201%, 51.60675%)" offset="0.980469"/><stop stop-opacity="1" stop-color="rgb(99.85199%, 87.388611%, 51.71814%)" offset="0.984375"/><stop stop-opacity="1" stop-color="rgb(99.888611%, 87.796021%, 51.828003%)" offset="0.988281"/><stop stop-opacity="1" stop-color="rgb(99.925232%, 88.204956%, 51.937866%)" offset="0.992188"/><stop stop-opacity="1" stop-color="rgb(99.961853%, 88.612366%, 52.047729%)" offset="0.996094"/><stop stop-opacity="1" stop-color="rgb(100%, 89.019775%, 52.159119%)" offset="1"/></linearGradient><clipPath id="029ddc0548"><path d="M 204.769531 147.492188 L 232.519531 147.492188 L 232.519531 175.242188 L 204.769531 175.242188 Z M 204.769531 147.492188 " clip-rule="nonzero"/></clipPath><clipPath id="1b7884b708"><path d="M 35 19 L 89.921875 19 L 89.921875 54 L 35 54 Z M 35 19 " clip-rule="nonzero"/></clipPath><clipPath id="e08155cbf4"><rect x="0" width="90" y="0" height="71"/></clipPath><clipPath id="eecb01b868"><rect x="0" width="54" y="0" height="71"/></clipPath><clipPath id="a6c1d90844"><rect x="0" width="68" y="0" height="70"/></clipPath></defs><rect x="-37.5" width="450" fill="#ffffff" y="-37.499999" height="449.999989" fill-opacity="1"/><rect x="-37.5" fill="url(#da233d07b2)" width="450" y="-37.499999" height="449.999989"/><g clip-path="url(#029ddc0548)"><path fill="#f6fcf9" d="M 219.140625 147.84375 L 221.9375 156.691406 C 222.1875 157.484375 222.808594 158.105469 223.597656 158.355469 L 232.449219 161.148438 C 232.800781 161.261719 232.800781 161.753906 232.449219 161.867188 L 223.597656 164.660156 C 222.808594 164.910156 222.1875 165.53125 221.9375 166.324219 L 219.140625 175.171875 C 219.03125 175.523438 218.535156 175.523438 218.425781 175.171875 L 215.632812 166.324219 C 215.382812 165.53125 214.761719 164.910156 213.96875 164.660156 L 205.117188 161.867188 C 204.769531 161.753906 204.769531 161.261719 205.117188 161.148438 L 213.96875 158.355469 C 214.761719 158.105469 215.382812 157.484375 215.632812 156.691406 L 218.425781 147.84375 C 218.535156 147.492188 219.03125 147.492188 219.140625 147.84375 " fill-opacity="1" fill-rule="nonzero"/></g><g transform="matrix(1, 0, 0, 1, 146, 167)"><g clip-path="url(#e08155cbf4)"><g fill="#f1f1f1" fill-opacity="1"><g transform="translate(0.47145, 53.136702)"><g><path d="M 24.59375 -19.015625 C 22.59375 -18.960938 20.773438 -18.664062 19.140625 -18.125 C 17.515625 -17.59375 16.117188 -16.894531 14.953125 -16.03125 C 13.785156 -15.175781 12.890625 -14.203125 12.265625 -13.109375 C 11.640625 -12.015625 11.328125 -10.882812 11.328125 -9.71875 C 11.328125 -8.925781 11.476562 -8.132812 11.78125 -7.34375 C 12.082031 -6.550781 12.507812 -5.847656 13.0625 -5.234375 C 13.625 -4.628906 14.289062 -4.140625 15.0625 -3.765625 C 15.832031 -3.398438 16.679688 -3.21875 17.609375 -3.21875 C 18.867188 -3.21875 19.941406 -3.507812 20.828125 -4.09375 C 21.710938 -4.675781 22.429688 -5.375 22.984375 -6.1875 C 23.546875 -7 23.953125 -7.835938 24.203125 -8.703125 C 24.460938 -9.566406 24.59375 -10.300781 24.59375 -10.90625 Z M 4.046875 -28.65625 C 4.046875 -29.488281 4.429688 -30.242188 5.203125 -30.921875 C 5.972656 -31.597656 6.988281 -32.171875 8.25 -32.640625 C 9.507812 -33.109375 10.914062 -33.46875 12.46875 -33.71875 C 14.03125 -33.976562 15.582031 -34.109375 17.125 -34.109375 C 20.25 -34.109375 22.859375 -33.769531 24.953125 -33.09375 C 27.046875 -32.414062 28.742188 -31.503906 30.046875 -30.359375 C 31.359375 -29.222656 32.289062 -27.929688 32.84375 -26.484375 C 33.40625 -25.046875 33.6875 -23.554688 33.6875 -22.015625 L 33.6875 -6.640625 C 33.6875 -5.796875 33.875 -5.1875 34.25 -4.8125 C 34.625 -4.445312 35.019531 -4.160156 35.4375 -3.953125 C 35.851562 -3.742188 36.25 -3.519531 36.625 -3.28125 C 37 -3.050781 37.1875 -2.65625 37.1875 -2.09375 C 37.1875 -1.488281 37.007812 -0.988281 36.65625 -0.59375 C 36.3125 -0.195312 35.460938 0 34.109375 0 L 28.234375 0 C 27.160156 0 26.398438 -0.226562 25.953125 -0.6875 C 25.515625 -1.15625 25.296875 -1.925781 25.296875 -3 L 25.296875 -3.78125 L 25.015625 -3.78125 C 23.941406 -2.238281 22.390625 -1.101562 20.359375 -0.375 C 18.335938 0.34375 16.210938 0.703125 13.984375 0.703125 C 11.972656 0.703125 10.210938 0.421875 8.703125 -0.140625 C 7.191406 -0.703125 5.910156 -1.457031 4.859375 -2.40625 C 3.804688 -3.363281 3.007812 -4.472656 2.46875 -5.734375 C 1.9375 -6.992188 1.671875 -8.296875 1.671875 -9.640625 C 1.671875 -11.972656 2.378906 -13.976562 3.796875 -15.65625 C 5.222656 -17.332031 7.039062 -18.691406 9.25 -19.734375 C 11.46875 -20.785156 13.925781 -21.554688 16.625 -22.046875 C 19.332031 -22.535156 21.988281 -22.78125 24.59375 -22.78125 C 24.59375 -24.875 24 -26.582031 22.8125 -27.90625 C 21.625 -29.238281 19.890625 -29.90625 17.609375 -29.90625 C 16.210938 -29.90625 15.09375 -29.695312 14.25 -29.28125 C 13.414062 -28.863281 12.660156 -28.398438 11.984375 -27.890625 C 11.304688 -27.378906 10.609375 -26.910156 9.890625 -26.484375 C 9.171875 -26.066406 8.25 -25.859375 7.125 -25.859375 C 6.195312 -25.859375 5.453125 -26.101562 4.890625 -26.59375 C 4.328125 -27.082031 4.046875 -27.769531 4.046875 -28.65625 Z M 4.046875 -28.65625 "/></g></g></g><g clip-path="url(#1b7884b708)"><g fill="#f1f1f1" fill-opacity="1"><g transform="translate(35.419313, 53.136702)"><g><path d="M 12.578125 -33.40625 C 12.992188 -33.40625 13.445312 -33.273438 13.9375 -33.015625 C 14.425781 -32.765625 14.671875 -32.335938 14.671875 -31.734375 C 14.671875 -31.304688 14.519531 -30.976562 14.21875 -30.75 C 13.914062 -30.519531 13.585938 -30.300781 13.234375 -30.09375 C 12.890625 -29.882812 12.578125 -29.613281 12.296875 -29.28125 C 12.015625 -28.957031 11.875 -28.46875 11.875 -27.8125 C 11.875 -27.019531 12.082031 -25.703125 12.5 -23.859375 C 12.925781 -22.023438 13.453125 -20.007812 14.078125 -17.8125 C 14.710938 -15.625 15.390625 -13.457031 16.109375 -11.3125 C 16.828125 -9.175781 17.515625 -7.457031 18.171875 -6.15625 C 19.804688 -9.082031 21.097656 -12.328125 22.046875 -15.890625 C 23.003906 -19.460938 23.484375 -22.945312 23.484375 -26.34375 C 23.484375 -27.507812 23.316406 -28.335938 22.984375 -28.828125 C 22.660156 -29.316406 22.289062 -29.675781 21.875 -29.90625 C 21.457031 -30.144531 21.082031 -30.367188 20.75 -30.578125 C 20.425781 -30.785156 20.265625 -31.21875 20.265625 -31.875 C 20.265625 -32.519531 20.5 -32.9375 20.96875 -33.125 C 21.4375 -33.3125 21.851562 -33.40625 22.21875 -33.40625 L 33.40625 -33.40625 C 34.4375 -33.40625 34.953125 -32.847656 34.953125 -31.734375 C 34.953125 -31.304688 34.820312 -30.988281 34.5625 -30.78125 C 34.300781 -30.570312 34.007812 -30.363281 33.6875 -30.15625 C 33.363281 -29.945312 33.070312 -29.691406 32.8125 -29.390625 C 32.550781 -29.085938 32.421875 -28.632812 32.421875 -28.03125 C 32.421875 -26.957031 32.570312 -25.648438 32.875 -24.109375 C 33.1875 -22.578125 33.597656 -20.863281 34.109375 -18.96875 C 34.617188 -17.082031 35.242188 -15.054688 35.984375 -12.890625 C 36.734375 -10.722656 37.550781 -8.476562 38.4375 -6.15625 C 39.46875 -7.5 40.398438 -9.09375 41.234375 -10.9375 C 42.078125 -12.78125 42.800781 -14.664062 43.40625 -16.59375 C 44.007812 -18.53125 44.472656 -20.394531 44.796875 -22.1875 C 45.128906 -23.976562 45.296875 -25.503906 45.296875 -26.765625 C 45.296875 -27.648438 45.109375 -28.3125 44.734375 -28.75 C 44.359375 -29.195312 43.9375 -29.5625 43.46875 -29.84375 C 43 -30.125 42.578125 -30.398438 42.203125 -30.671875 C 41.835938 -30.953125 41.65625 -31.351562 41.65625 -31.875 C 41.65625 -32.894531 42.304688 -33.40625 43.609375 -33.40625 L 52.203125 -33.40625 C 53.367188 -33.40625 53.953125 -32.894531 53.953125 -31.875 C 53.953125 -31.445312 53.832031 -31.117188 53.59375 -30.890625 C 53.363281 -30.660156 53.070312 -30.378906 52.71875 -30.046875 C 52.375 -29.722656 52.023438 -29.289062 51.671875 -28.75 C 51.328125 -28.21875 51.0625 -27.441406 50.875 -26.421875 C 50.550781 -24.878906 50.015625 -22.882812 49.265625 -20.4375 C 48.523438 -18 47.6875 -15.519531 46.75 -13 C 45.820312 -10.476562 44.859375 -8.113281 43.859375 -5.90625 C 42.859375 -3.695312 41.9375 -2.007812 41.09375 -0.84375 C 40.488281 -0.0507812 39.734375 0.398438 38.828125 0.515625 C 37.921875 0.640625 37.066406 0.703125 36.265625 0.703125 C 35.148438 0.703125 34.195312 0.46875 33.40625 0 C 32.613281 -0.46875 31.867188 -1.257812 31.171875 -2.375 C 30.472656 -3.488281 29.757812 -4.988281 29.03125 -6.875 C 28.3125 -8.769531 27.460938 -11.140625 26.484375 -13.984375 L 26.34375 -13.984375 C 25.269531 -11.140625 24.3125 -8.769531 23.46875 -6.875 C 22.632812 -4.988281 21.820312 -3.488281 21.03125 -2.375 C 20.238281 -1.257812 19.421875 -0.46875 18.578125 0 C 17.742188 0.46875 16.816406 0.703125 15.796875 0.703125 C 14.347656 0.703125 13.304688 0.515625 12.671875 0.140625 C 12.046875 -0.234375 11.457031 -0.835938 10.90625 -1.671875 C 10.113281 -2.835938 9.296875 -4.46875 8.453125 -6.5625 C 7.617188 -8.664062 6.804688 -10.925781 6.015625 -13.34375 C 5.222656 -15.769531 4.507812 -18.226562 3.875 -20.71875 C 3.25 -23.21875 2.75 -25.46875 2.375 -27.46875 C 2.238281 -28.300781 2.03125 -28.90625 1.75 -29.28125 C 1.46875 -29.65625 1.1875 -29.945312 0.90625 -30.15625 C 0.625 -30.363281 0.378906 -30.550781 0.171875 -30.71875 C -0.0351562 -30.882812 -0.140625 -31.195312 -0.140625 -31.65625 C -0.140625 -32.21875 0.0664062 -32.648438 0.484375 -32.953125 C 0.910156 -33.253906 1.332031 -33.40625 1.75 -33.40625 Z M 12.578125 -33.40625 "/></g></g></g></g></g></g><g transform="matrix(1, 0, 0, 1, 96, 185)"><g clip-path="url(#eecb01b868)"><g fill="#f1f1f1" fill-opacity="1"><g transform="translate(1.884402, 52.819416)"><g><path d="M 15.453125 -51.15625 C 16.660156 -51.15625 17.414062 -50.929688 17.71875 -50.484375 C 18.019531 -50.046875 18.171875 -49.617188 18.171875 -49.203125 C 18.171875 -48.503906 17.984375 -48.015625 17.609375 -47.734375 C 17.234375 -47.453125 16.8125 -47.171875 16.34375 -46.890625 C 15.882812 -46.617188 15.46875 -46.25 15.09375 -45.78125 C 14.71875 -45.3125 14.53125 -44.539062 14.53125 -43.46875 C 14.53125 -42.445312 14.773438 -40.988281 15.265625 -39.09375 C 15.753906 -37.207031 16.382812 -35.113281 17.15625 -32.8125 C 17.925781 -30.507812 18.800781 -28.097656 19.78125 -25.578125 C 20.757812 -23.066406 21.738281 -20.65625 22.71875 -18.34375 C 23.695312 -16.039062 24.640625 -13.957031 25.546875 -12.09375 C 26.453125 -10.226562 27.207031 -8.804688 27.8125 -7.828125 C 29.445312 -10.710938 31.03125 -13.832031 32.5625 -17.1875 C 34.101562 -20.539062 35.46875 -23.859375 36.65625 -27.140625 C 37.84375 -30.429688 38.785156 -33.53125 39.484375 -36.4375 C 40.179688 -39.351562 40.53125 -41.789062 40.53125 -43.75 C 40.53125 -44.914062 40.285156 -45.671875 39.796875 -46.015625 C 39.304688 -46.367188 38.757812 -46.625 38.15625 -46.78125 C 37.550781 -46.945312 37.003906 -47.171875 36.515625 -47.453125 C 36.023438 -47.734375 35.78125 -48.382812 35.78125 -49.40625 C 35.78125 -50.0625 36.117188 -50.515625 36.796875 -50.765625 C 37.472656 -51.023438 38.046875 -51.15625 38.515625 -51.15625 L 47.9375 -51.15625 C 49.851562 -51.15625 50.8125 -50.503906 50.8125 -49.203125 C 50.8125 -48.410156 50.660156 -47.863281 50.359375 -47.5625 C 50.054688 -47.257812 49.679688 -46.96875 49.234375 -46.6875 C 48.796875 -46.40625 48.351562 -46.019531 47.90625 -45.53125 C 47.46875 -45.039062 47.109375 -44.191406 46.828125 -42.984375 C 46.035156 -39.671875 45.019531 -36.046875 43.78125 -32.109375 C 42.550781 -28.171875 41.210938 -24.328125 39.765625 -20.578125 C 38.316406 -16.828125 36.820312 -13.332031 35.28125 -10.09375 C 33.75 -6.851562 32.332031 -4.28125 31.03125 -2.375 C 30.238281 -1.207031 29.457031 -0.332031 28.6875 0.25 C 27.914062 0.832031 26.765625 1.125 25.234375 1.125 C 23.554688 1.125 22.34375 0.878906 21.59375 0.390625 C 20.851562 -0.0976562 20.222656 -0.738281 19.703125 -1.53125 C 18.722656 -2.976562 17.707031 -4.679688 16.65625 -6.640625 C 15.613281 -8.597656 14.566406 -10.71875 13.515625 -13 C 12.472656 -15.28125 11.460938 -17.675781 10.484375 -20.1875 C 9.503906 -22.707031 8.582031 -25.222656 7.71875 -27.734375 C 6.863281 -30.253906 6.082031 -32.738281 5.375 -35.1875 C 4.675781 -37.632812 4.097656 -39.929688 3.640625 -42.078125 C 3.304688 -43.515625 2.90625 -44.546875 2.4375 -45.171875 C 1.976562 -45.804688 1.523438 -46.296875 1.078125 -46.640625 C 0.640625 -46.992188 0.257812 -47.3125 -0.0625 -47.59375 C -0.394531 -47.875 -0.5625 -48.410156 -0.5625 -49.203125 C -0.5625 -50.503906 0.394531 -51.15625 2.3125 -51.15625 Z M 15.453125 -51.15625 "/></g></g></g></g></g><g transform="matrix(1, 0, 0, 1, 135, 126)"><g clip-path="url(#a6c1d90844)"><g fill="#f1f1f1" fill-opacity="1"><g transform="translate(0.41585, 52.627369)"><g><path d="M 16.84375 -51.15625 C 18.84375 -51.15625 19.84375 -50.457031 19.84375 -49.0625 C 19.84375 -48.3125 19.632812 -47.796875 19.21875 -47.515625 C 18.800781 -47.242188 18.347656 -47.015625 17.859375 -46.828125 C 17.367188 -46.640625 16.925781 -46.378906 16.53125 -46.046875 C 16.132812 -45.722656 15.9375 -45.144531 15.9375 -44.3125 L 15.9375 -24.328125 C 16.675781 -24.929688 17.660156 -25.789062 18.890625 -26.90625 C 20.128906 -28.019531 21.457031 -29.265625 22.875 -30.640625 C 24.300781 -32.015625 25.738281 -33.4375 27.1875 -34.90625 C 28.632812 -36.375 29.9375 -37.785156 31.09375 -39.140625 C 32.257812 -40.492188 33.210938 -41.691406 33.953125 -42.734375 C 34.703125 -43.785156 35.078125 -44.59375 35.078125 -45.15625 C 35.078125 -45.757812 34.890625 -46.210938 34.515625 -46.515625 C 34.148438 -46.816406 33.753906 -47.070312 33.328125 -47.28125 C 32.910156 -47.488281 32.515625 -47.707031 32.140625 -47.9375 C 31.773438 -48.175781 31.59375 -48.550781 31.59375 -49.0625 C 31.59375 -49.851562 31.859375 -50.398438 32.390625 -50.703125 C 32.929688 -51.003906 33.550781 -51.15625 34.25 -51.15625 L 46.34375 -51.15625 C 47.925781 -51.15625 48.71875 -50.457031 48.71875 -49.0625 C 48.71875 -48.457031 48.519531 -47.976562 48.125 -47.625 C 47.726562 -47.28125 47.25 -46.957031 46.6875 -46.65625 C 46.125 -46.351562 45.515625 -46.023438 44.859375 -45.671875 C 44.210938 -45.328125 43.65625 -44.847656 43.1875 -44.234375 C 42.019531 -42.796875 40.398438 -41.0625 38.328125 -39.03125 C 36.253906 -37.007812 33.613281 -34.226562 30.40625 -30.6875 C 32.914062 -27.976562 35.03125 -25.539062 36.75 -23.375 C 38.476562 -21.207031 39.972656 -19.210938 41.234375 -17.390625 C 42.492188 -15.578125 43.578125 -13.867188 44.484375 -12.265625 C 45.390625 -10.660156 46.265625 -9.066406 47.109375 -7.484375 C 47.710938 -6.316406 48.28125 -5.488281 48.8125 -5 C 49.351562 -4.507812 49.832031 -4.132812 50.25 -3.875 C 50.664062 -3.625 50.988281 -3.40625 51.21875 -3.21875 C 51.457031 -3.03125 51.578125 -2.65625 51.578125 -2.09375 C 51.578125 -1.300781 51.296875 -0.753906 50.734375 -0.453125 C 50.179688 -0.148438 49.578125 0 48.921875 0 L 35.578125 0 C 33.753906 0 32.84375 -0.695312 32.84375 -2.09375 C 32.84375 -2.601562 33.003906 -3 33.328125 -3.28125 C 33.660156 -3.5625 34.015625 -3.796875 34.390625 -3.984375 C 34.765625 -4.171875 35.113281 -4.367188 35.4375 -4.578125 C 35.757812 -4.785156 35.921875 -5.078125 35.921875 -5.453125 C 35.921875 -5.867188 35.675781 -6.578125 35.1875 -7.578125 C 34.695312 -8.578125 34.054688 -9.695312 33.265625 -10.9375 C 32.472656 -12.175781 31.585938 -13.476562 30.609375 -14.84375 C 29.628906 -16.21875 28.660156 -17.507812 27.703125 -18.71875 C 26.753906 -19.9375 25.859375 -21 25.015625 -21.90625 C 24.179688 -22.820312 23.53125 -23.441406 23.0625 -23.765625 L 15.9375 -17.890625 L 15.9375 -6.84375 C 15.9375 -6.007812 16.132812 -5.425781 16.53125 -5.09375 C 16.925781 -4.769531 17.367188 -4.515625 17.859375 -4.328125 C 18.347656 -4.140625 18.800781 -3.90625 19.21875 -3.625 C 19.632812 -3.351562 19.84375 -2.84375 19.84375 -2.09375 C 19.84375 -0.695312 18.84375 0 16.84375 0 L 4.6875 0 C 2.675781 0 1.671875 -0.695312 1.671875 -2.09375 C 1.671875 -2.84375 1.867188 -3.351562 2.265625 -3.625 C 2.660156 -3.90625 3.101562 -4.140625 3.59375 -4.328125 C 4.082031 -4.515625 4.535156 -4.769531 4.953125 -5.09375 C 5.378906 -5.425781 5.59375 -6.007812 5.59375 -6.84375 L 5.59375 -44.3125 C 5.59375 -45.144531 5.378906 -45.722656 4.953125 -46.046875 C 4.535156 -46.378906 4.082031 -46.640625 3.59375 -46.828125 C 3.101562 -47.015625 2.660156 -47.242188 2.265625 -47.515625 C 1.867188 -47.796875 1.671875 -48.3125 1.671875 -49.0625 C 1.671875 -50.457031 2.675781 -51.15625 4.6875 -51.15625 Z M 16.84375 -51.15625 "/></g></g></g><g fill="#f1f1f1" fill-opacity="1"><g transform="translate(48.504194, 52.627369)"><g><path d="M 1.609375 -29.78125 C 1.609375 -30.238281 1.757812 -30.570312 2.0625 -30.78125 C 2.363281 -30.988281 2.816406 -31.210938 3.421875 -31.453125 C 4.171875 -31.734375 4.972656 -32.023438 5.828125 -32.328125 C 6.691406 -32.628906 7.519531 -32.90625 8.3125 -33.15625 C 9.101562 -33.414062 9.8125 -33.640625 10.4375 -33.828125 C 11.070312 -34.015625 11.578125 -34.109375 11.953125 -34.109375 C 12.878906 -34.109375 13.53125 -33.78125 13.90625 -33.125 C 14.28125 -32.476562 14.46875 -31.195312 14.46875 -29.28125 L 14.46875 -6.703125 C 14.46875 -5.640625 14.640625 -4.90625 14.984375 -4.5 C 15.335938 -4.101562 15.710938 -3.8125 16.109375 -3.625 C 16.503906 -3.445312 16.875 -3.265625 17.21875 -3.078125 C 17.570312 -2.890625 17.75 -2.46875 17.75 -1.8125 C 17.75 -0.601562 16.9375 0 15.3125 0 L 4.546875 0 C 2.910156 0 2.09375 -0.601562 2.09375 -1.8125 C 2.09375 -2.414062 2.265625 -2.820312 2.609375 -3.03125 C 2.960938 -3.25 3.335938 -3.445312 3.734375 -3.625 C 4.128906 -3.8125 4.5 -4.101562 4.84375 -4.5 C 5.195312 -4.90625 5.375 -5.640625 5.375 -6.703125 L 5.375 -25.15625 C 5.375 -25.945312 5.175781 -26.539062 4.78125 -26.9375 C 4.382812 -27.332031 3.953125 -27.644531 3.484375 -27.875 C 3.023438 -28.113281 2.597656 -28.359375 2.203125 -28.609375 C 1.804688 -28.867188 1.609375 -29.257812 1.609375 -29.78125 Z M 3.359375 -42.21875 C 3.359375 -43.707031 3.878906 -44.894531 4.921875 -45.78125 C 5.972656 -46.664062 7.382812 -47.109375 9.15625 -47.109375 C 10.789062 -47.109375 12.117188 -46.664062 13.140625 -45.78125 C 14.160156 -44.894531 14.671875 -43.707031 14.671875 -42.21875 C 14.671875 -40.675781 14.144531 -39.472656 13.09375 -38.609375 C 12.050781 -37.753906 10.644531 -37.328125 8.875 -37.328125 C 7.25 -37.328125 5.921875 -37.769531 4.890625 -38.65625 C 3.867188 -39.539062 3.359375 -40.726562 3.359375 -42.21875 Z M 3.359375 -42.21875 "/></g></g></g></g></g></svg>