<svg xmlns="http://www.w3.org/2000/svg" xmlns:xlink="http://www.w3.org/1999/xlink" width="500" zoomAndPan="magnify" viewBox="0 0 375 374.999991" height="500" preserveAspectRatio="xMidYMid meet" version="1.0"><defs><filter x="0%" y="0%" width="100%" height="100%" id="37ce932194"><feColorMatrix values="0 0 0 0 1 0 0 0 0 1 0 0 0 0 1 0 0 0 1 0" color-interpolation-filters="sRGB"/></filter><g/><clipPath id="97c1c04b7e"><path d="M 204.769531 147.492188 L 232.519531 147.492188 L 232.519531 175.242188 L 204.769531 175.242188 Z M 204.769531 147.492188 " clip-rule="nonzero"/></clipPath><clipPath id="8259d05e75"><path d="M 0.679688 0.726562 L 364.902344 0.726562 L 364.902344 361 L 0.679688 361 Z M 0.679688 0.726562 " clip-rule="nonzero"/></clipPath><clipPath id="defd2bc11d"><path d="M 0.679688 0.726562 L 364.902344 0.726562 L 364.902344 361 L 0.679688 361 Z M 0.679688 0.726562 " clip-rule="nonzero"/></clipPath><clipPath id="e7b8c30ace"><path d="M 0.679688 14.039062 L 364.902344 14.039062 L 364.902344 361 L 0.679688 361 Z M 0.679688 14.039062 " clip-rule="nonzero"/></clipPath><linearGradient x1="44.469002" gradientTransform="matrix(0.951104, 0, 0, 0.950908, 140.502432, 140.522857)" y1="231.85947" x2="44.469002" gradientUnits="userSpaceOnUse" y2="-133.011993" id="53698ae988"><stop stop-opacity="1" stop-color="rgb(28.62854%, 5.488586%, 14.118958%)" offset="0"/><stop stop-opacity="1" stop-color="rgb(28.62854%, 5.488586%, 14.118958%)" offset="0.25"/><stop stop-opacity="1" stop-color="rgb(28.62854%, 5.488586%, 14.118958%)" offset="0.375"/><stop stop-opacity="1" stop-color="rgb(28.62854%, 5.488586%, 14.118958%)" offset="0.390625"/><stop stop-opacity="1" stop-color="rgb(29.103088%, 5.711365%, 14.28833%)" offset="0.394531"/><stop stop-opacity="1" stop-color="rgb(29.577637%, 5.935669%, 14.459229%)" offset="0.398437"/><stop stop-opacity="1" stop-color="rgb(32.17926%, 7.159424%, 15.393066%)" offset="0.402344"/><stop stop-opacity="1" stop-color="rgb(34.78241%, 8.384705%, 16.326904%)" offset="0.40625"/><stop stop-opacity="1" stop-color="rgb(37.385559%, 9.609985%, 17.260742%)" offset="0.410156"/><stop stop-opacity="1" stop-color="rgb(39.988708%, 10.835266%, 18.196106%)" offset="0.414062"/><stop stop-opacity="1" stop-color="rgb(42.591858%, 12.059021%, 19.129944%)" offset="0.417969"/><stop stop-opacity="1" stop-color="rgb(45.195007%, 13.284302%, 20.063782%)" offset="0.421875"/><stop stop-opacity="1" stop-color="rgb(47.798157%, 14.509583%, 20.99762%)" offset="0.425781"/><stop stop-opacity="1" stop-color="rgb(50.401306%, 15.734863%, 21.931458%)" offset="0.429687"/><stop stop-opacity="1" stop-color="rgb(53.004456%, 16.960144%, 22.865295%)" offset="0.433594"/><stop stop-opacity="1" stop-color="rgb(55.607605%, 18.185425%, 23.799133%)" offset="0.4375"/><stop stop-opacity="1" stop-color="rgb(58.209229%, 19.40918%, 24.732971%)" offset="0.441406"/><stop stop-opacity="1" stop-color="rgb(60.812378%, 20.63446%, 25.668335%)" offset="0.445312"/><stop stop-opacity="1" stop-color="rgb(63.415527%, 21.859741%, 26.602173%)" offset="0.449219"/><stop stop-opacity="1" stop-color="rgb(66.018677%, 23.085022%, 27.536011%)" offset="0.453125"/><stop stop-opacity="1" stop-color="rgb(68.621826%, 24.308777%, 28.469849%)" offset="0.457031"/><stop stop-opacity="1" stop-color="rgb(71.224976%, 25.534058%, 29.403687%)" offset="0.460938"/><stop stop-opacity="1" stop-color="rgb(73.828125%, 26.759338%, 30.337524%)" offset="0.464844"/><stop stop-opacity="1" stop-color="rgb(76.431274%, 27.984619%, 31.272888%)" offset="0.46875"/><stop stop-opacity="1" stop-color="rgb(79.034424%, 29.2099%, 32.206726%)" offset="0.472656"/><stop stop-opacity="1" stop-color="rgb(81.637573%, 30.435181%, 33.140564%)" offset="0.476562"/><stop stop-opacity="1" stop-color="rgb(84.239197%, 31.658936%, 34.074402%)" offset="0.480469"/><stop stop-opacity="1" stop-color="rgb(86.842346%, 32.884216%, 35.00824%)" offset="0.484375"/><stop stop-opacity="1" stop-color="rgb(89.445496%, 34.109497%, 35.942078%)" offset="0.488281"/><stop stop-opacity="1" stop-color="rgb(92.048645%, 35.334778%, 36.875916%)" offset="0.492187"/><stop stop-opacity="1" stop-color="rgb(93.737793%, 36.865234%, 37.664795%)" offset="0.496094"/><stop stop-opacity="1" stop-color="rgb(95.428467%, 38.397217%, 38.4552%)" offset="0.5"/><stop stop-opacity="1" stop-color="rgb(95.611572%, 40.434265%, 39.006042%)" offset="0.503906"/><stop stop-opacity="1" stop-color="rgb(95.796204%, 42.471313%, 39.558411%)" offset="0.507812"/><stop stop-opacity="1" stop-color="rgb(95.979309%, 44.506836%, 40.109253%)" offset="0.511719"/><stop stop-opacity="1" stop-color="rgb(96.16394%, 46.543884%, 40.661621%)" offset="0.515625"/><stop stop-opacity="1" stop-color="rgb(96.347046%, 48.580933%, 41.212463%)" offset="0.519531"/><stop stop-opacity="1" stop-color="rgb(96.531677%, 50.617981%, 41.763306%)" offset="0.523438"/><stop stop-opacity="1" stop-color="rgb(96.714783%, 52.655029%, 42.314148%)" offset="0.527344"/><stop stop-opacity="1" stop-color="rgb(96.899414%, 54.692078%, 42.866516%)" offset="0.53125"/><stop stop-opacity="1" stop-color="rgb(97.08252%, 56.7276%, 43.417358%)" offset="0.535156"/><stop stop-opacity="1" stop-color="rgb(97.267151%, 58.764648%, 43.969727%)" offset="0.539062"/><stop stop-opacity="1" stop-color="rgb(97.450256%, 60.801697%, 44.520569%)" offset="0.542969"/><stop stop-opacity="1" stop-color="rgb(97.634888%, 62.838745%, 45.071411%)" offset="0.546875"/><stop stop-opacity="1" stop-color="rgb(97.817993%, 64.875793%, 45.622253%)" offset="0.550781"/><stop stop-opacity="1" stop-color="rgb(98.002625%, 66.912842%, 46.174622%)" offset="0.554688"/><stop stop-opacity="1" stop-color="rgb(98.18573%, 68.948364%, 46.725464%)" offset="0.558594"/><stop stop-opacity="1" stop-color="rgb(98.370361%, 70.985413%, 47.277832%)" offset="0.5625"/><stop stop-opacity="1" stop-color="rgb(98.553467%, 73.022461%, 47.828674%)" offset="0.566406"/><stop stop-opacity="1" stop-color="rgb(98.738098%, 75.059509%, 48.379517%)" offset="0.570312"/><stop stop-opacity="1" stop-color="rgb(98.921204%, 77.096558%, 48.930359%)" offset="0.574219"/><stop stop-opacity="1" stop-color="rgb(99.105835%, 79.133606%, 49.482727%)" offset="0.578125"/><stop stop-opacity="1" stop-color="rgb(99.290466%, 81.169128%, 50.033569%)" offset="0.582031"/><stop stop-opacity="1" stop-color="rgb(99.475098%, 83.206177%, 50.585938%)" offset="0.585937"/><stop stop-opacity="1" stop-color="rgb(99.658203%, 85.243225%, 51.13678%)" offset="0.589844"/><stop stop-opacity="1" stop-color="rgb(99.842834%, 87.280273%, 51.689148%)" offset="0.59375"/><stop stop-opacity="1" stop-color="rgb(99.920654%, 88.150024%, 51.924133%)" offset="0.597656"/><stop stop-opacity="1" stop-color="rgb(100%, 89.019775%, 52.159119%)" offset="0.601562"/><stop stop-opacity="1" stop-color="rgb(100%, 89.019775%, 52.159119%)" offset="0.609375"/><stop stop-opacity="1" stop-color="rgb(100%, 89.019775%, 52.159119%)" offset="0.625"/><stop stop-opacity="1" stop-color="rgb(100%, 89.019775%, 52.159119%)" offset="0.75"/><stop stop-opacity="1" stop-color="rgb(100%, 89.019775%, 52.159119%)" offset="1"/></linearGradient><clipPath id="39fe392420"><rect x="0" width="365" y="0" height="361"/></clipPath><clipPath id="d9618b9eee"><path d="M 0.679688 0.726562 L 364.902344 0.726562 L 364.902344 361 L 0.679688 361 Z M 0.679688 0.726562 " clip-rule="nonzero"/></clipPath><clipPath id="36f8d17615"><rect x="0" width="365" y="0" height="361"/></clipPath><clipPath id="6dd9279ed3"><rect x="0" width="365" y="0" height="361"/></clipPath><mask id="dd9f189f74"><g filter="url(#37ce932194)"><g transform="matrix(1, 0, 0, 1, 0.000000000000000888, 0)"><g clip-path="url(#6dd9279ed3)"><g clip-path="url(#d9618b9eee)"><g transform="matrix(1, 0, 0, 1, 0.000000000000000888, 0)"><g clip-path="url(#36f8d17615)"><g fill="#000000" fill-opacity="1"><g transform="translate(140.47145, 206.136687)"><g><path d="M 24.59375 -19.015625 C 22.59375 -18.960938 20.773438 -18.664062 19.140625 -18.125 C 17.515625 -17.59375 16.117188 -16.894531 14.953125 -16.03125 C 13.785156 -15.175781 12.890625 -14.203125 12.265625 -13.109375 C 11.640625 -12.015625 11.328125 -10.882812 11.328125 -9.71875 C 11.328125 -8.925781 11.476562 -8.132812 11.78125 -7.34375 C 12.082031 -6.550781 12.507812 -5.847656 13.0625 -5.234375 C 13.625 -4.628906 14.289062 -4.140625 15.0625 -3.765625 C 15.832031 -3.398438 16.679688 -3.21875 17.609375 -3.21875 C 18.867188 -3.21875 19.941406 -3.507812 20.828125 -4.09375 C 21.710938 -4.675781 22.429688 -5.375 22.984375 -6.1875 C 23.546875 -7 23.953125 -7.835938 24.203125 -8.703125 C 24.460938 -9.566406 24.59375 -10.300781 24.59375 -10.90625 Z M 4.046875 -28.65625 C 4.046875 -29.488281 4.429688 -30.242188 5.203125 -30.921875 C 5.972656 -31.597656 6.988281 -32.171875 8.25 -32.640625 C 9.507812 -33.109375 10.914062 -33.46875 12.46875 -33.71875 C 14.03125 -33.976562 15.582031 -34.109375 17.125 -34.109375 C 20.25 -34.109375 22.859375 -33.769531 24.953125 -33.09375 C 27.046875 -32.414062 28.742188 -31.503906 30.046875 -30.359375 C 31.359375 -29.222656 32.289062 -27.929688 32.84375 -26.484375 C 33.40625 -25.046875 33.6875 -23.554688 33.6875 -22.015625 L 33.6875 -6.640625 C 33.6875 -5.796875 33.875 -5.1875 34.25 -4.8125 C 34.625 -4.445312 35.019531 -4.160156 35.4375 -3.953125 C 35.851562 -3.742188 36.25 -3.519531 36.625 -3.28125 C 37 -3.050781 37.1875 -2.65625 37.1875 -2.09375 C 37.1875 -1.488281 37.007812 -0.988281 36.65625 -0.59375 C 36.3125 -0.195312 35.460938 0 34.109375 0 L 28.234375 0 C 27.160156 0 26.398438 -0.226562 25.953125 -0.6875 C 25.515625 -1.15625 25.296875 -1.925781 25.296875 -3 L 25.296875 -3.78125 L 25.015625 -3.78125 C 23.941406 -2.238281 22.390625 -1.101562 20.359375 -0.375 C 18.335938 0.34375 16.210938 0.703125 13.984375 0.703125 C 11.972656 0.703125 10.210938 0.421875 8.703125 -0.140625 C 7.191406 -0.703125 5.910156 -1.457031 4.859375 -2.40625 C 3.804688 -3.363281 3.007812 -4.472656 2.46875 -5.734375 C 1.9375 -6.992188 1.671875 -8.296875 1.671875 -9.640625 C 1.671875 -11.972656 2.378906 -13.976562 3.796875 -15.65625 C 5.222656 -17.332031 7.039062 -18.691406 9.25 -19.734375 C 11.46875 -20.785156 13.925781 -21.554688 16.625 -22.046875 C 19.332031 -22.535156 21.988281 -22.78125 24.59375 -22.78125 C 24.59375 -24.875 24 -26.582031 22.8125 -27.90625 C 21.625 -29.238281 19.890625 -29.90625 17.609375 -29.90625 C 16.210938 -29.90625 15.09375 -29.695312 14.25 -29.28125 C 13.414062 -28.863281 12.660156 -28.398438 11.984375 -27.890625 C 11.304688 -27.378906 10.609375 -26.910156 9.890625 -26.484375 C 9.171875 -26.066406 8.25 -25.859375 7.125 -25.859375 C 6.195312 -25.859375 5.453125 -26.101562 4.890625 -26.59375 C 4.328125 -27.082031 4.046875 -27.769531 4.046875 -28.65625 Z M 4.046875 -28.65625 "/></g></g></g><g fill="#000000" fill-opacity="1"><g transform="translate(175.419313, 206.136687)"><g><path d="M 12.578125 -33.40625 C 12.992188 -33.40625 13.445312 -33.273438 13.9375 -33.015625 C 14.425781 -32.765625 14.671875 -32.335938 14.671875 -31.734375 C 14.671875 -31.304688 14.519531 -30.976562 14.21875 -30.75 C 13.914062 -30.519531 13.585938 -30.300781 13.234375 -30.09375 C 12.890625 -29.882812 12.578125 -29.613281 12.296875 -29.28125 C 12.015625 -28.957031 11.875 -28.46875 11.875 -27.8125 C 11.875 -27.019531 12.082031 -25.703125 12.5 -23.859375 C 12.925781 -22.023438 13.453125 -20.007812 14.078125 -17.8125 C 14.710938 -15.625 15.390625 -13.457031 16.109375 -11.3125 C 16.828125 -9.175781 17.515625 -7.457031 18.171875 -6.15625 C 19.804688 -9.082031 21.097656 -12.328125 22.046875 -15.890625 C 23.003906 -19.460938 23.484375 -22.945312 23.484375 -26.34375 C 23.484375 -27.507812 23.316406 -28.335938 22.984375 -28.828125 C 22.660156 -29.316406 22.289062 -29.675781 21.875 -29.90625 C 21.457031 -30.144531 21.082031 -30.367188 20.75 -30.578125 C 20.425781 -30.785156 20.265625 -31.21875 20.265625 -31.875 C 20.265625 -32.519531 20.5 -32.9375 20.96875 -33.125 C 21.4375 -33.3125 21.851562 -33.40625 22.21875 -33.40625 L 33.40625 -33.40625 C 34.4375 -33.40625 34.953125 -32.847656 34.953125 -31.734375 C 34.953125 -31.304688 34.820312 -30.988281 34.5625 -30.78125 C 34.300781 -30.570312 34.007812 -30.363281 33.6875 -30.15625 C 33.363281 -29.945312 33.070312 -29.691406 32.8125 -29.390625 C 32.550781 -29.085938 32.421875 -28.632812 32.421875 -28.03125 C 32.421875 -26.957031 32.570312 -25.648438 32.875 -24.109375 C 33.1875 -22.578125 33.597656 -20.863281 34.109375 -18.96875 C 34.617188 -17.082031 35.242188 -15.054688 35.984375 -12.890625 C 36.734375 -10.722656 37.550781 -8.476562 38.4375 -6.15625 C 39.46875 -7.5 40.398438 -9.09375 41.234375 -10.9375 C 42.078125 -12.78125 42.800781 -14.664062 43.40625 -16.59375 C 44.007812 -18.53125 44.472656 -20.394531 44.796875 -22.1875 C 45.128906 -23.976562 45.296875 -25.503906 45.296875 -26.765625 C 45.296875 -27.648438 45.109375 -28.3125 44.734375 -28.75 C 44.359375 -29.195312 43.9375 -29.5625 43.46875 -29.84375 C 43 -30.125 42.578125 -30.398438 42.203125 -30.671875 C 41.835938 -30.953125 41.65625 -31.351562 41.65625 -31.875 C 41.65625 -32.894531 42.304688 -33.40625 43.609375 -33.40625 L 52.203125 -33.40625 C 53.367188 -33.40625 53.953125 -32.894531 53.953125 -31.875 C 53.953125 -31.445312 53.832031 -31.117188 53.59375 -30.890625 C 53.363281 -30.660156 53.070312 -30.378906 52.71875 -30.046875 C 52.375 -29.722656 52.023438 -29.289062 51.671875 -28.75 C 51.328125 -28.21875 51.0625 -27.441406 50.875 -26.421875 C 50.550781 -24.878906 50.015625 -22.882812 49.265625 -20.4375 C 48.523438 -18 47.6875 -15.519531 46.75 -13 C 45.820312 -10.476562 44.859375 -8.113281 43.859375 -5.90625 C 42.859375 -3.695312 41.9375 -2.007812 41.09375 -0.84375 C 40.488281 -0.0507812 39.734375 0.398438 38.828125 0.515625 C 37.921875 0.640625 37.066406 0.703125 36.265625 0.703125 C 35.148438 0.703125 34.195312 0.46875 33.40625 0 C 32.613281 -0.46875 31.867188 -1.257812 31.171875 -2.375 C 30.472656 -3.488281 29.757812 -4.988281 29.03125 -6.875 C 28.3125 -8.769531 27.460938 -11.140625 26.484375 -13.984375 L 26.34375 -13.984375 C 25.269531 -11.140625 24.3125 -8.769531 23.46875 -6.875 C 22.632812 -4.988281 21.820312 -3.488281 21.03125 -2.375 C 20.238281 -1.257812 19.421875 -0.46875 18.578125 0 C 17.742188 0.46875 16.816406 0.703125 15.796875 0.703125 C 14.347656 0.703125 13.304688 0.515625 12.671875 0.140625 C 12.046875 -0.234375 11.457031 -0.835938 10.90625 -1.671875 C 10.113281 -2.835938 9.296875 -4.46875 8.453125 -6.5625 C 7.617188 -8.664062 6.804688 -10.925781 6.015625 -13.34375 C 5.222656 -15.769531 4.507812 -18.226562 3.875 -20.71875 C 3.25 -23.21875 2.75 -25.46875 2.375 -27.46875 C 2.238281 -28.300781 2.03125 -28.90625 1.75 -29.28125 C 1.46875 -29.65625 1.1875 -29.945312 0.90625 -30.15625 C 0.625 -30.363281 0.378906 -30.550781 0.171875 -30.71875 C -0.0351562 -30.882812 -0.140625 -31.195312 -0.140625 -31.65625 C -0.140625 -32.21875 0.0664062 -32.648438 0.484375 -32.953125 C 0.910156 -33.253906 1.332031 -33.40625 1.75 -33.40625 Z M 12.578125 -33.40625 "/></g></g></g></g></g></g></g></g></g></mask><clipPath id="aec1b22ebc"><path d="M 0.679688 14.039062 L 364.902344 14.039062 L 364.902344 361 L 0.679688 361 Z M 0.679688 14.039062 " clip-rule="nonzero"/></clipPath><clipPath id="7ed6b7cc20"><rect x="0" width="365" y="0" height="361"/></clipPath><clipPath id="927f7ce442"><rect x="0" width="365" y="0" height="361"/></clipPath><clipPath id="bf7d4ecee4"><rect x="0" width="366" y="0" height="361"/></clipPath><clipPath id="3e79cb8430"><path d="M 0 0.410156 L 288.078125 0.410156 L 288.078125 343 L 0 343 Z M 0 0.410156 " clip-rule="nonzero"/></clipPath><clipPath id="40ef7aca7b"><path d="M 0 0.410156 L 288.078125 0.410156 L 288.078125 343 L 0 343 Z M 0 0.410156 " clip-rule="nonzero"/></clipPath><clipPath id="f6d307951c"><path d="M 0 13.722656 L 288.078125 13.722656 L 288.078125 343 L 0 343 Z M 0 13.722656 " clip-rule="nonzero"/></clipPath><linearGradient x1="26.461" gradientTransform="matrix(0.951162, 0, 0, 0.950907, 97.923864, 140.205643)" y1="213.264073" x2="26.461" gradientUnits="userSpaceOnUse" y2="-133.011993" id="6bb041baff"><stop stop-opacity="1" stop-color="rgb(28.62854%, 5.488586%, 14.118958%)" offset="0"/><stop stop-opacity="1" stop-color="rgb(28.62854%, 5.488586%, 14.118958%)" offset="0.25"/><stop stop-opacity="1" stop-color="rgb(28.62854%, 5.488586%, 14.118958%)" offset="0.3125"/><stop stop-opacity="1" stop-color="rgb(28.62854%, 5.488586%, 14.118958%)" offset="0.34375"/><stop stop-opacity="1" stop-color="rgb(28.62854%, 5.488586%, 14.118958%)" offset="0.359375"/><stop stop-opacity="1" stop-color="rgb(29.43573%, 5.86853%, 14.408875%)" offset="0.363281"/><stop stop-opacity="1" stop-color="rgb(30.244446%, 6.248474%, 14.698792%)" offset="0.367188"/><stop stop-opacity="1" stop-color="rgb(32.714844%, 7.411194%, 15.585327%)" offset="0.371094"/><stop stop-opacity="1" stop-color="rgb(35.185242%, 8.573914%, 16.471863%)" offset="0.375"/><stop stop-opacity="1" stop-color="rgb(37.65564%, 9.736633%, 17.358398%)" offset="0.378906"/><stop stop-opacity="1" stop-color="rgb(40.126038%, 10.899353%, 18.244934%)" offset="0.382812"/><stop stop-opacity="1" stop-color="rgb(42.59491%, 12.062073%, 19.13147%)" offset="0.386719"/><stop stop-opacity="1" stop-color="rgb(45.065308%, 13.224792%, 20.018005%)" offset="0.390625"/><stop stop-opacity="1" stop-color="rgb(47.535706%, 14.385986%, 20.903015%)" offset="0.394531"/><stop stop-opacity="1" stop-color="rgb(50.006104%, 15.548706%, 21.789551%)" offset="0.398438"/><stop stop-opacity="1" stop-color="rgb(52.476501%, 16.711426%, 22.676086%)" offset="0.402344"/><stop stop-opacity="1" stop-color="rgb(54.946899%, 17.874146%, 23.562622%)" offset="0.40625"/><stop stop-opacity="1" stop-color="rgb(57.417297%, 19.036865%, 24.449158%)" offset="0.410156"/><stop stop-opacity="1" stop-color="rgb(59.887695%, 20.199585%, 25.335693%)" offset="0.414062"/><stop stop-opacity="1" stop-color="rgb(62.358093%, 21.362305%, 26.222229%)" offset="0.417969"/><stop stop-opacity="1" stop-color="rgb(64.828491%, 22.525024%, 27.108765%)" offset="0.421875"/><stop stop-opacity="1" stop-color="rgb(67.298889%, 23.686218%, 27.9953%)" offset="0.425781"/><stop stop-opacity="1" stop-color="rgb(69.769287%, 24.848938%, 28.881836%)" offset="0.429687"/><stop stop-opacity="1" stop-color="rgb(72.239685%, 26.011658%, 29.768372%)" offset="0.433594"/><stop stop-opacity="1" stop-color="rgb(74.710083%, 27.174377%, 30.654907%)" offset="0.4375"/><stop stop-opacity="1" stop-color="rgb(77.180481%, 28.337097%, 31.541443%)" offset="0.441406"/><stop stop-opacity="1" stop-color="rgb(79.650879%, 29.499817%, 32.427979%)" offset="0.445312"/><stop stop-opacity="1" stop-color="rgb(82.121277%, 30.662537%, 33.314514%)" offset="0.449219"/><stop stop-opacity="1" stop-color="rgb(84.591675%, 31.825256%, 34.20105%)" offset="0.453125"/><stop stop-opacity="1" stop-color="rgb(87.062073%, 32.98645%, 35.08606%)" offset="0.457031"/><stop stop-opacity="1" stop-color="rgb(89.532471%, 34.14917%, 35.972595%)" offset="0.460938"/><stop stop-opacity="1" stop-color="rgb(92.002869%, 35.31189%, 36.859131%)" offset="0.464844"/><stop stop-opacity="1" stop-color="rgb(94.473267%, 36.474609%, 37.745667%)" offset="0.46875"/><stop stop-opacity="1" stop-color="rgb(95.027161%, 38.279724%, 38.328552%)" offset="0.472656"/><stop stop-opacity="1" stop-color="rgb(95.581055%, 40.086365%, 38.912964%)" offset="0.476562"/><stop stop-opacity="1" stop-color="rgb(95.755005%, 42.018127%, 39.43634%)" offset="0.480469"/><stop stop-opacity="1" stop-color="rgb(95.930481%, 43.951416%, 39.959717%)" offset="0.484375"/><stop stop-opacity="1" stop-color="rgb(96.104431%, 45.884705%, 40.483093%)" offset="0.488281"/><stop stop-opacity="1" stop-color="rgb(96.278381%, 47.817993%, 41.00647%)" offset="0.492187"/><stop stop-opacity="1" stop-color="rgb(96.452332%, 49.751282%, 41.52832%)" offset="0.496094"/><stop stop-opacity="1" stop-color="rgb(96.627808%, 51.68457%, 42.051697%)" offset="0.5"/><stop stop-opacity="1" stop-color="rgb(96.801758%, 53.616333%, 42.575073%)" offset="0.503906"/><stop stop-opacity="1" stop-color="rgb(96.977234%, 55.549622%, 43.09845%)" offset="0.507812"/><stop stop-opacity="1" stop-color="rgb(97.151184%, 57.48291%, 43.621826%)" offset="0.511719"/><stop stop-opacity="1" stop-color="rgb(97.32666%, 59.416199%, 44.145203%)" offset="0.515625"/><stop stop-opacity="1" stop-color="rgb(97.50061%, 61.347961%, 44.668579%)" offset="0.519531"/><stop stop-opacity="1" stop-color="rgb(97.674561%, 63.28125%, 45.191956%)" offset="0.523438"/><stop stop-opacity="1" stop-color="rgb(97.848511%, 65.214539%, 45.715332%)" offset="0.527344"/><stop stop-opacity="1" stop-color="rgb(98.023987%, 67.147827%, 46.238708%)" offset="0.53125"/><stop stop-opacity="1" stop-color="rgb(98.197937%, 69.081116%, 46.762085%)" offset="0.535156"/><stop stop-opacity="1" stop-color="rgb(98.373413%, 71.014404%, 47.285461%)" offset="0.539062"/><stop stop-opacity="1" stop-color="rgb(98.547363%, 72.946167%, 47.808838%)" offset="0.542969"/><stop stop-opacity="1" stop-color="rgb(98.722839%, 74.879456%, 48.332214%)" offset="0.546875"/><stop stop-opacity="1" stop-color="rgb(98.89679%, 76.812744%, 48.854065%)" offset="0.550781"/><stop stop-opacity="1" stop-color="rgb(99.072266%, 78.746033%, 49.377441%)" offset="0.554688"/><stop stop-opacity="1" stop-color="rgb(99.246216%, 80.677795%, 49.900818%)" offset="0.558594"/><stop stop-opacity="1" stop-color="rgb(99.420166%, 82.611084%, 50.424194%)" offset="0.5625"/><stop stop-opacity="1" stop-color="rgb(99.594116%, 84.544373%, 50.947571%)" offset="0.566406"/><stop stop-opacity="1" stop-color="rgb(99.769592%, 86.477661%, 51.470947%)" offset="0.570312"/><stop stop-opacity="1" stop-color="rgb(99.884033%, 87.748718%, 51.81427%)" offset="0.574219"/><stop stop-opacity="1" stop-color="rgb(100%, 89.019775%, 52.159119%)" offset="0.578125"/><stop stop-opacity="1" stop-color="rgb(100%, 89.019775%, 52.159119%)" offset="0.59375"/><stop stop-opacity="1" stop-color="rgb(100%, 89.019775%, 52.159119%)" offset="0.625"/><stop stop-opacity="1" stop-color="rgb(100%, 89.019775%, 52.159119%)" offset="0.75"/><stop stop-opacity="1" stop-color="rgb(100%, 89.019775%, 52.159119%)" offset="1"/></linearGradient><clipPath id="88f5b920bb"><rect x="0" width="289" y="0" height="343"/></clipPath><clipPath id="81b0f00ecf"><path d="M 0 0.410156 L 288.078125 0.410156 L 288.078125 343 L 0 343 Z M 0 0.410156 " clip-rule="nonzero"/></clipPath><clipPath id="c99bdc9088"><rect x="0" width="289" y="0" height="343"/></clipPath><clipPath id="398bdc14d7"><rect x="0" width="289" y="0" height="343"/></clipPath><mask id="d624fb1c83"><g filter="url(#37ce932194)"><g transform="matrix(1, 0, 0, 1, 0, 0)"><g clip-path="url(#398bdc14d7)"><g clip-path="url(#81b0f00ecf)"><g transform="matrix(1, 0, 0, 1, 0, 0)"><g clip-path="url(#c99bdc9088)"><g fill="#000000" fill-opacity="1"><g transform="translate(97.884401, 205.819415)"><g><path d="M 15.453125 -51.15625 C 16.660156 -51.15625 17.414062 -50.929688 17.71875 -50.484375 C 18.019531 -50.046875 18.171875 -49.617188 18.171875 -49.203125 C 18.171875 -48.503906 17.984375 -48.015625 17.609375 -47.734375 C 17.234375 -47.453125 16.8125 -47.171875 16.34375 -46.890625 C 15.882812 -46.617188 15.46875 -46.25 15.09375 -45.78125 C 14.71875 -45.3125 14.53125 -44.539062 14.53125 -43.46875 C 14.53125 -42.445312 14.773438 -40.988281 15.265625 -39.09375 C 15.753906 -37.207031 16.382812 -35.113281 17.15625 -32.8125 C 17.925781 -30.507812 18.800781 -28.097656 19.78125 -25.578125 C 20.757812 -23.066406 21.738281 -20.65625 22.71875 -18.34375 C 23.695312 -16.039062 24.640625 -13.957031 25.546875 -12.09375 C 26.453125 -10.226562 27.207031 -8.804688 27.8125 -7.828125 C 29.445312 -10.710938 31.03125 -13.832031 32.5625 -17.1875 C 34.101562 -20.539062 35.46875 -23.859375 36.65625 -27.140625 C 37.84375 -30.429688 38.785156 -33.53125 39.484375 -36.4375 C 40.179688 -39.351562 40.53125 -41.789062 40.53125 -43.75 C 40.53125 -44.914062 40.285156 -45.671875 39.796875 -46.015625 C 39.304688 -46.367188 38.757812 -46.625 38.15625 -46.78125 C 37.550781 -46.945312 37.003906 -47.171875 36.515625 -47.453125 C 36.023438 -47.734375 35.78125 -48.382812 35.78125 -49.40625 C 35.78125 -50.0625 36.117188 -50.515625 36.796875 -50.765625 C 37.472656 -51.023438 38.046875 -51.15625 38.515625 -51.15625 L 47.9375 -51.15625 C 49.851562 -51.15625 50.8125 -50.503906 50.8125 -49.203125 C 50.8125 -48.410156 50.660156 -47.863281 50.359375 -47.5625 C 50.054688 -47.257812 49.679688 -46.96875 49.234375 -46.6875 C 48.796875 -46.40625 48.351562 -46.019531 47.90625 -45.53125 C 47.46875 -45.039062 47.109375 -44.191406 46.828125 -42.984375 C 46.035156 -39.671875 45.019531 -36.046875 43.78125 -32.109375 C 42.550781 -28.171875 41.210938 -24.328125 39.765625 -20.578125 C 38.316406 -16.828125 36.820312 -13.332031 35.28125 -10.09375 C 33.75 -6.851562 32.332031 -4.28125 31.03125 -2.375 C 30.238281 -1.207031 29.457031 -0.332031 28.6875 0.25 C 27.914062 0.832031 26.765625 1.125 25.234375 1.125 C 23.554688 1.125 22.34375 0.878906 21.59375 0.390625 C 20.851562 -0.0976562 20.222656 -0.738281 19.703125 -1.53125 C 18.722656 -2.976562 17.707031 -4.679688 16.65625 -6.640625 C 15.613281 -8.597656 14.566406 -10.71875 13.515625 -13 C 12.472656 -15.28125 11.460938 -17.675781 10.484375 -20.1875 C 9.503906 -22.707031 8.582031 -25.222656 7.71875 -27.734375 C 6.863281 -30.253906 6.082031 -32.738281 5.375 -35.1875 C 4.675781 -37.632812 4.097656 -39.929688 3.640625 -42.078125 C 3.304688 -43.515625 2.90625 -44.546875 2.4375 -45.171875 C 1.976562 -45.804688 1.523438 -46.296875 1.078125 -46.640625 C 0.640625 -46.992188 0.257812 -47.3125 -0.0625 -47.59375 C -0.394531 -47.875 -0.5625 -48.410156 -0.5625 -49.203125 C -0.5625 -50.503906 0.394531 -51.15625 2.3125 -51.15625 Z M 15.453125 -51.15625 "/></g></g></g></g></g></g></g></g></g></mask><clipPath id="ff3617116d"><path d="M 0 13.722656 L 288.078125 13.722656 L 288.078125 343 L 0 343 Z M 0 13.722656 " clip-rule="nonzero"/></clipPath><clipPath id="82f61193a2"><rect x="0" width="289" y="0" height="343"/></clipPath><clipPath id="5e114a3928"><rect x="0" width="289" y="0" height="343"/></clipPath><clipPath id="361008642c"><rect x="0" width="289" y="0" height="343"/></clipPath><clipPath id="0ab5359141"><path d="M 0 0 L 338.921875 0 L 338.921875 349.800781 L 0 349.800781 Z M 0 0 " clip-rule="nonzero"/></clipPath><clipPath id="f6ce0f5dc9"><path d="M 0 0 L 338.921875 0 L 338.921875 349.800781 L 0 349.800781 Z M 0 0 " clip-rule="nonzero"/></clipPath><clipPath id="fdd58d089f"><path d="M 0 0 L 338.921875 0 L 338.921875 335.539062 L 0 335.539062 Z M 0 0 " clip-rule="nonzero"/></clipPath><linearGradient x1="33.297001" gradientTransform="matrix(0.95202, 0, 0, 0.950908, 135.581408, 113.013573)" y1="234.011997" x2="33.297001" gradientUnits="userSpaceOnUse" y2="-118.848105" id="6ebdaa134c"><stop stop-opacity="1" stop-color="rgb(28.62854%, 5.488586%, 14.118958%)" offset="0"/><stop stop-opacity="1" stop-color="rgb(28.62854%, 5.488586%, 14.118958%)" offset="0.25"/><stop stop-opacity="1" stop-color="rgb(28.62854%, 5.488586%, 14.118958%)" offset="0.375"/><stop stop-opacity="1" stop-color="rgb(28.62854%, 5.488586%, 14.118958%)" offset="0.40625"/><stop stop-opacity="1" stop-color="rgb(28.62854%, 5.488586%, 14.118958%)" offset="0.414062"/><stop stop-opacity="1" stop-color="rgb(30.319214%, 6.283569%, 14.724731%)" offset="0.417969"/><stop stop-opacity="1" stop-color="rgb(32.009888%, 7.080078%, 15.332031%)" offset="0.421875"/><stop stop-opacity="1" stop-color="rgb(34.526062%, 8.26416%, 16.235352%)" offset="0.425781"/><stop stop-opacity="1" stop-color="rgb(37.043762%, 9.449768%, 17.138672%)" offset="0.429687"/><stop stop-opacity="1" stop-color="rgb(39.561462%, 10.63385%, 18.041992%)" offset="0.433594"/><stop stop-opacity="1" stop-color="rgb(42.079163%, 11.817932%, 18.945312%)" offset="0.4375"/><stop stop-opacity="1" stop-color="rgb(44.595337%, 13.002014%, 19.848633%)" offset="0.441406"/><stop stop-opacity="1" stop-color="rgb(47.113037%, 14.187622%, 20.751953%)" offset="0.445312"/><stop stop-opacity="1" stop-color="rgb(49.630737%, 15.371704%, 21.655273%)" offset="0.449219"/><stop stop-opacity="1" stop-color="rgb(52.148438%, 16.557312%, 22.558594%)" offset="0.453125"/><stop stop-opacity="1" stop-color="rgb(54.664612%, 17.741394%, 23.461914%)" offset="0.457031"/><stop stop-opacity="1" stop-color="rgb(57.182312%, 18.927002%, 24.365234%)" offset="0.460937"/><stop stop-opacity="1" stop-color="rgb(59.700012%, 20.111084%, 25.268555%)" offset="0.464844"/><stop stop-opacity="1" stop-color="rgb(62.217712%, 21.295166%, 26.171875%)" offset="0.46875"/><stop stop-opacity="1" stop-color="rgb(64.733887%, 22.479248%, 27.075195%)" offset="0.472656"/><stop stop-opacity="1" stop-color="rgb(67.251587%, 23.664856%, 27.978516%)" offset="0.476562"/><stop stop-opacity="1" stop-color="rgb(69.769287%, 24.848938%, 28.881836%)" offset="0.480469"/><stop stop-opacity="1" stop-color="rgb(72.286987%, 26.034546%, 29.785156%)" offset="0.484375"/><stop stop-opacity="1" stop-color="rgb(74.803162%, 27.218628%, 30.688477%)" offset="0.488281"/><stop stop-opacity="1" stop-color="rgb(77.320862%, 28.40271%, 31.591797%)" offset="0.492188"/><stop stop-opacity="1" stop-color="rgb(79.837036%, 29.586792%, 32.495117%)" offset="0.496094"/><stop stop-opacity="1" stop-color="rgb(82.354736%, 30.7724%, 33.398438%)" offset="0.5"/><stop stop-opacity="1" stop-color="rgb(84.872437%, 31.956482%, 34.301758%)" offset="0.503906"/><stop stop-opacity="1" stop-color="rgb(87.390137%, 33.14209%, 35.205078%)" offset="0.507812"/><stop stop-opacity="1" stop-color="rgb(89.906311%, 34.326172%, 36.108398%)" offset="0.511719"/><stop stop-opacity="1" stop-color="rgb(92.424011%, 35.51178%, 37.011719%)" offset="0.515625"/><stop stop-opacity="1" stop-color="rgb(93.933105%, 37.034607%, 37.754822%)" offset="0.519531"/><stop stop-opacity="1" stop-color="rgb(95.4422%, 38.557434%, 38.499451%)" offset="0.523438"/><stop stop-opacity="1" stop-color="rgb(95.619202%, 40.527344%, 39.031982%)" offset="0.527344"/><stop stop-opacity="1" stop-color="rgb(95.797729%, 42.497253%, 39.56604%)" offset="0.53125"/><stop stop-opacity="1" stop-color="rgb(95.976257%, 44.465637%, 40.098572%)" offset="0.535156"/><stop stop-opacity="1" stop-color="rgb(96.154785%, 46.435547%, 40.631104%)" offset="0.539062"/><stop stop-opacity="1" stop-color="rgb(96.331787%, 48.405457%, 41.163635%)" offset="0.542969"/><stop stop-opacity="1" stop-color="rgb(96.510315%, 50.375366%, 41.697693%)" offset="0.546875"/><stop stop-opacity="1" stop-color="rgb(96.687317%, 52.345276%, 42.230225%)" offset="0.550781"/><stop stop-opacity="1" stop-color="rgb(96.865845%, 54.315186%, 42.764282%)" offset="0.554688"/><stop stop-opacity="1" stop-color="rgb(97.042847%, 56.285095%, 43.296814%)" offset="0.558594"/><stop stop-opacity="1" stop-color="rgb(97.221375%, 58.255005%, 43.830872%)" offset="0.5625"/><stop stop-opacity="1" stop-color="rgb(97.398376%, 60.223389%, 44.363403%)" offset="0.566406"/><stop stop-opacity="1" stop-color="rgb(97.576904%, 62.193298%, 44.897461%)" offset="0.570312"/><stop stop-opacity="1" stop-color="rgb(97.753906%, 64.163208%, 45.429993%)" offset="0.574219"/><stop stop-opacity="1" stop-color="rgb(97.932434%, 66.133118%, 45.96405%)" offset="0.578125"/><stop stop-opacity="1" stop-color="rgb(98.109436%, 68.103027%, 46.496582%)" offset="0.582031"/><stop stop-opacity="1" stop-color="rgb(98.287964%, 70.072937%, 47.03064%)" offset="0.585938"/><stop stop-opacity="1" stop-color="rgb(98.464966%, 72.042847%, 47.563171%)" offset="0.589844"/><stop stop-opacity="1" stop-color="rgb(98.643494%, 74.012756%, 48.097229%)" offset="0.59375"/><stop stop-opacity="1" stop-color="rgb(98.822021%, 75.982666%, 48.629761%)" offset="0.597656"/><stop stop-opacity="1" stop-color="rgb(99.000549%, 77.952576%, 49.163818%)" offset="0.601562"/><stop stop-opacity="1" stop-color="rgb(99.177551%, 79.920959%, 49.69635%)" offset="0.605469"/><stop stop-opacity="1" stop-color="rgb(99.356079%, 81.890869%, 50.230408%)" offset="0.609375"/><stop stop-opacity="1" stop-color="rgb(99.533081%, 83.860779%, 50.762939%)" offset="0.613281"/><stop stop-opacity="1" stop-color="rgb(99.711609%, 85.830688%, 51.295471%)" offset="0.617187"/><stop stop-opacity="1" stop-color="rgb(99.855042%, 87.425232%, 51.727295%)" offset="0.621094"/><stop stop-opacity="1" stop-color="rgb(100%, 89.019775%, 52.159119%)" offset="0.625"/><stop stop-opacity="1" stop-color="rgb(100%, 89.019775%, 52.159119%)" offset="0.75"/><stop stop-opacity="1" stop-color="rgb(100%, 89.019775%, 52.159119%)" offset="1"/></linearGradient><clipPath id="2abf99b861"><rect x="0" width="339" y="0" height="350"/></clipPath><clipPath id="4ddd85ac48"><path d="M 0 0 L 338.921875 0 L 338.921875 349.800781 L 0 349.800781 Z M 0 0 " clip-rule="nonzero"/></clipPath><clipPath id="4c8812d797"><rect x="0" width="339" y="0" height="350"/></clipPath><clipPath id="d87ea66c85"><rect x="0" width="339" y="0" height="350"/></clipPath><mask id="a7def4e12a"><g filter="url(#37ce932194)"><g transform="matrix(1, 0, 0, 1, 0, 0)"><g clip-path="url(#d87ea66c85)"><g clip-path="url(#4ddd85ac48)"><g transform="matrix(1, 0, 0, 1, 0, 0)"><g clip-path="url(#4c8812d797)"><g fill="#000000" fill-opacity="1"><g transform="translate(135.415851, 178.627377)"><g><path d="M 16.84375 -51.15625 C 18.84375 -51.15625 19.84375 -50.457031 19.84375 -49.0625 C 19.84375 -48.3125 19.632812 -47.796875 19.21875 -47.515625 C 18.800781 -47.242188 18.347656 -47.015625 17.859375 -46.828125 C 17.367188 -46.640625 16.925781 -46.378906 16.53125 -46.046875 C 16.132812 -45.722656 15.9375 -45.144531 15.9375 -44.3125 L 15.9375 -24.328125 C 16.675781 -24.929688 17.660156 -25.789062 18.890625 -26.90625 C 20.128906 -28.019531 21.457031 -29.265625 22.875 -30.640625 C 24.300781 -32.015625 25.738281 -33.4375 27.1875 -34.90625 C 28.632812 -36.375 29.9375 -37.785156 31.09375 -39.140625 C 32.257812 -40.492188 33.210938 -41.691406 33.953125 -42.734375 C 34.703125 -43.785156 35.078125 -44.59375 35.078125 -45.15625 C 35.078125 -45.757812 34.890625 -46.210938 34.515625 -46.515625 C 34.148438 -46.816406 33.753906 -47.070312 33.328125 -47.28125 C 32.910156 -47.488281 32.515625 -47.707031 32.140625 -47.9375 C 31.773438 -48.175781 31.59375 -48.550781 31.59375 -49.0625 C 31.59375 -49.851562 31.859375 -50.398438 32.390625 -50.703125 C 32.929688 -51.003906 33.550781 -51.15625 34.25 -51.15625 L 46.34375 -51.15625 C 47.925781 -51.15625 48.71875 -50.457031 48.71875 -49.0625 C 48.71875 -48.457031 48.519531 -47.976562 48.125 -47.625 C 47.726562 -47.28125 47.25 -46.957031 46.6875 -46.65625 C 46.125 -46.351562 45.515625 -46.023438 44.859375 -45.671875 C 44.210938 -45.328125 43.65625 -44.847656 43.1875 -44.234375 C 42.019531 -42.796875 40.398438 -41.0625 38.328125 -39.03125 C 36.253906 -37.007812 33.613281 -34.226562 30.40625 -30.6875 C 32.914062 -27.976562 35.03125 -25.539062 36.75 -23.375 C 38.476562 -21.207031 39.972656 -19.210938 41.234375 -17.390625 C 42.492188 -15.578125 43.578125 -13.867188 44.484375 -12.265625 C 45.390625 -10.660156 46.265625 -9.066406 47.109375 -7.484375 C 47.710938 -6.316406 48.28125 -5.488281 48.8125 -5 C 49.351562 -4.507812 49.832031 -4.132812 50.25 -3.875 C 50.664062 -3.625 50.988281 -3.40625 51.21875 -3.21875 C 51.457031 -3.03125 51.578125 -2.65625 51.578125 -2.09375 C 51.578125 -1.300781 51.296875 -0.753906 50.734375 -0.453125 C 50.179688 -0.148438 49.578125 0 48.921875 0 L 35.578125 0 C 33.753906 0 32.84375 -0.695312 32.84375 -2.09375 C 32.84375 -2.601562 33.003906 -3 33.328125 -3.28125 C 33.660156 -3.5625 34.015625 -3.796875 34.390625 -3.984375 C 34.765625 -4.171875 35.113281 -4.367188 35.4375 -4.578125 C 35.757812 -4.785156 35.921875 -5.078125 35.921875 -5.453125 C 35.921875 -5.867188 35.675781 -6.578125 35.1875 -7.578125 C 34.695312 -8.578125 34.054688 -9.695312 33.265625 -10.9375 C 32.472656 -12.175781 31.585938 -13.476562 30.609375 -14.84375 C 29.628906 -16.21875 28.660156 -17.507812 27.703125 -18.71875 C 26.753906 -19.9375 25.859375 -21 25.015625 -21.90625 C 24.179688 -22.820312 23.53125 -23.441406 23.0625 -23.765625 L 15.9375 -17.890625 L 15.9375 -6.84375 C 15.9375 -6.007812 16.132812 -5.425781 16.53125 -5.09375 C 16.925781 -4.769531 17.367188 -4.515625 17.859375 -4.328125 C 18.347656 -4.140625 18.800781 -3.90625 19.21875 -3.625 C 19.632812 -3.351562 19.84375 -2.84375 19.84375 -2.09375 C 19.84375 -0.695312 18.84375 0 16.84375 0 L 4.6875 0 C 2.675781 0 1.671875 -0.695312 1.671875 -2.09375 C 1.671875 -2.84375 1.867188 -3.351562 2.265625 -3.625 C 2.660156 -3.90625 3.101562 -4.140625 3.59375 -4.328125 C 4.082031 -4.515625 4.535156 -4.769531 4.953125 -5.09375 C 5.378906 -5.425781 5.59375 -6.007812 5.59375 -6.84375 L 5.59375 -44.3125 C 5.59375 -45.144531 5.378906 -45.722656 4.953125 -46.046875 C 4.535156 -46.378906 4.082031 -46.640625 3.59375 -46.828125 C 3.101562 -47.015625 2.660156 -47.242188 2.265625 -47.515625 C 1.867188 -47.796875 1.671875 -48.3125 1.671875 -49.0625 C 1.671875 -50.457031 2.675781 -51.15625 4.6875 -51.15625 Z M 16.84375 -51.15625 "/></g></g></g><g fill="#000000" fill-opacity="1"><g transform="translate(183.504195, 178.627377)"><g><path d="M 1.609375 -29.78125 C 1.609375 -30.238281 1.757812 -30.570312 2.0625 -30.78125 C 2.363281 -30.988281 2.816406 -31.210938 3.421875 -31.453125 C 4.171875 -31.734375 4.972656 -32.023438 5.828125 -32.328125 C 6.691406 -32.628906 7.519531 -32.90625 8.3125 -33.15625 C 9.101562 -33.414062 9.8125 -33.640625 10.4375 -33.828125 C 11.070312 -34.015625 11.578125 -34.109375 11.953125 -34.109375 C 12.878906 -34.109375 13.53125 -33.78125 13.90625 -33.125 C 14.28125 -32.476562 14.46875 -31.195312 14.46875 -29.28125 L 14.46875 -6.703125 C 14.46875 -5.640625 14.640625 -4.90625 14.984375 -4.5 C 15.335938 -4.101562 15.710938 -3.8125 16.109375 -3.625 C 16.503906 -3.445312 16.875 -3.265625 17.21875 -3.078125 C 17.570312 -2.890625 17.75 -2.46875 17.75 -1.8125 C 17.75 -0.601562 16.9375 0 15.3125 0 L 4.546875 0 C 2.910156 0 2.09375 -0.601562 2.09375 -1.8125 C 2.09375 -2.414062 2.265625 -2.820312 2.609375 -3.03125 C 2.960938 -3.25 3.335938 -3.445312 3.734375 -3.625 C 4.128906 -3.8125 4.5 -4.101562 4.84375 -4.5 C 5.195312 -4.90625 5.375 -5.640625 5.375 -6.703125 L 5.375 -25.15625 C 5.375 -25.945312 5.175781 -26.539062 4.78125 -26.9375 C 4.382812 -27.332031 3.953125 -27.644531 3.484375 -27.875 C 3.023438 -28.113281 2.597656 -28.359375 2.203125 -28.609375 C 1.804688 -28.867188 1.609375 -29.257812 1.609375 -29.78125 Z M 3.359375 -42.21875 C 3.359375 -43.707031 3.878906 -44.894531 4.921875 -45.78125 C 5.972656 -46.664062 7.382812 -47.109375 9.15625 -47.109375 C 10.789062 -47.109375 12.117188 -46.664062 13.140625 -45.78125 C 14.160156 -44.894531 14.671875 -43.707031 14.671875 -42.21875 C 14.671875 -40.675781 14.144531 -39.472656 13.09375 -38.609375 C 12.050781 -37.753906 10.644531 -37.328125 8.875 -37.328125 C 7.25 -37.328125 5.921875 -37.769531 4.890625 -38.65625 C 3.867188 -39.539062 3.359375 -40.726562 3.359375 -42.21875 Z M 3.359375 -42.21875 "/></g></g></g></g></g></g></g></g></g></mask><clipPath id="63cdc36dde"><path d="M 0 0 L 338.921875 0 L 338.921875 335.539062 L 0 335.539062 Z M 0 0 " clip-rule="nonzero"/></clipPath><clipPath id="08a6b78c7a"><rect x="0" width="339" y="0" height="350"/></clipPath><clipPath id="b0c6de2a40"><rect x="0" width="339" y="0" height="350"/></clipPath><clipPath id="617e3ec323"><rect x="0" width="340" y="0" height="350"/></clipPath></defs><g clip-path="url(#97c1c04b7e)"><path fill="#0d1117" d="M 219 147.839844 L 221.765625 156.601562 C 222.011719 157.382812 222.625 158 223.410156 158.246094 L 232.171875 161.011719 C 232.519531 161.121094 232.519531 161.613281 232.171875 161.722656 L 223.410156 164.488281 C 222.625 164.734375 222.011719 165.351562 221.765625 166.132812 L 219 174.894531 C 218.886719 175.242188 218.398438 175.242188 218.289062 174.894531 L 215.523438 166.132812 C 215.273438 165.351562 214.660156 164.734375 213.875 164.488281 L 205.113281 161.722656 C 204.769531 161.613281 204.769531 161.121094 205.113281 161.011719 L 213.875 158.246094 C 214.660156 158 215.273438 157.382812 215.523438 156.601562 L 218.289062 147.839844 C 218.398438 147.492188 218.886719 147.492188 219 147.839844 " fill-opacity="1" fill-rule="nonzero"/></g><g transform="matrix(1, 0, 0, 1, 6, 14)"><g clip-path="url(#bf7d4ecee4)"><g clip-path="url(#8259d05e75)"><g transform="matrix(1, 0, 0, 1, 0.000000000000000888, 0)"><g clip-path="url(#927f7ce442)"><g clip-path="url(#defd2bc11d)"><g mask="url(#dd9f189f74)"><g transform="matrix(1, 0, 0, 1, 0.000000000000000888, 0)"><g clip-path="url(#7ed6b7cc20)"><g clip-path="url(#aec1b22ebc)"><path fill="url(#53698ae988)" d="M 0.679688 14.039062 L 0.679688 361 L 364.902344 361 L 364.902344 14.039062 Z M 0.679688 14.039062 " fill-rule="nonzero"/></g></g></g></g></g></g></g></g></g></g><g transform="matrix(1, 0, 0, 1, 0, 32)"><g clip-path="url(#361008642c)"><g clip-path="url(#3e79cb8430)"><g transform="matrix(1, 0, 0, 1, 0, 0)"><g clip-path="url(#5e114a3928)"><g clip-path="url(#40ef7aca7b)"><g mask="url(#d624fb1c83)"><g transform="matrix(1, 0, 0, 1, 0, 0)"><g clip-path="url(#82f61193a2)"><g clip-path="url(#ff3617116d)"><path fill="url(#6bb041baff)" d="M 0 13.722656 L 0 343 L 288.078125 343 L 288.078125 13.722656 Z M 0 13.722656 " fill-rule="nonzero"/></g></g></g></g></g></g></g></g></g></g><g transform="matrix(1, 0, 0, 1, 0, 0)"><g clip-path="url(#617e3ec323)"><g clip-path="url(#0ab5359141)"><g transform="matrix(1, 0, 0, 1, 0, 0)"><g clip-path="url(#b0c6de2a40)"><g clip-path="url(#f6ce0f5dc9)"><g mask="url(#a7def4e12a)"><g transform="matrix(1, 0, 0, 1, 0, 0)"><g clip-path="url(#08a6b78c7a)"><g clip-path="url(#63cdc36dde)"><path fill="url(#6ebdaa134c)" d="M 0 0 L 0 335.539062 L 338.921875 335.539062 L 338.921875 0 Z M 0 0 " fill-rule="nonzero"/></g></g></g></g></g></g></g></g></g></g></svg>