<svg xmlns="http://www.w3.org/2000/svg" xmlns:xlink="http://www.w3.org/1999/xlink" width="500" zoomAndPan="magnify" viewBox="0 0 375 374.999991" height="500" preserveAspectRatio="xMidYMid meet" version="1.0"><defs><g/><clipPath id="0e76811c6d"><path d="M 112.5 245.6875 L 124.316406 245.6875 L 124.316406 257.488281 L 112.5 257.488281 Z M 112.5 245.6875 " clip-rule="nonzero"/></clipPath><clipPath id="26a1e48a53"><path d="M 226 132.246094 L 237 132.246094 L 237 143 L 226 143 Z M 226 132.246094 " clip-rule="nonzero"/></clipPath><clipPath id="e07620ed67"><path d="M 251 160 L 262.5 160 L 262.5 172 L 251 172 Z M 251 160 " clip-rule="nonzero"/></clipPath><clipPath id="cb04514454"><rect x="0" width="58" y="0" height="57"/></clipPath><clipPath id="7787a7c895"><path d="M 0.238281 12 L 46 12 L 46 46 L 0.238281 46 Z M 0.238281 12 " clip-rule="nonzero"/></clipPath><clipPath id="8cd9276b0d"><rect x="0" width="148" y="0" height="57"/></clipPath></defs><rect x="-37.5" width="450" fill="#ffffff" y="-37.499999" height="449.999989" fill-opacity="1"/><rect x="-37.5" width="450" fill="#e7eeff" y="-37.499999" height="449.999989" fill-opacity="1"/><g clip-path="url(#0e76811c6d)"><path fill="#e9c261" d="M 115.53125 245.867188 C 115.492188 245.867188 115.453125 245.878906 115.414062 245.894531 C 115.414062 245.894531 115.414062 245.898438 115.414062 245.898438 C 115.300781 245.953125 115.246094 246.078125 115.277344 246.203125 L 115.34375 246.4375 C 115.386719 246.59375 115.425781 246.742188 115.464844 246.890625 C 115.648438 247.574219 115.851562 248.375 115.929688 249.175781 C 115.992188 249.84375 115.941406 250.386719 115.769531 250.875 C 115.574219 251.429688 115.21875 251.941406 114.625 252.523438 C 114.09375 253.046875 113.507812 253.507812 112.957031 253.929688 C 112.875 253.988281 112.792969 254.054688 112.714844 254.117188 C 112.675781 254.144531 112.636719 254.175781 112.601562 254.199219 C 112.503906 254.277344 112.472656 254.410156 112.527344 254.523438 C 112.570312 254.617188 112.664062 254.671875 112.765625 254.671875 C 112.78125 254.671875 112.804688 254.671875 112.824219 254.667969 C 113.0625 254.609375 113.300781 254.550781 113.527344 254.488281 C 113.632812 254.460938 113.742188 254.433594 113.847656 254.40625 C 114.46875 254.246094 115.210938 254.074219 115.96875 254.019531 C 116.082031 254.011719 116.191406 254.007812 116.300781 254.007812 C 117.160156 254.007812 117.902344 254.269531 118.558594 254.808594 C 119.253906 255.378906 119.824219 256.082031 120.398438 256.8125 C 120.496094 256.933594 120.589844 257.058594 120.691406 257.191406 C 120.738281 257.253906 120.785156 257.316406 120.839844 257.382812 C 120.890625 257.453125 120.96875 257.488281 121.046875 257.488281 C 121.085938 257.488281 121.128906 257.480469 121.164062 257.460938 C 121.277344 257.40625 121.335938 257.277344 121.300781 257.15625 C 121.269531 257.039062 121.238281 256.925781 121.210938 256.8125 C 121.144531 256.570312 121.082031 256.34375 121.023438 256.113281 C 120.863281 255.492188 120.691406 254.753906 120.636719 253.996094 C 120.558594 252.984375 120.824219 252.132812 121.445312 251.382812 C 121.808594 250.949219 122.25 250.527344 122.835938 250.050781 C 123.09375 249.839844 123.363281 249.628906 123.625 249.425781 C 123.746094 249.332031 123.867188 249.234375 123.988281 249.140625 C 124.082031 249.066406 124.117188 248.933594 124.0625 248.824219 C 124.019531 248.730469 123.925781 248.671875 123.824219 248.671875 C 123.808594 248.671875 123.789062 248.671875 123.773438 248.675781 C 123.761719 248.679688 123.753906 248.679688 123.746094 248.683594 C 123.722656 248.6875 123.695312 248.691406 123.667969 248.699219 C 123.554688 248.730469 123.441406 248.761719 123.328125 248.789062 C 123.109375 248.851562 122.886719 248.910156 122.660156 248.96875 C 122.054688 249.121094 121.335938 249.285156 120.578125 249.339844 C 120.476562 249.347656 120.375 249.347656 120.273438 249.347656 C 119.382812 249.347656 118.613281 249.058594 117.925781 248.46875 C 117.332031 247.957031 116.824219 247.351562 116.402344 246.824219 C 116.257812 246.640625 116.113281 246.453125 115.960938 246.253906 C 115.886719 246.160156 115.816406 246.066406 115.742188 245.972656 C 115.691406 245.90625 115.613281 245.867188 115.53125 245.867188 Z M 116.78125 248.636719 C 116.953125 248.816406 117.136719 248.988281 117.332031 249.15625 C 118.179688 249.886719 119.171875 250.257812 120.273438 250.257812 C 120.394531 250.257812 120.519531 250.253906 120.644531 250.242188 C 120.878906 250.226562 121.109375 250.203125 121.335938 250.167969 C 121.121094 250.382812 120.925781 250.589844 120.75 250.804688 C 119.976562 251.726562 119.636719 252.824219 119.730469 254.0625 C 119.746094 254.285156 119.769531 254.503906 119.800781 254.71875 C 119.59375 254.507812 119.371094 254.300781 119.136719 254.109375 C 118.320312 253.4375 117.367188 253.097656 116.300781 253.097656 C 116.171875 253.097656 116.035156 253.101562 115.902344 253.113281 C 115.679688 253.128906 115.460938 253.15625 115.246094 253.1875 C 115.253906 253.179688 115.257812 253.175781 115.265625 253.167969 C 115.960938 252.484375 116.378906 251.871094 116.625 251.179688 C 116.847656 250.558594 116.910156 249.894531 116.832031 249.089844 C 116.820312 248.9375 116.800781 248.785156 116.78125 248.636719 " fill-opacity="1" fill-rule="nonzero"/></g><path fill="#e9c261" d="M 147.6875 210.265625 C 147.585938 210.265625 147.492188 210.324219 147.445312 210.421875 L 147.347656 210.644531 C 147.28125 210.792969 147.21875 210.933594 147.152344 211.070312 C 146.859375 211.71875 146.507812 212.460938 146.058594 213.132812 C 145.683594 213.6875 145.296875 214.074219 144.851562 214.34375 C 144.347656 214.648438 143.753906 214.816406 142.921875 214.890625 C 142.527344 214.925781 142.132812 214.9375 141.746094 214.9375 C 141.402344 214.9375 141.066406 214.929688 140.738281 214.914062 C 140.636719 214.910156 140.53125 214.910156 140.429688 214.90625 C 140.382812 214.90625 140.335938 214.902344 140.289062 214.902344 C 140.289062 214.902344 140.285156 214.902344 140.285156 214.902344 C 140.164062 214.902344 140.058594 214.984375 140.027344 215.101562 C 139.996094 215.222656 140.054688 215.347656 140.167969 215.402344 C 140.386719 215.511719 140.609375 215.613281 140.824219 215.710938 C 140.921875 215.757812 141.023438 215.804688 141.121094 215.847656 C 141.707031 216.121094 142.386719 216.460938 143.007812 216.898438 C 143.832031 217.476562 144.320312 218.214844 144.503906 219.148438 C 144.679688 220.03125 144.671875 220.9375 144.648438 221.863281 C 144.648438 222.019531 144.640625 222.175781 144.636719 222.339844 C 144.632812 222.417969 144.628906 222.5 144.625 222.585938 C 144.621094 222.710938 144.707031 222.820312 144.832031 222.851562 C 144.851562 222.855469 144.871094 222.855469 144.890625 222.855469 C 144.992188 222.855469 145.085938 222.796875 145.128906 222.703125 C 145.179688 222.589844 145.230469 222.484375 145.277344 222.378906 C 145.378906 222.148438 145.476562 221.933594 145.578125 221.71875 C 145.847656 221.140625 146.1875 220.460938 146.625 219.835938 C 147.210938 219.007812 147.960938 218.515625 148.914062 218.335938 C 149.453125 218.234375 150.039062 218.1875 150.761719 218.1875 C 150.785156 218.1875 150.808594 218.1875 150.832031 218.1875 C 151.167969 218.1875 151.511719 218.195312 151.84375 218.203125 C 151.996094 218.207031 152.148438 218.210938 152.304688 218.214844 C 152.304688 218.214844 152.308594 218.214844 152.308594 218.214844 C 152.429688 218.214844 152.535156 218.132812 152.5625 218.019531 C 152.59375 217.898438 152.539062 217.777344 152.433594 217.71875 C 152.425781 217.714844 152.417969 217.710938 152.40625 217.707031 C 152.386719 217.695312 152.363281 217.679688 152.339844 217.667969 C 152.230469 217.621094 152.125 217.574219 152.019531 217.527344 C 151.8125 217.433594 151.597656 217.335938 151.390625 217.238281 C 150.824219 216.976562 150.164062 216.644531 149.546875 216.207031 C 148.710938 215.613281 148.222656 214.84375 148.050781 213.851562 C 147.917969 213.078125 147.910156 212.289062 147.921875 211.617188 C 147.921875 211.378906 147.933594 211.144531 147.941406 210.894531 C 147.945312 210.777344 147.949219 210.65625 147.949219 210.535156 C 147.953125 210.410156 147.871094 210.300781 147.746094 210.273438 C 147.726562 210.265625 147.707031 210.265625 147.6875 210.265625 Z M 147.058594 213.253906 C 147.078125 213.503906 147.109375 213.753906 147.15625 214.003906 C 147.363281 215.230469 147.992188 216.21875 149.019531 216.945312 C 149.210938 217.082031 149.40625 217.207031 149.601562 217.324219 C 149.300781 217.351562 149.015625 217.390625 148.742188 217.445312 C 147.5625 217.667969 146.601562 218.296875 145.882812 219.316406 C 145.753906 219.496094 145.636719 219.683594 145.523438 219.867188 C 145.496094 219.570312 145.453125 219.273438 145.398438 218.976562 C 145.167969 217.8125 144.539062 216.863281 143.53125 216.15625 C 143.347656 216.027344 143.164062 215.90625 142.980469 215.796875 C 142.988281 215.796875 142.996094 215.792969 143.003906 215.792969 C 143.976562 215.707031 144.691406 215.496094 145.320312 215.121094 C 145.886719 214.78125 146.359375 214.308594 146.8125 213.636719 C 146.898438 213.511719 146.980469 213.382812 147.058594 213.253906 M 148.277344 210.792969 L 148.277344 210.792969 " fill-opacity="1" fill-rule="nonzero"/><path fill="#e9c261" d="M 175.503906 200.664062 C 175.472656 200.664062 175.445312 200.671875 175.414062 200.679688 C 175.296875 200.722656 175.222656 200.839844 175.242188 200.964844 L 175.273438 201.207031 C 175.296875 201.367188 175.320312 201.519531 175.339844 201.671875 C 175.433594 202.375 175.535156 203.195312 175.507812 204 C 175.488281 204.667969 175.367188 205.199219 175.132812 205.664062 C 174.867188 206.191406 174.453125 206.648438 173.789062 207.152344 C 173.195312 207.605469 172.558594 207.988281 171.957031 208.335938 C 171.867188 208.386719 171.777344 208.4375 171.6875 208.488281 C 171.648438 208.511719 171.609375 208.539062 171.570312 208.5625 C 171.464844 208.625 171.414062 208.753906 171.453125 208.871094 C 171.488281 208.980469 171.589844 209.050781 171.703125 209.050781 C 171.710938 209.050781 171.71875 209.050781 171.730469 209.050781 C 171.972656 209.027344 172.21875 208.996094 172.453125 208.964844 C 172.558594 208.949219 172.667969 208.933594 172.777344 208.921875 C 173.296875 208.859375 173.886719 208.796875 174.5 208.796875 C 174.644531 208.796875 174.789062 208.800781 174.933594 208.804688 C 175.9375 208.859375 176.746094 209.222656 177.402344 209.921875 C 178.019531 210.574219 178.496094 211.34375 178.96875 212.140625 C 179.050781 212.273438 179.128906 212.40625 179.210938 212.550781 C 179.25 212.621094 179.292969 212.691406 179.335938 212.761719 C 179.382812 212.847656 179.46875 212.894531 179.5625 212.894531 C 179.589844 212.894531 179.621094 212.890625 179.648438 212.878906 C 179.765625 212.839844 179.839844 212.71875 179.824219 212.59375 C 179.804688 212.472656 179.792969 212.355469 179.773438 212.242188 C 179.738281 211.996094 179.707031 211.761719 179.679688 211.527344 C 179.597656 210.890625 179.523438 210.136719 179.5625 209.375 C 179.617188 208.363281 179.988281 207.550781 180.699219 206.890625 C 181.117188 206.503906 181.605469 206.140625 182.246094 205.742188 C 182.53125 205.5625 182.828125 205.390625 183.113281 205.21875 C 183.242188 205.144531 183.375 205.066406 183.507812 204.984375 C 183.613281 204.921875 183.660156 204.796875 183.621094 204.679688 C 183.585938 204.570312 183.484375 204.496094 183.371094 204.496094 C 183.363281 204.496094 183.359375 204.496094 183.351562 204.496094 C 183.339844 204.5 183.332031 204.5 183.324219 204.5 C 183.300781 204.5 183.273438 204.503906 183.246094 204.503906 C 183.128906 204.523438 183.015625 204.539062 182.898438 204.554688 C 182.675781 204.585938 182.441406 204.617188 182.214844 204.644531 C 181.722656 204.707031 181.160156 204.761719 180.570312 204.761719 C 180.414062 204.761719 180.257812 204.757812 180.101562 204.75 C 179.078125 204.691406 178.253906 204.300781 177.578125 203.550781 C 177.054688 202.96875 176.628906 202.300781 176.277344 201.726562 C 176.15625 201.523438 176.039062 201.320312 175.910156 201.105469 C 175.851562 201.003906 175.789062 200.902344 175.730469 200.796875 C 175.679688 200.710938 175.59375 200.664062 175.503906 200.664062 Z M 176.421875 203.570312 C 176.570312 203.769531 176.730469 203.964844 176.902344 204.15625 C 177.734375 205.078125 178.792969 205.585938 180.050781 205.65625 C 180.21875 205.664062 180.394531 205.667969 180.570312 205.667969 C 180.628906 205.667969 180.6875 205.667969 180.746094 205.667969 C 180.503906 205.851562 180.285156 206.035156 180.082031 206.222656 C 179.199219 207.042969 178.722656 208.085938 178.65625 209.328125 C 178.644531 209.546875 178.640625 209.769531 178.644531 209.988281 C 178.464844 209.75 178.273438 209.519531 178.0625 209.296875 C 177.25 208.4375 176.214844 207.964844 174.980469 207.898438 C 174.824219 207.894531 174.664062 207.886719 174.5 207.886719 C 174.4375 207.886719 174.378906 207.886719 174.320312 207.890625 C 174.328125 207.886719 174.335938 207.878906 174.339844 207.875 C 175.121094 207.285156 175.613281 206.726562 175.945312 206.074219 C 176.242188 205.488281 176.390625 204.835938 176.417969 204.027344 C 176.421875 203.875 176.421875 203.722656 176.421875 203.570312 " fill-opacity="1" fill-rule="nonzero"/><path fill="#e9c261" d="M 202.621094 184.925781 C 202.5 184.925781 202.398438 185.003906 202.367188 185.121094 L 202.304688 185.359375 C 202.265625 185.515625 202.226562 185.664062 202.191406 185.8125 C 202.011719 186.5 201.792969 187.296875 201.464844 188.03125 C 201.191406 188.644531 200.878906 189.089844 200.484375 189.429688 C 200.039062 189.816406 199.480469 190.085938 198.675781 190.300781 C 197.953125 190.496094 197.21875 190.605469 196.527344 190.699219 C 196.425781 190.714844 196.328125 190.726562 196.226562 190.742188 C 196.179688 190.75 196.132812 190.757812 196.085938 190.765625 C 195.964844 190.78125 195.871094 190.882812 195.859375 191.003906 C 195.851562 191.128906 195.929688 191.242188 196.046875 191.277344 C 196.285156 191.347656 196.519531 191.410156 196.75 191.46875 C 196.855469 191.496094 196.960938 191.527344 197.070312 191.554688 C 197.691406 191.722656 198.417969 191.9375 199.105469 192.261719 C 200.015625 192.691406 200.625 193.335938 200.96875 194.226562 C 201.289062 195.066406 201.441406 195.957031 201.578125 196.875 C 201.601562 197.027344 201.621094 197.183594 201.644531 197.347656 C 201.65625 197.425781 201.667969 197.507812 201.679688 197.589844 C 201.695312 197.710938 201.800781 197.808594 201.925781 197.816406 C 201.929688 197.816406 201.933594 197.816406 201.941406 197.816406 C 202.058594 197.816406 202.164062 197.734375 202.195312 197.617188 C 202.226562 197.5 202.253906 197.386719 202.28125 197.273438 C 202.347656 197.03125 202.402344 196.804688 202.464844 196.574219 C 202.632812 195.957031 202.851562 195.230469 203.175781 194.539062 C 203.609375 193.625 204.261719 193.011719 205.171875 192.667969 C 205.699219 192.46875 206.292969 192.320312 207.035156 192.191406 C 207.367188 192.136719 207.707031 192.085938 208.035156 192.039062 C 208.1875 192.015625 208.339844 191.992188 208.492188 191.96875 C 208.609375 191.953125 208.703125 191.851562 208.714844 191.730469 C 208.722656 191.609375 208.648438 191.496094 208.53125 191.457031 C 208.523438 191.457031 208.515625 191.453125 208.503906 191.449219 C 208.484375 191.441406 208.457031 191.433594 208.429688 191.425781 C 208.316406 191.398438 208.207031 191.367188 208.09375 191.339844 C 207.871094 191.285156 207.644531 191.226562 207.421875 191.164062 C 206.820312 191 206.113281 190.789062 205.429688 190.460938 C 204.503906 190.023438 203.890625 189.347656 203.550781 188.398438 C 203.285156 187.660156 203.144531 186.882812 203.039062 186.21875 C 203 185.984375 202.96875 185.75 202.933594 185.503906 C 202.917969 185.386719 202.902344 185.269531 202.882812 185.148438 C 202.867188 185.027344 202.761719 184.929688 202.636719 184.925781 C 202.632812 184.925781 202.625 184.925781 202.621094 184.925781 Z M 202.46875 187.980469 C 202.535156 188.222656 202.605469 188.464844 202.695312 188.703125 C 203.113281 189.871094 203.902344 190.742188 205.035156 191.28125 C 205.25 191.382812 205.464844 191.472656 205.675781 191.554688 C 205.382812 191.632812 205.113281 191.722656 204.851562 191.820312 C 203.726562 192.242188 202.886719 193.027344 202.355469 194.152344 C 202.257812 194.351562 202.171875 194.554688 202.09375 194.757812 C 202.015625 194.46875 201.925781 194.1875 201.816406 193.902344 C 201.390625 192.796875 200.609375 191.96875 199.496094 191.441406 C 199.292969 191.347656 199.089844 191.261719 198.890625 191.183594 C 198.894531 191.179688 198.902344 191.179688 198.914062 191.175781 C 199.855469 190.925781 200.523438 190.597656 201.078125 190.117188 C 201.578125 189.683594 201.960938 189.140625 202.292969 188.402344 C 202.355469 188.261719 202.414062 188.121094 202.46875 187.980469 M 203.246094 185.347656 L 203.25 185.347656 L 203.246094 185.347656 " fill-opacity="1" fill-rule="nonzero"/><path fill="#e9c261" d="M 227.558594 200.691406 C 227.46875 200.691406 227.382812 200.738281 227.332031 200.820312 L 227.207031 201.027344 C 227.121094 201.167969 227.042969 201.300781 226.964844 201.429688 C 226.597656 202.039062 226.160156 202.734375 225.628906 203.34375 C 225.191406 203.855469 224.765625 204.191406 224.289062 204.402344 C 223.804688 204.621094 223.261719 204.722656 222.550781 204.722656 C 222.472656 204.722656 222.390625 204.71875 222.308594 204.71875 C 221.5625 204.695312 220.820312 204.59375 220.136719 204.484375 C 220.035156 204.46875 219.933594 204.453125 219.832031 204.441406 C 219.785156 204.433594 219.738281 204.425781 219.691406 204.417969 C 219.679688 204.417969 219.667969 204.414062 219.652344 204.414062 C 219.546875 204.414062 219.445312 204.480469 219.40625 204.585938 C 219.363281 204.699219 219.40625 204.832031 219.507812 204.898438 C 219.714844 205.035156 219.925781 205.160156 220.125 205.285156 C 220.21875 205.34375 220.3125 205.398438 220.40625 205.457031 C 220.953125 205.796875 221.585938 206.214844 222.152344 206.722656 C 222.902344 207.394531 223.300781 208.183594 223.371094 209.136719 C 223.4375 210.03125 223.324219 210.929688 223.191406 211.847656 C 223.171875 212 223.144531 212.15625 223.121094 212.320312 C 223.105469 212.398438 223.09375 212.476562 223.082031 212.558594 C 223.0625 212.683594 223.132812 212.804688 223.253906 212.847656 C 223.28125 212.859375 223.3125 212.863281 223.34375 212.863281 C 223.433594 212.863281 223.519531 212.816406 223.570312 212.738281 C 223.632812 212.632812 223.691406 212.53125 223.753906 212.433594 C 223.882812 212.21875 224.003906 212.015625 224.128906 211.816406 C 224.46875 211.269531 224.882812 210.636719 225.394531 210.070312 C 226.074219 209.316406 226.875 208.917969 227.847656 208.851562 C 228.015625 208.839844 228.1875 208.835938 228.367188 208.835938 C 228.789062 208.835938 229.246094 208.867188 229.769531 208.933594 C 230.101562 208.972656 230.441406 209.023438 230.773438 209.070312 C 230.921875 209.09375 231.074219 209.113281 231.226562 209.136719 C 231.238281 209.136719 231.25 209.136719 231.261719 209.136719 C 231.371094 209.136719 231.46875 209.074219 231.507812 208.972656 C 231.550781 208.859375 231.511719 208.726562 231.414062 208.660156 C 231.40625 208.652344 231.398438 208.648438 231.390625 208.640625 C 231.371094 208.628906 231.347656 208.613281 231.324219 208.597656 C 231.226562 208.539062 231.125 208.476562 231.027344 208.417969 C 230.832031 208.300781 230.628906 208.179688 230.433594 208.058594 C 229.90625 207.726562 229.289062 207.320312 228.726562 206.8125 C 227.96875 206.125 227.574219 205.300781 227.523438 204.296875 C 227.484375 203.515625 227.570312 202.726562 227.660156 202.0625 C 227.691406 201.828125 227.730469 201.59375 227.765625 201.347656 C 227.785156 201.230469 227.800781 201.113281 227.820312 200.992188 C 227.839844 200.871094 227.765625 200.75 227.648438 200.707031 C 227.621094 200.695312 227.589844 200.691406 227.558594 200.691406 Z M 226.609375 203.585938 C 226.601562 203.835938 226.601562 204.089844 226.613281 204.34375 C 226.679688 205.582031 227.183594 206.640625 228.117188 207.484375 C 228.289062 207.644531 228.46875 207.792969 228.648438 207.929688 C 228.554688 207.929688 228.460938 207.925781 228.367188 207.925781 C 228.171875 207.925781 227.972656 207.933594 227.785156 207.945312 C 226.582031 208.027344 225.550781 208.539062 224.71875 209.464844 C 224.570312 209.628906 224.429688 209.800781 224.296875 209.96875 C 224.304688 209.671875 224.300781 209.371094 224.277344 209.070312 C 224.1875 207.886719 223.679688 206.871094 222.761719 206.046875 C 222.597656 205.898438 222.425781 205.757812 222.257812 205.625 C 222.265625 205.625 222.273438 205.625 222.28125 205.625 C 222.371094 205.628906 222.464844 205.628906 222.550781 205.628906 C 223.386719 205.628906 224.058594 205.503906 224.664062 205.230469 C 225.261719 204.960938 225.789062 204.550781 226.320312 203.9375 C 226.417969 203.824219 226.515625 203.707031 226.609375 203.585938 M 228.113281 201.285156 L 228.113281 201.285156 " fill-opacity="1" fill-rule="nonzero"/><g clip-path="url(#26a1e48a53)"><path fill="#e9c261" d="M 235.5 132.257812 C 235.449219 132.257812 235.394531 132.269531 235.347656 132.304688 C 235.339844 132.308594 235.332031 132.3125 235.324219 132.320312 C 235.304688 132.332031 235.285156 132.347656 235.261719 132.363281 C 235.171875 132.4375 235.078125 132.511719 234.988281 132.582031 C 234.8125 132.726562 234.628906 132.871094 234.449219 133.011719 C 233.953125 133.394531 233.359375 133.832031 232.6875 134.183594 C 232.132812 134.472656 231.574219 134.617188 231.007812 134.617188 C 230.644531 134.617188 230.277344 134.554688 229.902344 134.441406 C 229.15625 134.210938 228.445312 133.855469 227.851562 133.539062 C 227.640625 133.429688 227.433594 133.316406 227.21875 133.195312 C 227.113281 133.136719 227.011719 133.078125 226.902344 133.019531 C 226.863281 133 226.820312 132.988281 226.777344 132.988281 C 226.699219 132.988281 226.625 133.023438 226.574219 133.082031 C 226.492188 133.179688 226.492188 133.316406 226.570312 133.417969 L 226.722656 133.609375 C 226.828125 133.734375 226.921875 133.851562 227.019531 133.972656 C 227.460938 134.527344 227.964844 135.179688 228.355469 135.882812 C 228.683594 136.472656 228.851562 136.988281 228.886719 137.507812 C 228.929688 138.09375 228.808594 138.703125 228.5 139.472656 C 228.222656 140.164062 227.867188 140.820312 227.527344 141.425781 C 227.480469 141.515625 227.429688 141.605469 227.382812 141.695312 C 227.359375 141.738281 227.335938 141.777344 227.316406 141.820312 C 227.253906 141.925781 227.277344 142.0625 227.371094 142.144531 C 227.421875 142.1875 227.484375 142.207031 227.546875 142.207031 C 227.601562 142.207031 227.65625 142.191406 227.703125 142.15625 C 227.898438 142.011719 228.09375 141.859375 228.277344 141.714844 C 228.363281 141.644531 228.449219 141.578125 228.539062 141.511719 C 229.042969 141.117188 229.65625 140.664062 230.328125 140.308594 C 230.898438 140.011719 231.460938 139.859375 232.035156 139.863281 C 232.359375 139.863281 232.6875 139.910156 233.019531 140.003906 C 233.886719 140.25 234.691406 140.667969 235.507812 141.109375 C 235.644531 141.183594 235.777344 141.257812 235.925781 141.335938 C 235.992188 141.375 236.0625 141.414062 236.136719 141.457031 C 236.179688 141.480469 236.222656 141.488281 236.265625 141.488281 C 236.34375 141.488281 236.417969 141.457031 236.46875 141.398438 C 236.46875 141.398438 236.46875 141.394531 236.46875 141.394531 C 236.546875 141.300781 236.550781 141.160156 236.472656 141.0625 C 236.398438 140.96875 236.320312 140.875 236.25 140.785156 C 236.09375 140.589844 235.945312 140.40625 235.800781 140.21875 C 235.40625 139.714844 234.953125 139.105469 234.597656 138.429688 C 234.125 137.53125 234.027344 136.644531 234.296875 135.710938 C 234.457031 135.167969 234.691406 134.605469 235.039062 133.9375 C 235.191406 133.640625 235.355469 133.339844 235.515625 133.046875 C 235.585938 132.914062 235.660156 132.777344 235.734375 132.644531 C 235.789062 132.535156 235.765625 132.402344 235.675781 132.320312 C 235.625 132.277344 235.5625 132.257812 235.5 132.257812 Z M 233.710938 134.644531 C 233.597656 134.921875 233.503906 135.191406 233.425781 135.457031 C 233.089844 136.609375 233.210938 137.753906 233.792969 138.851562 C 233.898438 139.050781 234.007812 139.242188 234.121094 139.425781 C 233.84375 139.3125 233.5625 139.214844 233.269531 139.128906 C 232.859375 139.011719 232.441406 138.953125 232.035156 138.953125 C 231.320312 138.953125 230.601562 139.140625 229.90625 139.507812 C 229.707031 139.609375 229.519531 139.71875 229.332031 139.835938 C 229.335938 139.828125 229.339844 139.820312 229.34375 139.8125 C 229.707031 138.90625 229.847656 138.175781 229.796875 137.445312 C 229.75 136.789062 229.542969 136.152344 229.152344 135.445312 C 229.078125 135.3125 229 135.179688 228.921875 135.054688 C 229.152344 135.144531 229.390625 135.230469 229.632812 135.308594 C 230.097656 135.449219 230.558594 135.523438 231.007812 135.523438 C 231.71875 135.523438 232.421875 135.34375 233.105469 134.988281 C 233.316406 134.878906 233.515625 134.761719 233.710938 134.644531 " fill-opacity="1" fill-rule="nonzero"/></g><g clip-path="url(#e07620ed67)"><path fill="#e9c261" d="M 253.703125 160.808594 C 253.652344 160.808594 253.605469 160.820312 253.5625 160.847656 C 253.457031 160.910156 253.410156 161.042969 253.453125 161.164062 L 253.539062 161.390625 C 253.59375 161.542969 253.648438 161.6875 253.699219 161.832031 C 253.945312 162.5 254.214844 163.277344 254.363281 164.070312 C 254.484375 164.730469 254.480469 165.273438 254.347656 165.777344 C 254.203125 166.347656 253.894531 166.882812 253.351562 167.515625 C 252.871094 168.085938 252.324219 168.59375 251.8125 169.0625 C 251.734375 169.128906 251.660156 169.199219 251.585938 169.269531 C 251.550781 169.300781 251.519531 169.332031 251.480469 169.363281 C 251.390625 169.449219 251.371094 169.582031 251.433594 169.691406 C 251.480469 169.773438 251.570312 169.820312 251.664062 169.820312 C 251.6875 169.820312 251.714844 169.816406 251.742188 169.808594 C 251.976562 169.734375 252.207031 169.648438 252.429688 169.570312 C 252.535156 169.53125 252.636719 169.496094 252.742188 169.460938 C 253.347656 169.246094 254.070312 169.011719 254.820312 168.890625 C 255.054688 168.851562 255.277344 168.835938 255.496094 168.835938 C 256.214844 168.835938 256.863281 169.039062 257.472656 169.453125 C 258.210938 169.960938 258.84375 170.613281 259.476562 171.292969 C 259.582031 171.40625 259.6875 171.519531 259.800781 171.640625 C 259.851562 171.699219 259.90625 171.761719 259.964844 171.824219 C 260.015625 171.878906 260.085938 171.90625 260.160156 171.90625 C 260.207031 171.90625 260.253906 171.894531 260.296875 171.867188 C 260.402344 171.804688 260.449219 171.671875 260.40625 171.554688 C 260.367188 171.441406 260.324219 171.328125 260.285156 171.21875 C 260.199219 170.984375 260.117188 170.765625 260.039062 170.539062 C 259.824219 169.9375 259.589844 169.214844 259.46875 168.460938 C 259.304688 167.460938 259.496094 166.589844 260.050781 165.792969 C 260.371094 165.328125 260.773438 164.867188 261.316406 164.34375 C 261.554688 164.109375 261.808594 163.875 262.050781 163.648438 C 262.160156 163.546875 262.273438 163.441406 262.386719 163.335938 C 262.476562 163.253906 262.496094 163.121094 262.433594 163.015625 C 262.386719 162.929688 262.300781 162.882812 262.207031 162.882812 C 262.179688 162.882812 262.15625 162.886719 262.132812 162.890625 C 262.121094 162.894531 262.113281 162.898438 262.105469 162.902344 C 262.082031 162.90625 262.054688 162.914062 262.027344 162.925781 C 261.917969 162.964844 261.808594 163.003906 261.699219 163.042969 C 261.488281 163.121094 261.265625 163.203125 261.050781 163.28125 C 260.460938 163.484375 259.757812 163.710938 259.007812 163.828125 C 258.789062 163.863281 258.574219 163.882812 258.367188 163.882812 C 257.613281 163.882812 256.929688 163.652344 256.289062 163.191406 C 255.652344 162.734375 255.09375 162.171875 254.628906 161.683594 C 254.46875 161.511719 254.308594 161.339844 254.136719 161.15625 C 254.058594 161.070312 253.976562 160.984375 253.894531 160.894531 C 253.84375 160.835938 253.773438 160.808594 253.703125 160.808594 Z M 255.160156 163.460938 C 255.351562 163.621094 255.550781 163.777344 255.757812 163.925781 C 256.550781 164.5 257.429688 164.789062 258.367188 164.789062 C 258.621094 164.789062 258.886719 164.765625 259.152344 164.726562 C 259.382812 164.6875 259.613281 164.640625 259.832031 164.589844 C 259.636719 164.820312 259.460938 165.046875 259.304688 165.273438 C 258.617188 166.261719 258.371094 167.382812 258.570312 168.609375 C 258.605469 168.828125 258.652344 169.042969 258.699219 169.253906 C 258.472656 169.0625 258.238281 168.878906 257.984375 168.707031 C 257.230469 168.1875 256.390625 167.925781 255.496094 167.925781 C 255.230469 167.925781 254.953125 167.949219 254.675781 167.996094 C 254.457031 168.03125 254.242188 168.074219 254.03125 168.125 C 254.035156 168.117188 254.039062 168.113281 254.046875 168.105469 C 254.679688 167.363281 255.042969 166.714844 255.230469 166.003906 C 255.394531 165.367188 255.402344 164.699219 255.253906 163.90625 C 255.226562 163.753906 255.195312 163.605469 255.160156 163.460938 " fill-opacity="1" fill-rule="nonzero"/></g><path fill="#e9c261" d="M 121.035156 249.339844 C 121.035156 249.214844 120.988281 249.105469 120.902344 249.019531 C 120.8125 248.929688 120.703125 248.886719 120.578125 248.886719 C 120.453125 248.886719 120.347656 248.929688 120.257812 249.019531 C 120.167969 249.105469 120.125 249.214844 120.125 249.339844 C 120.125 249.464844 120.167969 249.570312 120.257812 249.660156 C 120.347656 249.75 120.453125 249.792969 120.578125 249.792969 C 120.703125 249.792969 120.8125 249.75 120.902344 249.660156 C 120.988281 249.570312 121.035156 249.464844 121.035156 249.339844 Z M 122.808594 247.097656 C 122.808594 246.972656 122.765625 246.867188 122.675781 246.777344 C 122.589844 246.6875 122.480469 246.644531 122.355469 246.644531 C 122.230469 246.644531 122.121094 246.6875 122.035156 246.777344 C 121.945312 246.867188 121.902344 246.972656 121.902344 247.097656 C 121.902344 247.222656 121.945312 247.332031 122.035156 247.417969 C 122.121094 247.507812 122.230469 247.550781 122.355469 247.550781 C 122.480469 247.550781 122.589844 247.507812 122.675781 247.417969 C 122.765625 247.332031 122.808594 247.222656 122.808594 247.097656 Z M 124.585938 244.855469 C 124.585938 244.730469 124.542969 244.625 124.453125 244.535156 C 124.363281 244.449219 124.257812 244.402344 124.132812 244.402344 C 124.007812 244.402344 123.898438 244.449219 123.808594 244.535156 C 123.722656 244.625 123.675781 244.730469 123.675781 244.855469 C 123.675781 244.980469 123.722656 245.089844 123.808594 245.179688 C 123.898438 245.265625 124.007812 245.3125 124.132812 245.3125 C 124.257812 245.3125 124.363281 245.265625 124.453125 245.179688 C 124.542969 245.089844 124.585938 244.980469 124.585938 244.855469 Z M 126.363281 242.617188 C 126.363281 242.492188 126.316406 242.382812 126.230469 242.296875 C 126.140625 242.207031 126.03125 242.164062 125.90625 242.164062 C 125.78125 242.164062 125.675781 242.207031 125.585938 242.296875 C 125.496094 242.382812 125.453125 242.492188 125.453125 242.617188 C 125.453125 242.742188 125.496094 242.847656 125.585938 242.9375 C 125.675781 243.027344 125.78125 243.070312 125.90625 243.070312 C 126.03125 243.070312 126.140625 243.027344 126.230469 242.9375 C 126.316406 242.847656 126.363281 242.742188 126.363281 242.617188 Z M 128.136719 240.375 C 128.136719 240.25 128.09375 240.144531 128.003906 240.054688 C 127.914062 239.964844 127.808594 239.921875 127.683594 239.921875 C 127.558594 239.921875 127.449219 239.964844 127.363281 240.054688 C 127.273438 240.144531 127.230469 240.25 127.230469 240.375 C 127.230469 240.5 127.273438 240.609375 127.363281 240.695312 C 127.449219 240.785156 127.558594 240.828125 127.683594 240.828125 C 127.808594 240.828125 127.914062 240.785156 128.003906 240.695312 C 128.09375 240.609375 128.136719 240.5 128.136719 240.375 Z M 129.914062 238.132812 C 129.914062 238.007812 129.871094 237.902344 129.78125 237.8125 C 129.691406 237.726562 129.585938 237.679688 129.460938 237.679688 C 129.332031 237.679688 129.226562 237.726562 129.136719 237.8125 C 129.050781 237.902344 129.003906 238.007812 129.003906 238.132812 C 129.003906 238.261719 129.050781 238.367188 129.136719 238.457031 C 129.226562 238.542969 129.332031 238.589844 129.460938 238.589844 C 129.585938 238.589844 129.691406 238.542969 129.78125 238.457031 C 129.871094 238.367188 129.914062 238.261719 129.914062 238.132812 Z M 131.691406 235.894531 C 131.691406 235.769531 131.644531 235.660156 131.554688 235.574219 C 131.46875 235.484375 131.359375 235.441406 131.234375 235.441406 C 131.109375 235.441406 131.003906 235.484375 130.914062 235.574219 C 130.824219 235.660156 130.78125 235.769531 130.78125 235.894531 C 130.78125 236.019531 130.824219 236.125 130.914062 236.214844 C 131.003906 236.304688 131.109375 236.347656 131.234375 236.347656 C 131.359375 236.347656 131.46875 236.304688 131.554688 236.214844 C 131.644531 236.125 131.691406 236.019531 131.691406 235.894531 Z M 133.464844 233.652344 C 133.464844 233.527344 133.421875 233.421875 133.332031 233.332031 C 133.242188 233.242188 133.136719 233.199219 133.011719 233.199219 C 132.886719 233.199219 132.777344 233.242188 132.691406 233.332031 C 132.601562 233.421875 132.558594 233.527344 132.558594 233.652344 C 132.558594 233.777344 132.601562 233.886719 132.691406 233.972656 C 132.777344 234.0625 132.886719 234.105469 133.011719 234.105469 C 133.136719 234.105469 133.242188 234.0625 133.332031 233.972656 C 133.421875 233.886719 133.464844 233.777344 133.464844 233.652344 Z M 135.242188 231.410156 C 135.242188 231.285156 135.195312 231.179688 135.109375 231.089844 C 135.019531 231.003906 134.914062 230.957031 134.785156 230.957031 C 134.660156 230.957031 134.554688 231.003906 134.464844 231.089844 C 134.378906 231.179688 134.332031 231.285156 134.332031 231.410156 C 134.332031 231.539062 134.378906 231.644531 134.464844 231.734375 C 134.554688 231.820312 134.660156 231.867188 134.785156 231.867188 C 134.914062 231.867188 135.019531 231.820312 135.109375 231.734375 C 135.195312 231.644531 135.242188 231.539062 135.242188 231.410156 Z M 137.015625 229.171875 C 137.015625 229.046875 136.972656 228.9375 136.882812 228.851562 C 136.796875 228.761719 136.6875 228.71875 136.5625 228.71875 C 136.4375 228.71875 136.332031 228.761719 136.242188 228.851562 C 136.152344 228.9375 136.109375 229.046875 136.109375 229.171875 C 136.109375 229.296875 136.152344 229.402344 136.242188 229.492188 C 136.332031 229.582031 136.4375 229.625 136.5625 229.625 C 136.6875 229.625 136.796875 229.582031 136.882812 229.492188 C 136.972656 229.402344 137.015625 229.296875 137.015625 229.171875 Z M 138.792969 226.929688 C 138.792969 226.804688 138.75 226.699219 138.660156 226.609375 C 138.570312 226.519531 138.464844 226.476562 138.339844 226.476562 C 138.214844 226.476562 138.105469 226.519531 138.015625 226.609375 C 137.929688 226.699219 137.882812 226.804688 137.882812 226.929688 C 137.882812 227.054688 137.929688 227.164062 138.015625 227.25 C 138.105469 227.339844 138.214844 227.382812 138.339844 227.382812 C 138.464844 227.382812 138.570312 227.339844 138.660156 227.25 C 138.75 227.164062 138.792969 227.054688 138.792969 226.929688 Z M 140.570312 224.6875 C 140.570312 224.5625 140.523438 224.457031 140.4375 224.367188 C 140.347656 224.28125 140.242188 224.234375 140.113281 224.234375 C 139.988281 224.234375 139.882812 224.28125 139.792969 224.367188 C 139.703125 224.457031 139.660156 224.5625 139.660156 224.6875 C 139.660156 224.816406 139.703125 224.921875 139.792969 225.011719 C 139.882812 225.097656 139.988281 225.144531 140.113281 225.144531 C 140.242188 225.144531 140.347656 225.097656 140.4375 225.011719 C 140.523438 224.921875 140.570312 224.816406 140.570312 224.6875 Z M 142.34375 222.449219 C 142.34375 222.324219 142.300781 222.214844 142.210938 222.128906 C 142.125 222.039062 142.015625 221.996094 141.890625 221.996094 C 141.765625 221.996094 141.65625 222.039062 141.570312 222.128906 C 141.480469 222.214844 141.4375 222.324219 141.4375 222.449219 C 141.4375 222.574219 141.480469 222.679688 141.570312 222.769531 C 141.65625 222.859375 141.765625 222.902344 141.890625 222.902344 C 142.015625 222.902344 142.125 222.859375 142.210938 222.769531 C 142.300781 222.679688 142.34375 222.574219 142.34375 222.449219 Z M 144.121094 220.207031 C 144.121094 220.082031 144.078125 219.976562 143.988281 219.886719 C 143.898438 219.796875 143.792969 219.753906 143.667969 219.753906 C 143.542969 219.753906 143.433594 219.796875 143.34375 219.886719 C 143.257812 219.976562 143.210938 220.082031 143.210938 220.207031 C 143.210938 220.332031 143.257812 220.441406 143.34375 220.527344 C 143.433594 220.617188 143.542969 220.660156 143.667969 220.660156 C 143.792969 220.660156 143.898438 220.617188 143.988281 220.527344 C 144.078125 220.441406 144.121094 220.332031 144.121094 220.207031 Z M 144.121094 220.207031 " fill-opacity="1" fill-rule="nonzero"/><path fill="#e9c261" d="M 148.503906 213.851562 C 148.503906 213.722656 148.460938 213.617188 148.371094 213.527344 C 148.28125 213.441406 148.175781 213.394531 148.050781 213.394531 C 147.925781 213.394531 147.816406 213.441406 147.730469 213.527344 C 147.640625 213.617188 147.597656 213.722656 147.597656 213.851562 C 147.597656 213.976562 147.640625 214.082031 147.730469 214.171875 C 147.816406 214.257812 147.925781 214.304688 148.050781 214.304688 C 148.175781 214.304688 148.28125 214.257812 148.371094 214.171875 C 148.460938 214.082031 148.503906 213.976562 148.503906 213.851562 Z M 151.273438 213.128906 C 151.273438 213.003906 151.230469 212.898438 151.140625 212.808594 C 151.050781 212.71875 150.945312 212.675781 150.820312 212.675781 C 150.695312 212.675781 150.585938 212.71875 150.5 212.808594 C 150.410156 212.898438 150.367188 213.003906 150.367188 213.128906 C 150.367188 213.253906 150.410156 213.363281 150.5 213.449219 C 150.585938 213.539062 150.695312 213.582031 150.820312 213.582031 C 150.945312 213.582031 151.050781 213.539062 151.140625 213.449219 C 151.230469 213.363281 151.273438 213.253906 151.273438 213.128906 Z M 154.042969 212.410156 C 154.042969 212.285156 154 212.175781 153.910156 212.085938 C 153.820312 212 153.714844 211.953125 153.589844 211.953125 C 153.464844 211.953125 153.355469 212 153.269531 212.085938 C 153.179688 212.175781 153.136719 212.285156 153.136719 212.410156 C 153.136719 212.535156 153.179688 212.640625 153.269531 212.730469 C 153.355469 212.816406 153.464844 212.863281 153.589844 212.863281 C 153.714844 212.863281 153.820312 212.816406 153.910156 212.730469 C 154 212.640625 154.042969 212.535156 154.042969 212.410156 Z M 156.8125 211.6875 C 156.8125 211.5625 156.769531 211.457031 156.679688 211.367188 C 156.589844 211.277344 156.484375 211.234375 156.359375 211.234375 C 156.234375 211.234375 156.125 211.277344 156.039062 211.367188 C 155.949219 211.457031 155.90625 211.5625 155.90625 211.6875 C 155.90625 211.8125 155.949219 211.921875 156.039062 212.007812 C 156.125 212.097656 156.234375 212.140625 156.359375 212.140625 C 156.484375 212.140625 156.589844 212.097656 156.679688 212.007812 C 156.769531 211.921875 156.8125 211.8125 156.8125 211.6875 Z M 159.582031 210.96875 C 159.582031 210.84375 159.539062 210.734375 159.449219 210.648438 C 159.363281 210.558594 159.253906 210.515625 159.128906 210.515625 C 159.003906 210.515625 158.894531 210.558594 158.808594 210.648438 C 158.71875 210.734375 158.675781 210.84375 158.675781 210.96875 C 158.675781 211.09375 158.71875 211.199219 158.808594 211.289062 C 158.894531 211.378906 159.003906 211.421875 159.128906 211.421875 C 159.253906 211.421875 159.363281 211.378906 159.449219 211.289062 C 159.539062 211.199219 159.582031 211.09375 159.582031 210.96875 Z M 162.351562 210.246094 C 162.351562 210.121094 162.308594 210.015625 162.21875 209.925781 C 162.132812 209.835938 162.023438 209.792969 161.898438 209.792969 C 161.773438 209.792969 161.664062 209.835938 161.578125 209.925781 C 161.488281 210.015625 161.445312 210.121094 161.445312 210.246094 C 161.445312 210.371094 161.488281 210.480469 161.578125 210.566406 C 161.664062 210.65625 161.773438 210.699219 161.898438 210.699219 C 162.023438 210.699219 162.132812 210.65625 162.21875 210.566406 C 162.308594 210.480469 162.351562 210.371094 162.351562 210.246094 Z M 165.121094 209.527344 C 165.121094 209.402344 165.078125 209.292969 164.988281 209.207031 C 164.902344 209.117188 164.792969 209.074219 164.667969 209.074219 C 164.542969 209.074219 164.433594 209.117188 164.347656 209.207031 C 164.257812 209.292969 164.214844 209.402344 164.214844 209.527344 C 164.214844 209.652344 164.257812 209.757812 164.347656 209.847656 C 164.433594 209.9375 164.542969 209.980469 164.667969 209.980469 C 164.792969 209.980469 164.902344 209.9375 164.988281 209.847656 C 165.078125 209.757812 165.121094 209.652344 165.121094 209.527344 Z M 167.890625 208.804688 C 167.890625 208.679688 167.847656 208.574219 167.757812 208.484375 C 167.671875 208.398438 167.5625 208.351562 167.4375 208.351562 C 167.3125 208.351562 167.203125 208.398438 167.117188 208.484375 C 167.027344 208.574219 166.984375 208.679688 166.984375 208.804688 C 166.984375 208.929688 167.027344 209.039062 167.117188 209.128906 C 167.203125 209.214844 167.3125 209.261719 167.4375 209.261719 C 167.5625 209.261719 167.671875 209.214844 167.757812 209.128906 C 167.847656 209.039062 167.890625 208.929688 167.890625 208.804688 Z M 170.660156 208.085938 C 170.660156 207.960938 170.617188 207.855469 170.527344 207.765625 C 170.441406 207.675781 170.332031 207.632812 170.207031 207.632812 C 170.082031 207.632812 169.972656 207.675781 169.886719 207.765625 C 169.796875 207.855469 169.753906 207.960938 169.753906 208.085938 C 169.753906 208.210938 169.796875 208.316406 169.886719 208.40625 C 169.972656 208.496094 170.082031 208.539062 170.207031 208.539062 C 170.332031 208.539062 170.441406 208.496094 170.527344 208.40625 C 170.617188 208.316406 170.660156 208.210938 170.660156 208.085938 Z M 173.429688 207.367188 C 173.429688 207.238281 173.386719 207.132812 173.296875 207.042969 C 173.210938 206.957031 173.101562 206.910156 172.976562 206.910156 C 172.851562 206.910156 172.742188 206.957031 172.65625 207.042969 C 172.566406 207.132812 172.523438 207.238281 172.523438 207.367188 C 172.523438 207.492188 172.566406 207.597656 172.65625 207.6875 C 172.742188 207.773438 172.851562 207.820312 172.976562 207.820312 C 173.101562 207.820312 173.210938 207.773438 173.296875 207.6875 C 173.386719 207.597656 173.429688 207.492188 173.429688 207.367188 Z M 173.429688 207.367188 " fill-opacity="1" fill-rule="nonzero"/><path fill="#e9c261" d="M 180.554688 204.75 C 180.554688 204.625 180.511719 204.515625 180.421875 204.429688 C 180.332031 204.339844 180.226562 204.296875 180.101562 204.296875 C 179.976562 204.296875 179.867188 204.339844 179.78125 204.429688 C 179.691406 204.515625 179.648438 204.625 179.648438 204.75 C 179.648438 204.875 179.691406 204.980469 179.78125 205.070312 C 179.867188 205.160156 179.976562 205.203125 180.101562 205.203125 C 180.226562 205.203125 180.332031 205.160156 180.421875 205.070312 C 180.511719 204.980469 180.554688 204.875 180.554688 204.75 Z M 182.945312 203.179688 C 182.945312 203.054688 182.902344 202.945312 182.8125 202.859375 C 182.726562 202.769531 182.617188 202.722656 182.492188 202.722656 C 182.367188 202.722656 182.257812 202.769531 182.171875 202.859375 C 182.082031 202.945312 182.039062 203.054688 182.039062 203.179688 C 182.039062 203.304688 182.082031 203.410156 182.171875 203.5 C 182.257812 203.585938 182.367188 203.632812 182.492188 203.632812 C 182.617188 203.632812 182.726562 203.585938 182.8125 203.5 C 182.902344 203.410156 182.945312 203.304688 182.945312 203.179688 Z M 185.335938 201.609375 C 185.335938 201.480469 185.292969 201.375 185.203125 201.285156 C 185.117188 201.199219 185.007812 201.152344 184.882812 201.152344 C 184.757812 201.152344 184.648438 201.199219 184.5625 201.285156 C 184.472656 201.375 184.429688 201.480469 184.429688 201.609375 C 184.429688 201.734375 184.472656 201.839844 184.5625 201.929688 C 184.648438 202.015625 184.757812 202.0625 184.882812 202.0625 C 185.007812 202.0625 185.117188 202.015625 185.203125 201.929688 C 185.292969 201.839844 185.335938 201.734375 185.335938 201.609375 Z M 187.726562 200.035156 C 187.726562 199.910156 187.683594 199.804688 187.59375 199.714844 C 187.507812 199.628906 187.398438 199.582031 187.273438 199.582031 C 187.148438 199.582031 187.042969 199.628906 186.953125 199.714844 C 186.863281 199.804688 186.820312 199.910156 186.820312 200.035156 C 186.820312 200.164062 186.863281 200.269531 186.953125 200.359375 C 187.042969 200.445312 187.148438 200.492188 187.273438 200.492188 C 187.398438 200.492188 187.507812 200.445312 187.59375 200.359375 C 187.683594 200.269531 187.726562 200.164062 187.726562 200.035156 Z M 190.121094 198.464844 C 190.121094 198.339844 190.074219 198.234375 189.984375 198.144531 C 189.898438 198.058594 189.789062 198.011719 189.664062 198.011719 C 189.539062 198.011719 189.433594 198.058594 189.34375 198.144531 C 189.253906 198.234375 189.210938 198.339844 189.210938 198.464844 C 189.210938 198.589844 189.253906 198.699219 189.34375 198.785156 C 189.433594 198.875 189.539062 198.917969 189.664062 198.917969 C 189.789062 198.917969 189.898438 198.875 189.984375 198.785156 C 190.074219 198.699219 190.121094 198.589844 190.121094 198.464844 Z M 192.511719 196.894531 C 192.511719 196.769531 192.464844 196.664062 192.375 196.574219 C 192.289062 196.484375 192.179688 196.441406 192.054688 196.441406 C 191.929688 196.441406 191.824219 196.484375 191.734375 196.574219 C 191.644531 196.664062 191.601562 196.769531 191.601562 196.894531 C 191.601562 197.019531 191.644531 197.128906 191.734375 197.214844 C 191.824219 197.304688 191.929688 197.347656 192.054688 197.347656 C 192.179688 197.347656 192.289062 197.304688 192.375 197.214844 C 192.464844 197.128906 192.511719 197.019531 192.511719 196.894531 Z M 194.902344 195.324219 C 194.902344 195.199219 194.855469 195.09375 194.769531 195.003906 C 194.679688 194.914062 194.570312 194.871094 194.445312 194.871094 C 194.320312 194.871094 194.214844 194.914062 194.125 195.003906 C 194.035156 195.09375 193.992188 195.199219 193.992188 195.324219 C 193.992188 195.449219 194.035156 195.558594 194.125 195.644531 C 194.214844 195.734375 194.320312 195.777344 194.445312 195.777344 C 194.570312 195.777344 194.679688 195.734375 194.769531 195.644531 C 194.855469 195.558594 194.902344 195.449219 194.902344 195.324219 Z M 197.292969 193.753906 C 197.292969 193.628906 197.246094 193.523438 197.160156 193.433594 C 197.070312 193.34375 196.960938 193.300781 196.835938 193.300781 C 196.710938 193.300781 196.605469 193.34375 196.515625 193.433594 C 196.425781 193.523438 196.382812 193.628906 196.382812 193.753906 C 196.382812 193.878906 196.425781 193.984375 196.515625 194.074219 C 196.605469 194.164062 196.710938 194.207031 196.835938 194.207031 C 196.960938 194.207031 197.070312 194.164062 197.160156 194.074219 C 197.246094 193.984375 197.292969 193.878906 197.292969 193.753906 Z M 197.292969 193.753906 " fill-opacity="1" fill-rule="nonzero"/><path fill="#e9c261" d="M 204.003906 188.398438 C 204.003906 188.273438 203.960938 188.164062 203.871094 188.078125 C 203.78125 187.988281 203.675781 187.945312 203.550781 187.945312 C 203.421875 187.945312 203.316406 187.988281 203.226562 188.078125 C 203.140625 188.164062 203.09375 188.273438 203.09375 188.398438 C 203.09375 188.523438 203.140625 188.628906 203.226562 188.71875 C 203.316406 188.808594 203.421875 188.851562 203.550781 188.851562 C 203.675781 188.851562 203.78125 188.808594 203.871094 188.71875 C 203.960938 188.628906 204.003906 188.523438 204.003906 188.398438 Z M 205.339844 185.871094 C 205.339844 185.746094 205.296875 185.640625 205.207031 185.550781 C 205.121094 185.460938 205.011719 185.417969 204.886719 185.417969 C 204.761719 185.417969 204.65625 185.460938 204.566406 185.550781 C 204.476562 185.640625 204.433594 185.746094 204.433594 185.871094 C 204.433594 185.996094 204.476562 186.105469 204.566406 186.191406 C 204.65625 186.28125 204.761719 186.324219 204.886719 186.324219 C 205.011719 186.324219 205.121094 186.28125 205.207031 186.191406 C 205.296875 186.105469 205.339844 185.996094 205.339844 185.871094 Z M 206.679688 183.347656 C 206.679688 183.222656 206.636719 183.113281 206.546875 183.023438 C 206.457031 182.9375 206.351562 182.890625 206.226562 182.890625 C 206.101562 182.890625 205.992188 182.9375 205.902344 183.023438 C 205.816406 183.113281 205.769531 183.222656 205.769531 183.347656 C 205.769531 183.472656 205.816406 183.578125 205.902344 183.667969 C 205.992188 183.753906 206.101562 183.800781 206.226562 183.800781 C 206.351562 183.800781 206.457031 183.753906 206.546875 183.667969 C 206.636719 183.578125 206.679688 183.472656 206.679688 183.347656 Z M 208.019531 180.820312 C 208.019531 180.695312 207.972656 180.585938 207.882812 180.5 C 207.796875 180.410156 207.6875 180.367188 207.5625 180.367188 C 207.4375 180.367188 207.332031 180.410156 207.242188 180.5 C 207.152344 180.585938 207.109375 180.695312 207.109375 180.820312 C 207.109375 180.945312 207.152344 181.050781 207.242188 181.140625 C 207.332031 181.230469 207.4375 181.273438 207.5625 181.273438 C 207.6875 181.273438 207.796875 181.230469 207.882812 181.140625 C 207.972656 181.050781 208.019531 180.945312 208.019531 180.820312 Z M 209.355469 178.292969 C 209.355469 178.167969 209.3125 178.0625 209.222656 177.972656 C 209.132812 177.882812 209.027344 177.839844 208.902344 177.839844 C 208.777344 177.839844 208.667969 177.882812 208.578125 177.972656 C 208.492188 178.0625 208.445312 178.167969 208.445312 178.292969 C 208.445312 178.417969 208.492188 178.527344 208.578125 178.613281 C 208.667969 178.703125 208.777344 178.746094 208.902344 178.746094 C 209.027344 178.746094 209.132812 178.703125 209.222656 178.613281 C 209.3125 178.527344 209.355469 178.417969 209.355469 178.292969 Z M 210.695312 175.769531 C 210.695312 175.644531 210.648438 175.535156 210.5625 175.445312 C 210.472656 175.359375 210.363281 175.3125 210.238281 175.3125 C 210.113281 175.3125 210.007812 175.359375 209.917969 175.445312 C 209.828125 175.535156 209.785156 175.644531 209.785156 175.769531 C 209.785156 175.894531 209.828125 176 209.917969 176.089844 C 210.007812 176.175781 210.113281 176.222656 210.238281 176.222656 C 210.363281 176.222656 210.472656 176.175781 210.5625 176.089844 C 210.648438 176 210.695312 175.894531 210.695312 175.769531 Z M 212.03125 173.242188 C 212.03125 173.117188 211.988281 173.007812 211.898438 172.921875 C 211.808594 172.832031 211.703125 172.789062 211.578125 172.789062 C 211.453125 172.789062 211.34375 172.832031 211.257812 172.921875 C 211.167969 173.007812 211.121094 173.117188 211.121094 173.242188 C 211.121094 173.367188 211.167969 173.472656 211.257812 173.5625 C 211.34375 173.652344 211.453125 173.695312 211.578125 173.695312 C 211.703125 173.695312 211.808594 173.652344 211.898438 173.5625 C 211.988281 173.472656 212.03125 173.367188 212.03125 173.242188 Z M 213.371094 170.714844 C 213.371094 170.589844 213.324219 170.484375 213.238281 170.394531 C 213.148438 170.304688 213.039062 170.261719 212.914062 170.261719 C 212.789062 170.261719 212.683594 170.304688 212.59375 170.394531 C 212.503906 170.484375 212.460938 170.589844 212.460938 170.714844 C 212.460938 170.839844 212.503906 170.949219 212.59375 171.035156 C 212.683594 171.125 212.789062 171.167969 212.914062 171.167969 C 213.039062 171.167969 213.148438 171.125 213.238281 171.035156 C 213.324219 170.949219 213.371094 170.839844 213.371094 170.714844 Z M 214.707031 168.191406 C 214.707031 168.066406 214.664062 167.957031 214.574219 167.867188 C 214.484375 167.78125 214.378906 167.734375 214.253906 167.734375 C 214.128906 167.734375 214.019531 167.78125 213.933594 167.867188 C 213.84375 167.957031 213.800781 168.066406 213.800781 168.191406 C 213.800781 168.316406 213.84375 168.421875 213.933594 168.511719 C 214.019531 168.597656 214.128906 168.644531 214.253906 168.644531 C 214.378906 168.644531 214.484375 168.597656 214.574219 168.511719 C 214.664062 168.421875 214.707031 168.316406 214.707031 168.191406 Z M 216.046875 165.664062 C 216.046875 165.539062 216 165.433594 215.914062 165.34375 C 215.824219 165.253906 215.71875 165.210938 215.589844 165.210938 C 215.464844 165.210938 215.359375 165.253906 215.269531 165.34375 C 215.179688 165.433594 215.136719 165.539062 215.136719 165.664062 C 215.136719 165.789062 215.179688 165.894531 215.269531 165.984375 C 215.359375 166.074219 215.464844 166.117188 215.589844 166.117188 C 215.71875 166.117188 215.824219 166.074219 215.914062 165.984375 C 216 165.894531 216.046875 165.789062 216.046875 165.664062 Z M 217.382812 163.136719 C 217.382812 163.011719 217.339844 162.90625 217.25 162.816406 C 217.164062 162.726562 217.054688 162.683594 216.929688 162.683594 C 216.804688 162.683594 216.695312 162.726562 216.609375 162.816406 C 216.519531 162.90625 216.476562 163.011719 216.476562 163.136719 C 216.476562 163.261719 216.519531 163.371094 216.609375 163.457031 C 216.695312 163.546875 216.804688 163.589844 216.929688 163.589844 C 217.054688 163.589844 217.164062 163.546875 217.25 163.457031 C 217.339844 163.371094 217.382812 163.261719 217.382812 163.136719 Z M 218.722656 160.613281 C 218.722656 160.488281 218.675781 160.378906 218.589844 160.292969 C 218.5 160.203125 218.394531 160.15625 218.265625 160.15625 C 218.140625 160.15625 218.035156 160.203125 217.945312 160.292969 C 217.859375 160.378906 217.8125 160.488281 217.8125 160.613281 C 217.8125 160.738281 217.859375 160.84375 217.945312 160.933594 C 218.035156 161.019531 218.140625 161.066406 218.265625 161.066406 C 218.394531 161.066406 218.5 161.019531 218.589844 160.933594 C 218.675781 160.84375 218.722656 160.738281 218.722656 160.613281 Z M 220.058594 158.085938 C 220.058594 157.960938 220.015625 157.855469 219.925781 157.765625 C 219.839844 157.675781 219.730469 157.632812 219.605469 157.632812 C 219.480469 157.632812 219.371094 157.675781 219.285156 157.765625 C 219.195312 157.855469 219.152344 157.960938 219.152344 158.085938 C 219.152344 158.210938 219.195312 158.316406 219.285156 158.40625 C 219.371094 158.496094 219.480469 158.539062 219.605469 158.539062 C 219.730469 158.539062 219.839844 158.496094 219.925781 158.40625 C 220.015625 158.316406 220.058594 158.210938 220.058594 158.085938 Z M 221.398438 155.558594 C 221.398438 155.433594 221.355469 155.328125 221.265625 155.238281 C 221.175781 155.152344 221.070312 155.105469 220.945312 155.105469 C 220.816406 155.105469 220.710938 155.152344 220.621094 155.238281 C 220.535156 155.328125 220.488281 155.433594 220.488281 155.558594 C 220.488281 155.683594 220.535156 155.792969 220.621094 155.878906 C 220.710938 155.96875 220.816406 156.011719 220.945312 156.011719 C 221.070312 156.011719 221.175781 155.96875 221.265625 155.878906 C 221.355469 155.792969 221.398438 155.683594 221.398438 155.558594 Z M 222.734375 153.035156 C 222.734375 152.910156 222.691406 152.800781 222.601562 152.714844 C 222.515625 152.625 222.40625 152.582031 222.28125 152.578125 C 222.15625 152.582031 222.050781 152.625 221.960938 152.714844 C 221.871094 152.800781 221.828125 152.910156 221.828125 153.035156 C 221.828125 153.160156 221.871094 153.265625 221.960938 153.355469 C 222.050781 153.441406 222.15625 153.488281 222.28125 153.488281 C 222.40625 153.488281 222.515625 153.441406 222.601562 153.355469 C 222.691406 153.265625 222.734375 153.160156 222.734375 153.035156 Z M 224.074219 150.507812 C 224.074219 150.382812 224.03125 150.277344 223.941406 150.1875 C 223.851562 150.097656 223.746094 150.054688 223.621094 150.054688 C 223.492188 150.054688 223.386719 150.097656 223.296875 150.1875 C 223.210938 150.277344 223.164062 150.382812 223.164062 150.507812 C 223.164062 150.632812 223.210938 150.738281 223.296875 150.828125 C 223.386719 150.917969 223.492188 150.960938 223.621094 150.960938 C 223.746094 150.960938 223.851562 150.917969 223.941406 150.828125 C 224.03125 150.738281 224.074219 150.632812 224.074219 150.507812 Z M 225.410156 147.980469 C 225.410156 147.855469 225.367188 147.75 225.277344 147.660156 C 225.191406 147.574219 225.082031 147.527344 224.957031 147.527344 C 224.832031 147.527344 224.726562 147.574219 224.636719 147.660156 C 224.546875 147.75 224.503906 147.855469 224.503906 147.980469 C 224.503906 148.105469 224.546875 148.214844 224.636719 148.300781 C 224.726562 148.390625 224.832031 148.433594 224.957031 148.433594 C 225.082031 148.433594 225.191406 148.390625 225.277344 148.300781 C 225.367188 148.214844 225.410156 148.105469 225.410156 147.980469 Z M 226.75 145.457031 C 226.75 145.332031 226.707031 145.222656 226.617188 145.136719 C 226.527344 145.046875 226.421875 145.003906 226.296875 145.003906 C 226.171875 145.003906 226.0625 145.046875 225.972656 145.136719 C 225.886719 145.222656 225.839844 145.332031 225.839844 145.457031 C 225.839844 145.582031 225.886719 145.6875 225.972656 145.777344 C 226.0625 145.863281 226.171875 145.910156 226.296875 145.910156 C 226.421875 145.910156 226.527344 145.863281 226.617188 145.777344 C 226.707031 145.6875 226.75 145.582031 226.75 145.457031 Z M 228.089844 142.929688 C 228.089844 142.804688 228.042969 142.699219 227.953125 142.609375 C 227.867188 142.519531 227.757812 142.476562 227.632812 142.476562 C 227.507812 142.476562 227.402344 142.519531 227.3125 142.609375 C 227.222656 142.699219 227.179688 142.804688 227.179688 142.929688 C 227.179688 143.054688 227.222656 143.160156 227.3125 143.25 C 227.402344 143.339844 227.507812 143.382812 227.632812 143.382812 C 227.757812 143.382812 227.867188 143.339844 227.953125 143.25 C 228.042969 143.160156 228.089844 143.054688 228.089844 142.929688 Z M 228.089844 142.929688 " fill-opacity="1" fill-rule="nonzero"/><path fill="#e9c261" d="M 236.925781 141.0625 C 236.925781 140.9375 236.882812 140.832031 236.792969 140.742188 C 236.703125 140.652344 236.597656 140.609375 236.472656 140.609375 C 236.347656 140.609375 236.238281 140.652344 236.152344 140.742188 C 236.0625 140.832031 236.019531 140.9375 236.019531 141.0625 C 236.019531 141.1875 236.0625 141.292969 236.152344 141.382812 C 236.238281 141.472656 236.347656 141.515625 236.472656 141.515625 C 236.597656 141.515625 236.703125 141.472656 236.792969 141.382812 C 236.882812 141.292969 236.925781 141.1875 236.925781 141.0625 Z M 238.796875 143.226562 C 238.796875 143.101562 238.75 142.992188 238.664062 142.90625 C 238.574219 142.816406 238.46875 142.773438 238.339844 142.773438 C 238.214844 142.773438 238.109375 142.816406 238.019531 142.90625 C 237.929688 142.992188 237.886719 143.101562 237.886719 143.226562 C 237.886719 143.351562 237.929688 143.457031 238.019531 143.546875 C 238.109375 143.636719 238.214844 143.679688 238.339844 143.679688 C 238.46875 143.679688 238.574219 143.636719 238.664062 143.546875 C 238.75 143.457031 238.796875 143.351562 238.796875 143.226562 Z M 240.664062 145.390625 C 240.664062 145.265625 240.621094 145.15625 240.53125 145.070312 C 240.445312 144.980469 240.335938 144.9375 240.210938 144.9375 C 240.085938 144.9375 239.976562 144.980469 239.890625 145.070312 C 239.800781 145.15625 239.757812 145.265625 239.757812 145.390625 C 239.757812 145.515625 239.800781 145.621094 239.890625 145.710938 C 239.976562 145.800781 240.085938 145.84375 240.210938 145.84375 C 240.335938 145.84375 240.445312 145.800781 240.53125 145.710938 C 240.621094 145.621094 240.664062 145.515625 240.664062 145.390625 Z M 242.535156 147.554688 C 242.535156 147.429688 242.492188 147.320312 242.402344 147.234375 C 242.3125 147.144531 242.207031 147.101562 242.082031 147.101562 C 241.953125 147.101562 241.847656 147.144531 241.757812 147.234375 C 241.671875 147.320312 241.625 147.429688 241.625 147.554688 C 241.625 147.679688 241.671875 147.785156 241.757812 147.875 C 241.847656 147.964844 241.953125 148.007812 242.082031 148.007812 C 242.207031 148.007812 242.3125 147.964844 242.402344 147.875 C 242.492188 147.785156 242.535156 147.679688 242.535156 147.554688 Z M 244.40625 149.71875 C 244.402344 149.59375 244.359375 149.484375 244.269531 149.398438 C 244.183594 149.308594 244.074219 149.265625 243.949219 149.265625 C 243.824219 149.265625 243.71875 149.308594 243.628906 149.398438 C 243.539062 149.484375 243.496094 149.59375 243.496094 149.71875 C 243.496094 149.84375 243.539062 149.949219 243.628906 150.039062 C 243.71875 150.125 243.824219 150.171875 243.949219 150.171875 C 244.074219 150.171875 244.183594 150.125 244.269531 150.039062 C 244.359375 149.949219 244.402344 149.84375 244.40625 149.71875 Z M 246.273438 151.882812 C 246.273438 151.757812 246.230469 151.648438 246.140625 151.558594 C 246.050781 151.472656 245.945312 151.425781 245.820312 151.425781 C 245.695312 151.425781 245.585938 151.472656 245.496094 151.558594 C 245.410156 151.648438 245.363281 151.757812 245.363281 151.882812 C 245.363281 152.007812 245.410156 152.113281 245.496094 152.203125 C 245.585938 152.289062 245.695312 152.335938 245.820312 152.335938 C 245.945312 152.335938 246.050781 152.289062 246.140625 152.203125 C 246.230469 152.113281 246.273438 152.007812 246.273438 151.882812 Z M 248.144531 154.046875 C 248.144531 153.917969 248.097656 153.8125 248.011719 153.722656 C 247.921875 153.636719 247.8125 153.589844 247.6875 153.589844 C 247.5625 153.589844 247.457031 153.636719 247.367188 153.722656 C 247.277344 153.8125 247.234375 153.917969 247.234375 154.046875 C 247.234375 154.171875 247.277344 154.277344 247.367188 154.367188 C 247.457031 154.453125 247.5625 154.5 247.6875 154.5 C 247.8125 154.5 247.921875 154.453125 248.011719 154.367188 C 248.097656 154.277344 248.144531 154.171875 248.144531 154.046875 Z M 250.011719 156.207031 C 250.011719 156.082031 249.96875 155.976562 249.878906 155.886719 C 249.789062 155.800781 249.683594 155.753906 249.558594 155.753906 C 249.433594 155.753906 249.324219 155.800781 249.238281 155.886719 C 249.148438 155.976562 249.105469 156.082031 249.105469 156.207031 C 249.105469 156.335938 249.148438 156.441406 249.238281 156.53125 C 249.324219 156.617188 249.433594 156.664062 249.558594 156.664062 C 249.683594 156.664062 249.789062 156.617188 249.878906 156.53125 C 249.96875 156.441406 250.011719 156.335938 250.011719 156.207031 Z M 251.882812 158.371094 C 251.882812 158.246094 251.835938 158.140625 251.75 158.050781 C 251.660156 157.964844 251.554688 157.917969 251.425781 157.917969 C 251.300781 157.917969 251.195312 157.964844 251.105469 158.050781 C 251.015625 158.140625 250.972656 158.246094 250.972656 158.371094 C 250.972656 158.496094 251.015625 158.605469 251.105469 158.695312 C 251.195312 158.78125 251.300781 158.828125 251.425781 158.828125 C 251.554688 158.828125 251.660156 158.78125 251.75 158.695312 C 251.835938 158.605469 251.882812 158.496094 251.882812 158.371094 Z M 253.75 160.535156 C 253.75 160.410156 253.707031 160.304688 253.617188 160.214844 C 253.53125 160.125 253.421875 160.082031 253.296875 160.082031 C 253.171875 160.082031 253.0625 160.125 252.976562 160.214844 C 252.886719 160.304688 252.84375 160.410156 252.84375 160.535156 C 252.84375 160.660156 252.886719 160.769531 252.976562 160.855469 C 253.0625 160.945312 253.171875 160.988281 253.296875 160.988281 C 253.421875 160.988281 253.53125 160.945312 253.617188 160.855469 C 253.707031 160.769531 253.75 160.660156 253.75 160.535156 Z M 253.75 160.535156 " fill-opacity="1" fill-rule="nonzero"/><path fill="#e9c261" d="M 255.277344 168.890625 C 255.277344 168.765625 255.230469 168.65625 255.144531 168.570312 C 255.054688 168.480469 254.949219 168.4375 254.820312 168.4375 C 254.695312 168.4375 254.589844 168.480469 254.5 168.570312 C 254.410156 168.65625 254.367188 168.765625 254.367188 168.890625 C 254.367188 169.015625 254.410156 169.121094 254.5 169.210938 C 254.589844 169.300781 254.695312 169.34375 254.820312 169.34375 C 254.949219 169.34375 255.054688 169.300781 255.144531 169.210938 C 255.230469 169.121094 255.277344 169.015625 255.277344 168.890625 Z M 253.65625 171.246094 C 253.65625 171.121094 253.613281 171.011719 253.523438 170.925781 C 253.433594 170.835938 253.328125 170.792969 253.203125 170.792969 C 253.074219 170.792969 252.96875 170.835938 252.878906 170.925781 C 252.792969 171.011719 252.746094 171.121094 252.746094 171.246094 C 252.746094 171.371094 252.792969 171.476562 252.878906 171.566406 C 252.96875 171.65625 253.074219 171.699219 253.203125 171.699219 C 253.328125 171.699219 253.433594 171.65625 253.523438 171.566406 C 253.613281 171.476562 253.65625 171.371094 253.65625 171.246094 Z M 252.035156 173.601562 C 252.035156 173.476562 251.992188 173.367188 251.902344 173.28125 C 251.8125 173.191406 251.707031 173.148438 251.582031 173.148438 C 251.457031 173.148438 251.347656 173.191406 251.257812 173.28125 C 251.171875 173.367188 251.125 173.476562 251.125 173.601562 C 251.125 173.726562 251.171875 173.832031 251.257812 173.921875 C 251.347656 174.011719 251.457031 174.054688 251.582031 174.054688 C 251.707031 174.054688 251.8125 174.011719 251.902344 173.921875 C 251.992188 173.832031 252.035156 173.726562 252.035156 173.601562 Z M 250.414062 175.957031 C 250.414062 175.832031 250.371094 175.722656 250.28125 175.636719 C 250.191406 175.546875 250.085938 175.503906 249.960938 175.503906 C 249.835938 175.503906 249.726562 175.546875 249.640625 175.636719 C 249.550781 175.722656 249.503906 175.832031 249.503906 175.957031 C 249.503906 176.082031 249.550781 176.1875 249.640625 176.277344 C 249.726562 176.367188 249.835938 176.410156 249.960938 176.410156 C 250.085938 176.410156 250.191406 176.367188 250.28125 176.277344 C 250.371094 176.1875 250.414062 176.082031 250.414062 175.957031 Z M 248.792969 178.3125 C 248.792969 178.1875 248.75 178.078125 248.660156 177.992188 C 248.570312 177.902344 248.464844 177.855469 248.339844 177.855469 C 248.214844 177.855469 248.105469 177.902344 248.019531 177.992188 C 247.929688 178.078125 247.886719 178.1875 247.886719 178.3125 C 247.886719 178.4375 247.929688 178.542969 248.019531 178.632812 C 248.105469 178.71875 248.214844 178.765625 248.339844 178.765625 C 248.464844 178.765625 248.570312 178.71875 248.660156 178.632812 C 248.75 178.542969 248.792969 178.4375 248.792969 178.3125 Z M 247.171875 180.667969 C 247.171875 180.542969 247.128906 180.433594 247.039062 180.34375 C 246.953125 180.257812 246.84375 180.210938 246.71875 180.210938 C 246.59375 180.210938 246.484375 180.257812 246.398438 180.34375 C 246.308594 180.433594 246.265625 180.542969 246.265625 180.667969 C 246.265625 180.792969 246.308594 180.898438 246.398438 180.988281 C 246.484375 181.074219 246.59375 181.121094 246.71875 181.121094 C 246.84375 181.121094 246.953125 181.074219 247.039062 180.988281 C 247.128906 180.898438 247.171875 180.792969 247.171875 180.667969 Z M 245.554688 183.023438 C 245.554688 182.894531 245.507812 182.789062 245.417969 182.699219 C 245.332031 182.613281 245.222656 182.566406 245.097656 182.566406 C 244.972656 182.566406 244.867188 182.613281 244.777344 182.699219 C 244.6875 182.789062 244.644531 182.894531 244.644531 183.023438 C 244.644531 183.148438 244.6875 183.253906 244.777344 183.34375 C 244.867188 183.429688 244.972656 183.476562 245.097656 183.476562 C 245.222656 183.476562 245.332031 183.429688 245.417969 183.34375 C 245.507812 183.253906 245.554688 183.148438 245.554688 183.023438 Z M 243.933594 185.375 C 243.933594 185.25 243.886719 185.144531 243.800781 185.054688 C 243.710938 184.96875 243.601562 184.921875 243.476562 184.921875 C 243.351562 184.921875 243.246094 184.96875 243.15625 185.054688 C 243.066406 185.144531 243.023438 185.25 243.023438 185.375 C 243.023438 185.503906 243.066406 185.609375 243.15625 185.699219 C 243.246094 185.785156 243.351562 185.832031 243.476562 185.832031 C 243.601562 185.832031 243.710938 185.785156 243.800781 185.699219 C 243.886719 185.609375 243.933594 185.503906 243.933594 185.375 Z M 242.3125 187.730469 C 242.3125 187.605469 242.265625 187.5 242.179688 187.410156 C 242.089844 187.324219 241.984375 187.277344 241.855469 187.277344 C 241.730469 187.277344 241.625 187.324219 241.535156 187.410156 C 241.445312 187.5 241.402344 187.605469 241.402344 187.730469 C 241.402344 187.859375 241.445312 187.964844 241.535156 188.054688 C 241.625 188.140625 241.730469 188.1875 241.855469 188.1875 C 241.984375 188.1875 242.089844 188.140625 242.179688 188.054688 C 242.265625 187.964844 242.3125 187.859375 242.3125 187.730469 Z M 240.691406 190.085938 C 240.691406 189.960938 240.648438 189.855469 240.558594 189.765625 C 240.46875 189.679688 240.363281 189.632812 240.238281 189.632812 C 240.109375 189.632812 240.003906 189.679688 239.914062 189.765625 C 239.828125 189.855469 239.78125 189.960938 239.78125 190.085938 C 239.78125 190.210938 239.828125 190.320312 239.914062 190.410156 C 240.003906 190.496094 240.109375 190.542969 240.238281 190.542969 C 240.363281 190.542969 240.46875 190.496094 240.558594 190.410156 C 240.648438 190.320312 240.691406 190.210938 240.691406 190.085938 Z M 239.070312 192.441406 C 239.070312 192.316406 239.027344 192.210938 238.9375 192.121094 C 238.847656 192.035156 238.742188 191.988281 238.617188 191.988281 C 238.492188 191.988281 238.382812 192.035156 238.292969 192.121094 C 238.207031 192.210938 238.160156 192.316406 238.160156 192.441406 C 238.160156 192.566406 238.207031 192.675781 238.292969 192.761719 C 238.382812 192.851562 238.492188 192.898438 238.617188 192.898438 C 238.742188 192.898438 238.847656 192.851562 238.9375 192.761719 C 239.027344 192.675781 239.070312 192.566406 239.070312 192.441406 Z M 237.449219 194.796875 C 237.449219 194.671875 237.40625 194.566406 237.316406 194.476562 C 237.226562 194.386719 237.121094 194.34375 236.996094 194.34375 C 236.871094 194.34375 236.761719 194.386719 236.671875 194.476562 C 236.585938 194.566406 236.539062 194.671875 236.539062 194.796875 C 236.539062 194.921875 236.585938 195.03125 236.671875 195.117188 C 236.761719 195.207031 236.871094 195.25 236.996094 195.25 C 237.121094 195.25 237.226562 195.207031 237.316406 195.117188 C 237.40625 195.03125 237.449219 194.921875 237.449219 194.796875 Z M 235.828125 197.152344 C 235.828125 197.027344 235.785156 196.921875 235.695312 196.832031 C 235.605469 196.742188 235.5 196.699219 235.375 196.699219 C 235.25 196.699219 235.140625 196.742188 235.054688 196.832031 C 234.964844 196.921875 234.921875 197.027344 234.921875 197.152344 C 234.921875 197.277344 234.964844 197.386719 235.054688 197.472656 C 235.140625 197.5625 235.25 197.605469 235.375 197.605469 C 235.5 197.605469 235.605469 197.5625 235.695312 197.472656 C 235.785156 197.386719 235.828125 197.277344 235.828125 197.152344 Z M 234.207031 199.507812 C 234.207031 199.382812 234.164062 199.277344 234.074219 199.1875 C 233.988281 199.097656 233.878906 199.054688 233.753906 199.054688 C 233.628906 199.054688 233.519531 199.097656 233.433594 199.1875 C 233.34375 199.277344 233.300781 199.382812 233.300781 199.507812 C 233.300781 199.632812 233.34375 199.742188 233.433594 199.828125 C 233.519531 199.917969 233.628906 199.960938 233.753906 199.960938 C 233.878906 199.960938 233.988281 199.917969 234.074219 199.828125 C 234.164062 199.742188 234.207031 199.632812 234.207031 199.507812 Z M 232.585938 201.863281 C 232.585938 201.738281 232.542969 201.632812 232.453125 201.542969 C 232.367188 201.453125 232.257812 201.410156 232.132812 201.410156 C 232.007812 201.410156 231.902344 201.453125 231.8125 201.542969 C 231.722656 201.632812 231.679688 201.738281 231.679688 201.863281 C 231.679688 201.988281 231.722656 202.097656 231.8125 202.183594 C 231.902344 202.273438 232.007812 202.316406 232.132812 202.316406 C 232.257812 202.316406 232.367188 202.273438 232.453125 202.183594 C 232.542969 202.097656 232.585938 201.988281 232.585938 201.863281 Z M 230.96875 204.21875 C 230.96875 204.09375 230.921875 203.988281 230.835938 203.898438 C 230.746094 203.808594 230.636719 203.765625 230.511719 203.765625 C 230.386719 203.765625 230.28125 203.808594 230.191406 203.898438 C 230.101562 203.988281 230.058594 204.09375 230.058594 204.21875 C 230.058594 204.34375 230.101562 204.453125 230.191406 204.539062 C 230.28125 204.628906 230.386719 204.671875 230.511719 204.671875 C 230.636719 204.671875 230.746094 204.628906 230.835938 204.539062 C 230.921875 204.453125 230.96875 204.34375 230.96875 204.21875 Z M 229.347656 206.574219 C 229.347656 206.449219 229.300781 206.34375 229.214844 206.253906 C 229.125 206.164062 229.015625 206.121094 228.890625 206.121094 C 228.765625 206.121094 228.660156 206.164062 228.570312 206.253906 C 228.480469 206.34375 228.4375 206.449219 228.4375 206.574219 C 228.4375 206.699219 228.480469 206.808594 228.570312 206.894531 C 228.660156 206.984375 228.765625 207.027344 228.890625 207.027344 C 229.015625 207.027344 229.125 206.984375 229.214844 206.894531 C 229.300781 206.808594 229.347656 206.699219 229.347656 206.574219 Z M 229.347656 206.574219 " fill-opacity="1" fill-rule="nonzero"/><path fill="#e9c261" d="M 205.625 192.667969 C 205.625 192.542969 205.582031 192.4375 205.492188 192.347656 C 205.40625 192.261719 205.296875 192.214844 205.171875 192.214844 C 205.046875 192.214844 204.9375 192.261719 204.851562 192.347656 C 204.761719 192.4375 204.71875 192.542969 204.71875 192.667969 C 204.71875 192.792969 204.761719 192.902344 204.851562 192.992188 C 204.9375 193.078125 205.046875 193.125 205.171875 193.125 C 205.296875 193.125 205.40625 193.078125 205.492188 192.992188 C 205.582031 192.902344 205.625 192.792969 205.625 192.667969 Z M 208.066406 194.167969 C 208.066406 194.039062 208.019531 193.933594 207.929688 193.84375 C 207.84375 193.757812 207.734375 193.710938 207.609375 193.710938 C 207.484375 193.710938 207.378906 193.757812 207.289062 193.84375 C 207.199219 193.933594 207.15625 194.039062 207.15625 194.167969 C 207.15625 194.292969 207.199219 194.398438 207.289062 194.488281 C 207.378906 194.574219 207.484375 194.621094 207.609375 194.621094 C 207.734375 194.621094 207.84375 194.574219 207.929688 194.488281 C 208.019531 194.398438 208.066406 194.292969 208.066406 194.167969 Z M 210.503906 195.664062 C 210.503906 195.539062 210.457031 195.429688 210.371094 195.34375 C 210.28125 195.253906 210.171875 195.207031 210.046875 195.207031 C 209.921875 195.207031 209.816406 195.253906 209.726562 195.34375 C 209.636719 195.429688 209.59375 195.539062 209.59375 195.664062 C 209.59375 195.789062 209.636719 195.894531 209.726562 195.984375 C 209.816406 196.070312 209.921875 196.117188 210.046875 196.117188 C 210.171875 196.117188 210.28125 196.070312 210.371094 195.984375 C 210.457031 195.894531 210.503906 195.789062 210.503906 195.664062 Z M 212.941406 197.160156 C 212.941406 197.035156 212.894531 196.925781 212.808594 196.839844 C 212.71875 196.75 212.613281 196.707031 212.488281 196.707031 C 212.359375 196.707031 212.253906 196.75 212.164062 196.839844 C 212.078125 196.925781 212.03125 197.035156 212.03125 197.160156 C 212.03125 197.285156 212.078125 197.390625 212.164062 197.480469 C 212.253906 197.570312 212.359375 197.613281 212.488281 197.613281 C 212.613281 197.613281 212.71875 197.570312 212.808594 197.480469 C 212.894531 197.390625 212.941406 197.285156 212.941406 197.160156 Z M 215.378906 198.65625 C 215.378906 198.53125 215.335938 198.421875 215.246094 198.335938 C 215.15625 198.246094 215.050781 198.203125 214.925781 198.203125 C 214.800781 198.203125 214.691406 198.246094 214.601562 198.335938 C 214.515625 198.421875 214.46875 198.53125 214.46875 198.65625 C 214.46875 198.78125 214.515625 198.886719 214.601562 198.976562 C 214.691406 199.066406 214.800781 199.109375 214.925781 199.109375 C 215.050781 199.109375 215.15625 199.066406 215.246094 198.976562 C 215.335938 198.886719 215.378906 198.78125 215.378906 198.65625 Z M 217.816406 200.152344 C 217.816406 200.027344 217.773438 199.921875 217.683594 199.832031 C 217.59375 199.742188 217.488281 199.699219 217.363281 199.699219 C 217.238281 199.699219 217.128906 199.742188 217.042969 199.832031 C 216.953125 199.921875 216.910156 200.027344 216.910156 200.152344 C 216.910156 200.277344 216.953125 200.382812 217.042969 200.472656 C 217.128906 200.5625 217.238281 200.605469 217.363281 200.605469 C 217.488281 200.605469 217.59375 200.5625 217.683594 200.472656 C 217.773438 200.382812 217.816406 200.277344 217.816406 200.152344 Z M 220.253906 201.648438 C 220.253906 201.523438 220.210938 201.417969 220.121094 201.328125 C 220.035156 201.238281 219.925781 201.195312 219.800781 201.195312 C 219.675781 201.195312 219.566406 201.238281 219.480469 201.328125 C 219.390625 201.417969 219.347656 201.523438 219.347656 201.648438 C 219.347656 201.773438 219.390625 201.882812 219.480469 201.96875 C 219.566406 202.058594 219.675781 202.101562 219.800781 202.101562 C 219.925781 202.101562 220.035156 202.058594 220.121094 201.96875 C 220.210938 201.882812 220.253906 201.773438 220.253906 201.648438 Z M 222.695312 203.144531 C 222.695312 203.019531 222.648438 202.914062 222.558594 202.824219 C 222.472656 202.734375 222.363281 202.691406 222.238281 202.691406 C 222.113281 202.691406 222.007812 202.734375 221.917969 202.824219 C 221.828125 202.914062 221.785156 203.019531 221.785156 203.144531 C 221.785156 203.269531 221.828125 203.378906 221.917969 203.464844 C 222.007812 203.554688 222.113281 203.597656 222.238281 203.597656 C 222.363281 203.597656 222.472656 203.554688 222.558594 203.464844 C 222.648438 203.378906 222.695312 203.269531 222.695312 203.144531 Z M 222.695312 203.144531 " fill-opacity="1" fill-rule="nonzero"/><g transform="matrix(1, 0, 0, 1, 158, 146)"><g clip-path="url(#cb04514454)"><g fill="#3d56a5" fill-opacity="1"><g transform="translate(0.68542, 45.318736)"><g><path d="M 7.0625 0.234375 C 6.65625 0.234375 6.039062 0.21875 5.21875 0.1875 C 4.40625 0.15625 3.640625 0.09375 2.921875 0 C 2.554688 -0.0625 2.234375 -0.226562 1.953125 -0.5 C 1.671875 -0.78125 1.53125 -1.125 1.53125 -1.53125 C 1.53125 -4.101562 1.578125 -6.75 1.671875 -9.46875 C 1.765625 -12.195312 1.863281 -14.882812 1.96875 -17.53125 C 2.082031 -20.175781 2.195312 -22.660156 2.3125 -24.984375 C 2.4375 -27.304688 2.546875 -29.347656 2.640625 -31.109375 C 2.703125 -31.890625 3.15625 -32.351562 4 -32.5 C 4.613281 -32.625 5.175781 -32.691406 5.6875 -32.703125 C 6.195312 -32.722656 6.671875 -32.734375 7.109375 -32.734375 C 7.503906 -32.734375 8.070312 -32.71875 8.8125 -32.6875 C 9.5625 -32.65625 10.257812 -32.59375 10.90625 -32.5 C 11.28125 -32.46875 11.625 -32.3125 11.9375 -32.03125 C 12.25 -31.757812 12.359375 -31.40625 12.265625 -30.96875 C 12.109375 -30.101562 11.941406 -29.117188 11.765625 -28.015625 C 11.597656 -26.921875 11.515625 -25.878906 11.515625 -24.890625 C 11.515625 -23.585938 11.960938 -22.640625 12.859375 -22.046875 C 13.753906 -21.460938 14.726562 -21.171875 15.78125 -21.171875 C 18.539062 -21.171875 20.976562 -21.613281 23.09375 -22.5 C 25.21875 -23.382812 26.953125 -24.59375 28.296875 -26.125 C 29.648438 -27.65625 30.554688 -29.378906 31.015625 -31.296875 C 31.203125 -32.160156 31.640625 -32.609375 32.328125 -32.640625 C 33.003906 -32.703125 33.675781 -32.738281 34.34375 -32.75 C 35.007812 -32.769531 35.585938 -32.78125 36.078125 -32.78125 C 37.066406 -32.78125 38.257812 -32.734375 39.65625 -32.640625 C 40.09375 -32.609375 40.441406 -32.453125 40.703125 -32.171875 C 40.960938 -31.898438 41.09375 -31.546875 41.09375 -31.109375 C 41.0625 -29.222656 40.585938 -27.453125 39.671875 -25.796875 C 38.765625 -24.140625 37.210938 -22.679688 35.015625 -21.421875 C 32.816406 -20.171875 29.734375 -19.222656 25.765625 -18.578125 C 25.179688 -18.453125 24.894531 -18.226562 24.90625 -17.90625 C 24.925781 -17.582031 25.226562 -17.375 25.8125 -17.28125 C 29.9375 -16.75 33.28125 -15.816406 35.84375 -14.484375 C 38.414062 -13.148438 40.320312 -11.40625 41.5625 -9.25 C 42.800781 -7.101562 43.484375 -4.546875 43.609375 -1.578125 C 43.640625 -1.171875 43.515625 -0.820312 43.234375 -0.53125 C 42.953125 -0.238281 42.597656 -0.0625 42.171875 0 C 41.484375 0.125 40.820312 0.1875 40.1875 0.1875 C 39.550781 0.1875 38.925781 0.1875 38.3125 0.1875 C 37.9375 0.1875 37.429688 0.1875 36.796875 0.1875 C 36.160156 0.1875 35.519531 0.171875 34.875 0.140625 C 34.226562 0.109375 33.65625 0.0625 33.15625 0 C 32.351562 -0.09375 31.875 -0.554688 31.71875 -1.390625 C 31.4375 -3.242188 30.789062 -4.960938 29.78125 -6.546875 C 28.78125 -8.128906 27.5 -9.503906 25.9375 -10.671875 C 24.375 -11.847656 22.644531 -12.757812 20.75 -13.40625 C 18.863281 -14.0625 16.898438 -14.390625 14.859375 -14.390625 C 13.992188 -14.390625 13.21875 -14.070312 12.53125 -13.4375 C 11.851562 -12.800781 11.515625 -12.003906 11.515625 -11.046875 C 11.515625 -9.535156 11.660156 -7.910156 11.953125 -6.171875 C 12.253906 -4.441406 12.445312 -2.878906 12.53125 -1.484375 C 12.59375 -1.078125 12.484375 -0.734375 12.203125 -0.453125 C 11.929688 -0.179688 11.578125 -0.015625 11.140625 0.046875 C 10.773438 0.078125 10.320312 0.109375 9.78125 0.140625 C 9.238281 0.171875 8.710938 0.191406 8.203125 0.203125 C 7.691406 0.222656 7.3125 0.234375 7.0625 0.234375 Z M 7.0625 0.234375 "/></g></g></g><g fill="#3d56a5" fill-opacity="1"><g transform="translate(44.974219, 45.318736)"><g><path d="M 6.734375 0.234375 C 6.328125 0.234375 5.738281 0.207031 4.96875 0.15625 C 4.195312 0.113281 3.515625 0.0625 2.921875 0 C 2.523438 -0.0625 2.191406 -0.226562 1.921875 -0.5 C 1.660156 -0.78125 1.53125 -1.125 1.53125 -1.53125 C 1.53125 -4.101562 1.5625 -6.75 1.625 -9.46875 C 1.6875 -12.195312 1.765625 -14.875 1.859375 -17.5 C 1.953125 -20.132812 2.050781 -22.617188 2.15625 -24.953125 C 2.269531 -27.296875 2.359375 -29.347656 2.421875 -31.109375 C 2.453125 -31.484375 2.597656 -31.789062 2.859375 -32.03125 C 3.117188 -32.28125 3.453125 -32.4375 3.859375 -32.5 C 4.316406 -32.59375 4.847656 -32.65625 5.453125 -32.6875 C 6.054688 -32.71875 6.515625 -32.734375 6.828125 -32.734375 C 7.660156 -32.734375 8.539062 -32.65625 9.46875 -32.5 C 9.84375 -32.4375 10.160156 -32.28125 10.421875 -32.03125 C 10.679688 -31.789062 10.828125 -31.484375 10.859375 -31.109375 C 10.921875 -29.347656 11.003906 -27.296875 11.109375 -24.953125 C 11.222656 -22.617188 11.332031 -20.132812 11.4375 -17.5 C 11.550781 -14.875 11.640625 -12.195312 11.703125 -9.46875 C 11.765625 -6.75 11.796875 -4.101562 11.796875 -1.53125 C 11.796875 -1.125 11.65625 -0.773438 11.375 -0.484375 C 11.09375 -0.191406 10.769531 -0.015625 10.40625 0.046875 C 9.84375 0.109375 9.191406 0.15625 8.453125 0.1875 C 7.710938 0.21875 7.140625 0.234375 6.734375 0.234375 Z M 6.734375 0.234375 "/></g></g></g></g></g><g transform="matrix(1, 0, 0, 1, 114, 194)"><g clip-path="url(#8cd9276b0d)"><g clip-path="url(#7787a7c895)"><g fill="#3d56a5" fill-opacity="1"><g transform="translate(0.318889, 45.193811)"><g><path d="M 22.703125 0.234375 C 22.210938 0.234375 21.65625 0.222656 21.03125 0.203125 C 20.414062 0.191406 19.78125 0.125 19.125 0 C 18.539062 -0.09375 18.078125 -0.367188 17.734375 -0.828125 C 15.722656 -3.304688 13.679688 -6.144531 11.609375 -9.34375 C 9.535156 -12.550781 7.578125 -15.972656 5.734375 -19.609375 C 3.890625 -23.253906 2.269531 -26.960938 0.875 -30.734375 C 0.476562 -31.765625 0.867188 -32.351562 2.046875 -32.5 C 2.441406 -32.5625 2.988281 -32.613281 3.6875 -32.65625 C 4.382812 -32.707031 5.03125 -32.734375 5.625 -32.734375 C 6.332031 -32.734375 7.15625 -32.707031 8.09375 -32.65625 C 9.039062 -32.613281 9.796875 -32.5625 10.359375 -32.5 C 10.609375 -32.46875 10.832031 -32.390625 11.03125 -32.265625 C 11.226562 -32.148438 11.359375 -31.96875 11.421875 -31.71875 C 12.078125 -28.957031 12.9375 -26.195312 14 -23.4375 C 15.070312 -20.6875 16.222656 -18.144531 17.453125 -15.8125 C 18.691406 -13.476562 19.882812 -11.550781 21.03125 -10.03125 C 21.65625 -9.195312 22.222656 -8.78125 22.734375 -8.78125 C 23.242188 -8.78125 23.804688 -9.195312 24.421875 -10.03125 C 25.660156 -11.632812 26.890625 -13.601562 28.109375 -15.9375 C 29.335938 -18.28125 30.476562 -20.804688 31.53125 -23.515625 C 32.582031 -26.222656 33.429688 -28.957031 34.078125 -31.71875 C 34.140625 -31.96875 34.265625 -32.148438 34.453125 -32.265625 C 34.640625 -32.390625 34.84375 -32.46875 35.0625 -32.5 C 35.457031 -32.5625 35.945312 -32.597656 36.53125 -32.609375 C 37.125 -32.628906 37.691406 -32.644531 38.234375 -32.65625 C 38.773438 -32.675781 39.140625 -32.6875 39.328125 -32.6875 C 39.484375 -32.6875 39.835938 -32.6875 40.390625 -32.6875 C 40.953125 -32.6875 41.550781 -32.675781 42.1875 -32.65625 C 42.820312 -32.644531 43.28125 -32.625 43.5625 -32.59375 C 44.082031 -32.5625 44.425781 -32.382812 44.59375 -32.0625 C 44.769531 -31.738281 44.765625 -31.328125 44.578125 -30.828125 C 43.210938 -27.085938 41.601562 -23.378906 39.75 -19.703125 C 37.894531 -16.035156 35.9375 -12.59375 33.875 -9.375 C 31.8125 -6.15625 29.773438 -3.304688 27.765625 -0.828125 C 27.398438 -0.367188 26.9375 -0.09375 26.375 0 C 25.664062 0.125 25.007812 0.191406 24.40625 0.203125 C 23.800781 0.222656 23.234375 0.234375 22.703125 0.234375 Z M 22.703125 0.234375 "/></g></g></g></g><g fill="#3d56a5" fill-opacity="1"><g transform="translate(45.350476, 45.193811)"><g><path d="M 5.625 0.234375 C 5.03125 0.234375 4.382812 0.207031 3.6875 0.15625 C 2.988281 0.113281 2.425781 0.0625 2 0 C 1.4375 -0.09375 1.046875 -0.285156 0.828125 -0.578125 C 0.617188 -0.867188 0.632812 -1.265625 0.875 -1.765625 C 2.582031 -5.390625 4.398438 -8.976562 6.328125 -12.53125 C 8.265625 -16.09375 10.222656 -19.503906 12.203125 -22.765625 C 14.191406 -26.035156 16.050781 -29.003906 17.78125 -31.671875 C 18.0625 -32.128906 18.539062 -32.40625 19.21875 -32.5 C 19.875 -32.625 20.507812 -32.691406 21.125 -32.703125 C 21.75 -32.722656 22.304688 -32.734375 22.796875 -32.734375 C 23.328125 -32.734375 23.894531 -32.722656 24.5 -32.703125 C 25.101562 -32.691406 25.742188 -32.625 26.421875 -32.5 C 27.097656 -32.40625 27.578125 -32.128906 27.859375 -31.671875 C 29.628906 -29.003906 31.488281 -26.03125 33.4375 -22.75 C 35.382812 -19.46875 37.332031 -16.039062 39.28125 -12.46875 C 41.238281 -8.894531 43.050781 -5.296875 44.71875 -1.671875 C 44.96875 -1.171875 44.988281 -0.765625 44.78125 -0.453125 C 44.582031 -0.148438 44.222656 0.03125 43.703125 0.09375 C 43.421875 0.125 42.96875 0.144531 42.34375 0.15625 C 41.726562 0.175781 41.132812 0.191406 40.5625 0.203125 C 39.988281 0.222656 39.625 0.234375 39.46875 0.234375 C 39.25 0.234375 38.867188 0.222656 38.328125 0.203125 C 37.785156 0.191406 37.21875 0.160156 36.625 0.109375 C 36.039062 0.0664062 35.550781 0.03125 35.15625 0 C 34.9375 -0.03125 34.722656 -0.140625 34.515625 -0.328125 C 34.316406 -0.515625 34.203125 -0.757812 34.171875 -1.0625 C 34.140625 -2.738281 33.769531 -4.195312 33.0625 -5.4375 C 32.539062 -6.144531 31.75 -6.710938 30.6875 -7.140625 C 29.632812 -7.578125 28.335938 -7.8125 26.796875 -7.84375 C 25.617188 -7.90625 24.296875 -7.9375 22.828125 -7.9375 C 21.359375 -7.9375 20.019531 -7.90625 18.8125 -7.84375 C 17.226562 -7.8125 15.945312 -7.5625 14.96875 -7.09375 C 14 -6.632812 13.21875 -6.082031 12.625 -5.4375 C 12.320312 -4.9375 12.0625 -4.304688 11.84375 -3.546875 C 11.625 -2.796875 11.5 -1.96875 11.46875 -1.0625 C 11.4375 -0.757812 11.3125 -0.515625 11.09375 -0.328125 C 10.882812 -0.140625 10.65625 -0.03125 10.40625 0 C 9.84375 0.0625 9.085938 0.113281 8.140625 0.15625 C 7.203125 0.207031 6.363281 0.234375 5.625 0.234375 Z M 21.171875 -12.078125 C 21.609375 -12.046875 22.164062 -12.03125 22.84375 -12.03125 C 23.53125 -12.03125 24.070312 -12.046875 24.46875 -12.078125 C 26.050781 -12.140625 27.132812 -12.460938 27.71875 -13.046875 C 28.3125 -13.640625 28.375 -14.460938 27.90625 -15.515625 C 27.445312 -16.691406 26.890625 -17.90625 26.234375 -19.15625 C 25.585938 -20.40625 24.9375 -21.617188 24.28125 -22.796875 C 23.789062 -23.691406 23.296875 -24.140625 22.796875 -24.140625 C 22.304688 -24.140625 21.796875 -23.691406 21.265625 -22.796875 C 20.617188 -21.617188 19.984375 -20.410156 19.359375 -19.171875 C 18.742188 -17.941406 18.203125 -16.722656 17.734375 -15.515625 C 16.773438 -13.378906 17.921875 -12.234375 21.171875 -12.078125 Z M 21.171875 -12.078125 "/></g></g></g><g fill="#3d56a5" fill-opacity="1"><g transform="translate(90.56776, 45.193811)"><g><path d="M 15 0.234375 C 14.59375 0.234375 13.992188 0.207031 13.203125 0.15625 C 12.421875 0.113281 11.71875 0.0625 11.09375 0 C 10.257812 -0.09375 9.671875 -0.570312 9.328125 -1.4375 C 8.554688 -3.207031 7.769531 -5.242188 6.96875 -7.546875 C 6.164062 -9.847656 5.375 -12.304688 4.59375 -14.921875 C 3.820312 -17.546875 3.109375 -20.226562 2.453125 -22.96875 C 1.804688 -25.707031 1.253906 -28.375 0.796875 -30.96875 C 0.578125 -31.894531 0.882812 -32.40625 1.71875 -32.5 C 2.425781 -32.59375 3.160156 -32.65625 3.921875 -32.6875 C 4.679688 -32.71875 5.28125 -32.734375 5.71875 -32.734375 C 6.113281 -32.734375 6.664062 -32.71875 7.375 -32.6875 C 8.09375 -32.65625 8.742188 -32.609375 9.328125 -32.546875 C 10.203125 -32.453125 10.671875 -31.957031 10.734375 -31.0625 C 10.816406 -30.070312 10.96875 -28.941406 11.1875 -27.671875 C 11.40625 -26.398438 11.65625 -25.09375 11.9375 -23.75 C 12.21875 -22.40625 12.492188 -21.132812 12.765625 -19.9375 C 13.046875 -18.75 13.3125 -17.738281 13.5625 -16.90625 C 13.925781 -15.382812 14.3125 -14.113281 14.71875 -13.09375 C 15.125 -12.070312 15.585938 -11.5625 16.109375 -11.5625 C 16.734375 -11.5625 17.242188 -12.078125 17.640625 -13.109375 C 18.046875 -14.148438 18.515625 -15.429688 19.046875 -16.953125 C 19.378906 -17.878906 19.753906 -18.914062 20.171875 -20.0625 C 20.585938 -21.207031 21.03125 -22.367188 21.5 -23.546875 C 21.96875 -24.722656 22.382812 -25.789062 22.75 -26.75 C 23.375 -28.289062 24.070312 -29.414062 24.84375 -30.125 C 25.613281 -30.84375 26.664062 -31.203125 28 -31.203125 C 29.363281 -31.203125 30.425781 -30.84375 31.1875 -30.125 C 31.945312 -29.414062 32.632812 -28.289062 33.25 -26.75 C 33.65625 -25.789062 34.082031 -24.722656 34.53125 -23.546875 C 34.976562 -22.367188 35.414062 -21.207031 35.84375 -20.0625 C 36.28125 -18.914062 36.671875 -17.878906 37.015625 -16.953125 C 37.535156 -15.429688 38.003906 -14.148438 38.421875 -13.109375 C 38.835938 -12.078125 39.34375 -11.5625 39.9375 -11.5625 C 40.457031 -11.5625 40.921875 -12.046875 41.328125 -13.015625 C 41.734375 -13.992188 42.117188 -15.273438 42.484375 -16.859375 C 42.734375 -17.691406 43 -18.703125 43.28125 -19.890625 C 43.5625 -21.085938 43.835938 -22.351562 44.109375 -23.6875 C 44.390625 -25.019531 44.628906 -26.328125 44.828125 -27.609375 C 45.035156 -28.890625 45.1875 -30.023438 45.28125 -31.015625 C 45.375 -31.859375 45.867188 -32.351562 46.765625 -32.5 C 47.347656 -32.59375 47.992188 -32.65625 48.703125 -32.6875 C 49.421875 -32.71875 49.984375 -32.734375 50.390625 -32.734375 C 50.785156 -32.734375 51.367188 -32.71875 52.140625 -32.6875 C 52.921875 -32.65625 53.664062 -32.59375 54.375 -32.5 C 55.207031 -32.40625 55.519531 -31.894531 55.3125 -30.96875 C 54.875 -28.375 54.320312 -25.695312 53.65625 -22.9375 C 52.988281 -20.1875 52.269531 -17.484375 51.5 -14.828125 C 50.726562 -12.179688 49.9375 -9.707031 49.125 -7.40625 C 48.320312 -5.101562 47.550781 -3.097656 46.8125 -1.390625 C 46.625 -0.992188 46.378906 -0.671875 46.078125 -0.421875 C 45.785156 -0.171875 45.410156 -0.015625 44.953125 0.046875 C 44.359375 0.109375 43.691406 0.15625 42.953125 0.1875 C 42.210938 0.21875 41.625 0.234375 41.1875 0.234375 C 40.695312 0.234375 40.0625 0.21875 39.28125 0.1875 C 38.507812 0.15625 37.660156 0.09375 36.734375 0 C 36.015625 -0.0625 35.390625 -0.175781 34.859375 -0.34375 C 34.335938 -0.519531 33.988281 -0.945312 33.8125 -1.625 L 31.578125 -11.234375 C 31.203125 -12.753906 30.84375 -14.109375 30.5 -15.296875 C 30.164062 -16.492188 29.796875 -17.445312 29.390625 -18.15625 C 28.992188 -18.863281 28.53125 -19.21875 28 -19.21875 C 27.507812 -19.21875 27.0625 -18.863281 26.65625 -18.15625 C 26.25 -17.445312 25.882812 -16.492188 25.5625 -15.296875 C 25.238281 -14.109375 24.890625 -12.753906 24.515625 -11.234375 C 24.148438 -9.628906 23.753906 -7.953125 23.328125 -6.203125 C 22.910156 -4.453125 22.535156 -2.941406 22.203125 -1.671875 C 22.015625 -0.992188 21.664062 -0.566406 21.15625 -0.390625 C 20.644531 -0.222656 20.03125 -0.09375 19.3125 0 C 18.382812 0.125 17.554688 0.191406 16.828125 0.203125 C 16.109375 0.222656 15.5 0.234375 15 0.234375 Z M 15 0.234375 "/></g></g></g></g></g></svg>